<svg width="271" height="213" viewBox="0 0 271 213" fill="none" xmlns="http://www.w3.org/2000/svg">
<g clip-path="url(#clip0)">
<path opacity="0.1" d="M171.93 28.4599C157.522 27.9594 143.797 23.2842 130.691 18.1844C117.585 13.0847 104.604 7.40837 90.5403 4.69863C81.4932 2.95591 71.1496 2.70957 63.8582 7.58133C56.8459 12.2697 54.5789 20.3648 53.3607 27.8729C52.4424 33.523 51.905 39.4718 54.4172 44.7603C56.1598 48.4292 59.2564 51.5189 61.3982 55.0358C68.8487 67.2768 63.5817 82.369 55.5076 94.3191C51.7198 99.9116 47.3241 105.26 44.4049 111.217C41.4857 117.174 40.1292 124.024 42.6857 130.109C45.2214 136.137 51.2606 140.676 57.8164 143.865C71.1078 150.338 86.7733 152.191 102.037 153.241C135.841 155.563 169.825 154.552 203.72 153.551C216.263 153.179 228.86 152.801 241.2 150.851C248.053 149.769 255.128 148.053 260.102 143.907C266.418 138.645 267.983 129.732 263.755 123.133C256.656 112.063 237.028 109.314 232.069 97.4351C229.338 90.8966 232.142 83.6112 236.11 77.5471C244.625 64.5382 258.895 53.1254 259.646 38.2559C260.168 28.0354 253.302 17.8149 242.689 12.9825C231.571 7.91677 216.156 8.55359 207.951 16.9396C199.496 25.5825 184.653 28.9054 171.93 28.4599Z" fill="url(#paint0_linear)"/>
<path d="M131.259 196.482C131.259 196.482 119.259 175.121 101.175 168.965C93.5862 166.381 86.9626 161.523 82.4338 154.882C80.2908 151.728 78.4396 148.385 76.9033 144.892" stroke="#535461" stroke-width="2" stroke-miterlimit="10"/>
<path d="M65.5331 140.94C67.5914 142.948 77.1863 145.026 77.1863 145.026C77.1863 145.026 74.8385 135.455 72.7723 133.445C71.7762 132.517 70.4579 132.017 69.0997 132.053C67.7414 132.089 66.4511 132.658 65.5049 133.637C64.5587 134.617 64.0319 135.93 64.0371 137.294C64.0424 138.659 64.5794 139.968 65.5331 140.94Z" fill="#FF8000"/>
<path d="M70.9604 158.26C73.7778 158.821 82.9605 155.328 82.9605 155.328C82.9605 155.328 75.8048 148.577 72.99 148.016C72.3148 147.868 71.617 147.857 70.9374 147.983C70.2578 148.109 69.61 148.37 69.0319 148.75C68.4538 149.13 67.957 149.623 67.5705 150.198C67.1841 150.774 66.9157 151.421 66.7812 152.102C66.6466 152.783 66.6485 153.484 66.7868 154.164C66.9251 154.844 67.197 155.49 67.5866 156.063C67.9762 156.637 68.4757 157.126 69.0559 157.504C69.6361 157.881 70.2853 158.138 70.9656 158.26H70.9604Z" fill="#FF8000"/>
<path d="M90.7248 176.995C93.4378 176.052 99.5945 168.381 99.5945 168.381C99.5945 168.381 90.0282 166.182 87.3152 167.126C86.0526 167.608 85.0266 168.566 84.4544 169.795C83.8821 171.024 83.8086 172.429 84.2494 173.712C84.6902 174.994 85.6107 176.054 86.8159 176.667C88.0211 177.28 89.4165 177.398 90.7065 176.995H90.7248Z" fill="#FF8000"/>
<path d="M108.854 187.8C111.687 187.331 119.054 180.819 119.054 180.819C119.054 180.819 109.994 177.027 107.161 177.496C105.823 177.745 104.636 178.512 103.854 179.631C103.073 180.75 102.759 182.133 102.981 183.481C103.202 184.83 103.941 186.038 105.04 186.846C106.138 187.653 107.507 187.996 108.854 187.8Z" fill="#FF8000"/>
<path d="M90.956 147.849C90.956 150.731 85.762 159.099 85.762 159.099C85.762 159.099 80.5602 150.736 80.5576 147.854C80.5576 146.469 81.1054 145.14 82.0804 144.161C83.0555 143.181 84.3779 142.631 85.7568 142.631C87.1357 142.631 88.4582 143.181 89.4332 144.161C90.4082 145.14 90.956 146.469 90.956 147.854V147.849Z" fill="#FF8000"/>
<path d="M112 160.747C111.142 163.499 103.694 169.919 103.694 169.919C103.694 169.919 101.221 160.378 102.079 157.626C102.26 156.945 102.576 156.307 103.009 155.752C103.441 155.197 103.981 154.736 104.596 154.396C105.21 154.056 105.887 153.844 106.585 153.774C107.283 153.704 107.989 153.776 108.658 153.987C109.328 154.198 109.948 154.543 110.481 155.001C111.015 155.459 111.45 156.02 111.762 156.652C112.073 157.284 112.254 157.972 112.294 158.676C112.334 159.38 112.231 160.084 111.993 160.747H112Z" fill="#FF8000"/>
<path d="M130.742 176.104C130.361 178.96 124.1 186.555 124.1 186.555C124.1 186.555 120.056 177.571 120.448 174.712C120.539 174.033 120.762 173.378 121.105 172.785C121.448 172.192 121.903 171.673 122.446 171.257C122.989 170.841 123.607 170.537 124.267 170.361C124.927 170.186 125.615 170.142 126.291 170.234C126.968 170.325 127.619 170.549 128.21 170.894C128.8 171.238 129.317 171.696 129.731 172.241C130.145 172.786 130.448 173.408 130.622 174.071C130.797 174.733 130.84 175.424 130.749 176.104H130.742Z" fill="#FF8000"/>
<path d="M65.5331 140.94C67.5914 142.948 77.1863 145.026 77.1863 145.026C77.1863 145.026 74.8385 135.455 72.7723 133.445C71.7762 132.517 70.4579 132.017 69.0997 132.053C67.7414 132.089 66.4511 132.658 65.5049 133.637C64.5587 134.617 64.0319 135.93 64.0371 137.294C64.0424 138.659 64.5794 139.968 65.5331 140.94Z" fill="#9347B2"/>
<path d="M70.9604 158.26C73.7778 158.821 82.9605 155.328 82.9605 155.328C82.9605 155.328 75.8048 148.577 72.99 148.016C72.3148 147.868 71.617 147.857 70.9374 147.983C70.2578 148.109 69.61 148.37 69.0319 148.75C68.4538 149.13 67.957 149.623 67.5705 150.198C67.1841 150.774 66.9157 151.421 66.7812 152.102C66.6466 152.783 66.6485 153.484 66.7868 154.164C66.9251 154.844 67.197 155.49 67.5866 156.063C67.9762 156.637 68.4757 157.126 69.0559 157.504C69.6361 157.881 70.2853 158.138 70.9656 158.26H70.9604Z" fill="#9347B2"/>
<path d="M90.7248 176.995C93.4378 176.052 99.5945 168.381 99.5945 168.381C99.5945 168.381 90.0282 166.182 87.3152 167.126C86.0526 167.608 85.0266 168.566 84.4544 169.795C83.8821 171.024 83.8086 172.429 84.2494 173.712C84.6902 174.994 85.6107 176.054 86.8159 176.667C88.0211 177.28 89.4165 177.398 90.7065 176.995H90.7248Z" fill="#9347B2"/>
<path d="M108.854 187.8C111.687 187.331 119.054 180.819 119.054 180.819C119.054 180.819 109.994 177.027 107.161 177.496C105.823 177.745 104.636 178.512 103.854 179.631C103.073 180.75 102.759 182.133 102.981 183.481C103.202 184.83 103.941 186.038 105.04 186.846C106.138 187.653 107.507 187.996 108.854 187.8Z" fill="#9347B2"/>
<path d="M90.956 147.849C90.956 150.731 85.762 159.099 85.762 159.099C85.762 159.099 80.5602 150.736 80.5576 147.854C80.5576 146.469 81.1054 145.14 82.0804 144.161C83.0555 143.181 84.3779 142.631 85.7568 142.631C87.1357 142.631 88.4582 143.181 89.4332 144.161C90.4082 145.14 90.956 146.469 90.956 147.854V147.849Z" fill="#9347B2"/>
<path d="M112 160.747C111.142 163.499 103.694 169.919 103.694 169.919C103.694 169.919 101.221 160.378 102.079 157.626C102.26 156.945 102.576 156.307 103.009 155.752C103.441 155.197 103.981 154.736 104.596 154.396C105.21 154.056 105.887 153.844 106.585 153.774C107.283 153.704 107.989 153.776 108.658 153.987C109.328 154.198 109.948 154.543 110.481 155.001C111.015 155.459 111.45 156.02 111.762 156.652C112.073 157.284 112.254 157.972 112.294 158.676C112.334 159.38 112.231 160.084 111.993 160.747H112Z" fill="#9347B2"/>
<path opacity="0.25" d="M130.742 176.104C130.361 178.96 124.1 186.555 124.1 186.555C124.1 186.555 120.056 177.571 120.448 174.712C120.539 174.033 120.762 173.378 121.105 172.785C121.448 172.192 121.903 171.673 122.446 171.257C122.989 170.841 123.607 170.537 124.267 170.361C124.927 170.186 125.615 170.142 126.291 170.234C126.968 170.325 127.619 170.549 128.21 170.894C128.8 171.238 129.317 171.696 129.731 172.241C130.145 172.786 130.448 173.408 130.622 174.071C130.797 174.733 130.84 175.424 130.749 176.104H130.742Z" fill="black"/>
<path d="M130.567 196.058C130.567 196.058 128.219 171.641 114.166 158.653C108.27 153.202 104.175 146.074 102.714 138.149C102.026 134.393 101.683 130.582 101.689 126.763" stroke="#535461" stroke-width="2" stroke-miterlimit="10"/>
<path d="M92.8861 118.526C93.9583 121.202 101.891 127.006 101.891 127.006C101.891 127.006 103.6 117.297 102.528 114.621C102.273 113.985 101.895 113.405 101.417 112.915C100.939 112.425 100.369 112.034 99.7401 111.765C99.1115 111.496 98.4363 111.354 97.7531 111.347C97.0699 111.341 96.3921 111.469 95.7583 111.726C95.1245 111.982 94.5472 112.361 94.0594 112.842C93.5715 113.322 93.1826 113.895 92.9149 114.526C92.6473 115.158 92.506 115.836 92.4993 116.522C92.4925 117.208 92.6204 117.889 92.8757 118.526H92.8861Z" fill="#602678"/>
<path d="M90.86 136.569C93.2079 138.228 103.009 138.77 103.009 138.77C103.009 138.77 99.1923 129.687 96.8444 128.026C96.2869 127.617 95.6539 127.324 94.9823 127.163C94.3108 127.003 93.6142 126.978 92.9331 127.091C92.252 127.204 91.6001 127.452 91.0155 127.821C90.4308 128.189 89.925 128.671 89.5277 129.238C89.1304 129.805 88.8495 130.446 88.7013 131.123C88.5531 131.801 88.5407 132.501 88.6647 133.183C88.7887 133.865 89.0467 134.515 89.4236 135.096C89.8005 135.677 90.2888 136.177 90.86 136.566V136.569Z" fill="#602678"/>
<path d="M101.368 161.748C104.237 161.989 112.961 157.487 112.961 157.487C112.961 157.487 105.101 151.575 102.239 151.341C101.55 151.268 100.854 151.333 100.191 151.533C99.5278 151.734 98.9112 152.065 98.3773 152.508C97.8435 152.951 97.4031 153.497 97.082 154.113C96.7609 154.729 96.5656 155.404 96.5076 156.097C96.4495 156.79 96.5299 157.488 96.744 158.15C96.9581 158.811 97.3016 159.423 97.7543 159.95C98.207 160.476 98.7598 160.906 99.3803 161.215C100.001 161.524 100.676 161.705 101.368 161.748Z" fill="#602678"/>
<path d="M113.586 179.002C116.366 179.726 125.729 176.77 125.729 176.77C125.729 176.77 118.975 169.615 116.197 168.892C114.871 168.569 113.471 168.783 112.301 169.488C111.13 170.192 110.282 171.331 109.94 172.658C109.597 173.985 109.788 175.393 110.471 176.58C111.153 177.767 112.273 178.637 113.588 179.002H113.586Z" fill="#602678"/>
<path d="M113.341 135.188C112.178 137.827 104.054 143.359 104.054 143.359C104.054 143.359 102.671 133.597 103.832 130.961C104.395 129.701 105.431 128.716 106.714 128.222C107.997 127.727 109.423 127.764 110.68 128.322C111.937 128.881 112.922 129.917 113.421 131.203C113.92 132.49 113.891 133.923 113.341 135.188Z" fill="#602678"/>
<path d="M127.376 155.548C125.482 157.715 116.083 160.553 116.083 160.553C116.083 160.553 117.672 150.823 119.566 148.658C120.016 148.143 120.563 147.722 121.175 147.419C121.788 147.116 122.453 146.937 123.134 146.893C123.815 146.848 124.498 146.939 125.145 147.16C125.791 147.381 126.387 147.727 126.9 148.18C127.413 148.632 127.832 149.181 128.134 149.797C128.435 150.412 128.613 151.08 128.657 151.765C128.701 152.449 128.611 153.135 128.391 153.784C128.171 154.433 127.827 155.032 127.376 155.548Z" fill="#602678"/>
<path d="M138.317 177.218C136.804 179.676 128.028 184.071 128.028 184.071C128.028 184.071 127.955 174.212 129.458 171.754C130.179 170.572 131.338 169.727 132.68 169.404C134.022 169.081 135.437 169.307 136.613 170.032C137.789 170.757 138.631 171.921 138.952 173.27C139.274 174.618 139.049 176.039 138.327 177.22L138.317 177.218Z" fill="#602678"/>
<path opacity="0.1" d="M155.966 213C194.695 213 226.091 210.732 226.091 207.934C226.091 205.137 194.695 202.869 155.966 202.869C117.237 202.869 85.8408 205.137 85.8408 207.934C85.8408 210.732 117.237 213 155.966 213Z" fill="url(#paint1_linear)"/>
<path d="M255.162 66.5248C255.365 65.9666 253.839 62.869 253.839 62.717C253.839 62.565 252.261 60.838 252.261 59.8736C252.261 58.9092 250.174 56.8285 250.174 56.8285C250.174 56.8285 247.375 55.6597 247.069 53.1203C246.764 50.5809 243.717 50.5311 243.709 50.5311C243.709 50.5311 243.722 50.2978 243.728 49.9493C243.728 49.1631 243.704 47.748 243.352 46.9775C242.83 45.8611 241.62 45.5047 241.62 45.5047C241.62 45.5047 241.315 43.5235 240.704 42.9129C240.363 42.5548 240.118 42.115 239.993 41.6353C239.869 41.1555 239.868 40.6517 239.992 40.1717C240.297 39.2099 239.585 36.7649 238.109 36.4163C236.632 36.0678 234.952 35.5017 234.952 35.5017C234.952 35.5017 234.788 35.5332 234.545 35.5672L234.341 35.5017C233.988 35.5678 233.631 35.6125 233.272 35.6354C232.96 35.6441 232.654 35.5431 232.408 35.3497C231.887 34.7915 227.778 33.7249 227.014 33.7249C226.249 33.7249 224.06 32.7081 224.06 32.7081C224.06 32.7081 222.534 31.542 221.874 31.0336C221.259 30.5645 220.124 28.6593 219.96 28.3788L219.939 28.3422H219.926C219.77 27.9814 219.636 27.6112 219.527 27.2336C219.503 27.155 219.485 27.0764 219.464 26.9978C220.208 26.2125 220.845 25.3312 221.358 24.3771C221.41 24.2776 221.457 24.1753 221.507 24.0758C221.619 24.0754 221.731 24.0578 221.838 24.0234C221.883 24.0082 221.927 23.9907 221.971 23.9709C222.487 23.698 222.875 23.2319 223.051 22.6737C223.087 22.5637 223.119 22.451 223.147 22.3383L223.171 22.2256C223.189 22.1496 223.205 22.071 223.22 21.9924C223.236 21.9137 223.234 21.9059 223.241 21.8613C223.249 21.8168 223.265 21.7093 223.275 21.6333C223.286 21.5573 223.275 21.5469 223.294 21.5049C223.307 21.408 223.317 21.3136 223.33 21.2167C223.372 20.8576 223.414 20.4986 223.489 20.1474C223.488 20.1423 223.488 20.1369 223.489 20.1317C223.792 18.7533 224.619 17.5897 225.203 16.3161C225.287 16.1326 225.365 15.9466 225.438 15.7605C225.511 15.5744 225.579 15.3517 225.639 15.142C225.657 15.0791 225.67 15.0162 225.688 14.9533C225.727 14.7996 225.761 14.645 225.79 14.4895C225.803 14.424 225.816 14.3585 225.827 14.2903C225.863 14.0807 225.892 13.8684 225.907 13.6561C226.012 12.4426 225.834 11.2213 225.386 10.0894C225.005 9.13553 224.436 8.27596 224.05 7.32467C223.466 5.87808 223.312 4.2428 222.597 2.86959C221.4 0.560808 218.577 -0.594892 216.258 0.272538C215.152 0.686599 214.192 1.49113 213.067 1.84492C211.565 2.32712 209.955 1.96547 208.398 1.74796C206.84 1.53044 205.121 1.5121 203.869 2.53415C202.426 3.71081 202.043 5.92263 200.681 7.21198C200.112 7.75445 199.405 8.10038 198.805 8.60092C198.384 8.94095 198.059 9.38658 197.864 9.89289C197.864 9.92958 197.84 9.96627 197.83 10.003C197.819 10.0396 197.806 10.0894 197.796 10.134C197.785 10.1785 197.778 10.2362 197.77 10.286C197.762 10.3358 197.77 10.3567 197.77 10.3908C197.762 10.478 197.762 10.5657 197.77 10.6529C197.778 10.741 197.792 10.8285 197.811 10.9149C197.816 10.938 197.822 10.9608 197.83 10.9831C197.847 11.0558 197.868 11.1276 197.892 11.198C197.892 11.198 197.892 11.2242 197.892 11.2373C197.921 11.3159 197.952 11.3919 197.984 11.4705L198.033 11.5832C198.033 11.6146 198.062 11.6461 198.075 11.6802C198.273 12.0554 198.432 12.4507 198.547 12.8594C198.612 13.1201 198.596 13.3946 198.5 13.6456C198.364 13.929 198.172 14.1821 197.937 14.3899C196.923 15.4478 196.141 16.7063 195.638 18.085C195.581 18.2422 195.526 18.3995 195.474 18.5593C195.474 18.5593 195.474 18.5593 195.474 18.5724L195.542 18.5908C195.688 18.6331 195.837 18.6655 195.988 18.6877C196.074 18.6877 196.16 18.7087 196.249 18.7139C196.599 18.7342 196.949 18.7077 197.292 18.6353C197.381 18.617 197.467 18.596 197.553 18.5724C197.907 18.4765 198.252 18.3493 198.584 18.1924C198.584 18.2973 198.584 18.3995 198.584 18.5043C198.584 18.562 198.584 18.6196 198.584 18.6773C198.586 20.9233 199.213 23.124 200.393 25.0319C201.573 26.9398 203.259 28.4792 205.262 29.4769C205.278 29.5896 205.291 29.697 205.306 29.8071C205.322 29.9172 205.33 29.9932 205.34 30.0849L205.202 29.9512C205.202 29.9512 204.286 29.4952 203.42 30.816C202.554 32.1368 200.926 32.7448 200.926 32.7448C200.926 32.7448 191.663 34.2176 191.308 35.4362L186.98 35.6983C186.98 35.6983 185.454 35.9001 185.303 39.1051C185.151 42.3101 184.335 42.6089 184.335 42.6089C184.335 42.6089 182.553 45.7537 182.707 47.3811C182.861 49.0085 181.332 49.8183 181.332 49.8183L181.129 52.701C181.129 52.701 179.449 52.4389 178.989 54.428C178.53 56.417 177.719 57.3107 177.719 57.3107C177.719 57.3107 174.917 59.6483 174.766 61.6268L173.036 62.6934C173.036 62.6934 169.014 61.7788 168.098 60.154L167.816 59.892C167.807 59.8798 167.799 59.8667 167.793 59.8527C167.792 59.8588 167.792 59.8649 167.793 59.871C167.193 59.3023 165.915 58.1073 166.11 58.3825C166.228 58.6381 166.257 58.9259 166.194 59.2001L165.894 58.8673L165.093 57.9737C165.093 57.9737 159.111 51.0709 155.294 50.5861L155.005 50.0122C154.926 49.857 154.789 49.7395 154.625 49.6855C154.46 49.6315 154.28 49.6453 154.126 49.7239L148.368 52.6066C148.291 52.6448 148.223 52.6978 148.167 52.7627C148.11 52.8275 148.068 52.9029 148.04 52.9845C148.013 53.0661 148.002 53.1523 148.008 53.2381C148.015 53.3239 148.038 53.4077 148.076 53.4845L148.72 54.7555H148.707C148.7 54.7591 148.693 54.7642 148.688 54.7704C148.683 54.7767 148.679 54.7839 148.676 54.7918C148.674 54.7997 148.673 54.8079 148.674 54.8161C148.675 54.8243 148.677 54.8322 148.681 54.8394L148.908 55.2875C148.916 55.3024 148.928 55.3138 148.944 55.3192C148.96 55.3246 148.977 55.3236 148.992 55.3164L149.229 55.7854C149.213 55.7939 149.2 55.8085 149.194 55.8262C149.188 55.8438 149.19 55.8631 149.198 55.8798L149.628 56.7289C149.632 56.7373 149.638 56.7449 149.645 56.7511C149.652 56.7574 149.66 56.7621 149.668 56.765C149.677 56.768 149.687 56.7691 149.696 56.7683C149.705 56.7675 149.714 56.7648 149.722 56.7603L149.897 57.1036C149.882 57.112 149.87 57.1259 149.865 57.1424C149.86 57.159 149.861 57.177 149.868 57.1927L150.307 58.0575C150.31 58.0656 150.315 58.0728 150.322 58.0788C150.328 58.0847 150.336 58.0891 150.344 58.0918C150.353 58.0946 150.362 58.0955 150.37 58.0945C150.379 58.0936 150.388 58.0908 150.395 58.0864L154.569 66.3702C154.648 66.5253 154.784 66.6429 154.949 66.6974C155.114 66.7519 155.293 66.7388 155.448 66.6611L159.867 64.4414L160.024 64.5567L161.328 66.2418C161.107 66.7659 160.921 67.29 160.765 67.7591C160.761 67.7742 160.757 67.7891 160.752 67.8037C160.718 67.9033 160.687 68.0028 160.658 68.0972L160.627 68.1968C160.595 68.2937 160.567 68.3881 160.541 68.4772L160.494 68.6449C160.494 68.6763 160.473 68.7104 160.465 68.7419C160.321 69.2503 160.23 69.6434 160.181 69.8609L159.844 69.7561L160.173 69.8976C160.173 69.9159 160.173 69.9369 160.173 69.95C160.157 70.0181 160.152 70.0574 160.152 70.0574C160.251 70.1046 160.355 70.1491 160.465 70.1937C162.247 70.9799 171.145 74.8951 171.602 75.49C172.11 76.1504 175.47 78.0792 178.525 76.4544C181.58 74.8296 182.24 72.3426 182.24 72.3426C182.24 72.3426 185.193 68.2282 185.295 67.6255C185.397 67.0227 187.687 66.3152 187.687 66.3152C187.687 66.3152 187.89 73.1288 186.719 75.6079C185.548 78.0871 183.359 89.1121 183.359 89.1121C183.502 89.0837 183.647 89.0749 183.792 89.0859L183.664 89.7227C183.842 89.6889 184.024 89.6889 184.202 89.7227C184.04 90.9727 183.106 96.7984 183.106 96.7984C183.106 96.7984 182.801 99.44 182.29 100.352C181.778 101.264 181.731 106.039 181.731 106.039L180.917 109.493C180.917 109.493 181.024 109.731 181.225 110.088V110.101C181.225 110.101 182.099 112.05 183.573 113.143C183.505 113.683 183.368 114.212 183.163 114.716C182.642 115.73 182.757 117.153 182.757 117.153C182.757 117.153 181.893 121.06 181.992 122.179C182.091 123.298 181.413 126.037 181.413 126.037L180.497 134.871C180.497 134.871 179.887 142.536 180.192 144.62C180.497 146.703 179.989 149.544 179.989 149.544C179.989 149.544 180.599 155.587 180.445 156.245C180.291 156.903 179.529 159.749 179.989 161.324C180.448 162.899 180.192 167.212 180.192 167.212C180.192 167.212 180.497 172.902 180.852 174.728C181.207 176.555 180.75 178.892 180.75 178.892C180.75 178.892 180.393 182.802 180.229 182.802C180.064 182.802 178.752 185.491 181.45 188.133C184.147 190.774 182.483 190.36 182.483 190.36C182.483 190.36 180.343 189.294 180.599 191.477C180.839 193.555 181.176 193.012 181.207 192.955L180.685 194.624C180.685 194.624 180.818 194.64 181.043 194.674L180.748 195.03C180.439 195.418 180.095 195.776 179.72 196.1C179.109 196.555 179.057 197.57 179.057 197.57C179.057 197.57 175.293 201.684 171.782 203.765C169.935 204.86 168.338 205.788 167.644 206.553C167.018 207.242 167.122 207.801 168.427 208.233C171.176 209.148 176.01 209.604 179.469 208.437C181.534 207.746 183.39 206.541 184.864 204.934C184.864 204.934 187.056 203.815 189.192 204.221C191.329 204.627 195.604 201.836 195.604 201.836L195.526 201.115L195.299 199.042C195.299 199.042 194.778 198.432 194.942 197.774C195.012 197.475 194.905 196.705 194.767 195.94C194.731 195.738 194.691 195.539 194.652 195.35L195.044 195.277C195.044 195.277 194.538 192.687 195.453 192.179C196.369 191.671 196.113 185.019 196.113 185.019C196.113 185.019 194.942 183.497 194.331 183.243C193.721 182.988 194.279 179.836 194.384 179.435C194.488 179.034 195.299 171.159 195.299 171.159C195.299 171.159 194.994 168.672 195.401 167.605C195.808 166.539 194.892 162.427 194.892 162.427C194.892 162.427 194.587 161.919 195.153 161.308C195.719 160.697 195.5 155.283 195.5 155.283C195.5 155.283 195.451 152.542 195.451 151.829C195.451 151.116 196.061 148.53 196.619 147.668C197.178 146.805 196.825 144.111 196.825 144.111L196.857 143.91C196.857 143.834 196.883 143.734 196.901 143.621L196.948 143.359C197.192 141.872 197.523 140.4 197.939 138.951C198.602 136.818 199.366 133.063 199.366 133.063L204.109 120.651L204.164 120.505C204.164 120.505 206.35 124.567 206.35 128.327C206.35 128.327 206.913 132.845 206.759 134.064C206.605 135.282 207.219 141.019 207.219 141.019C207.219 141.019 207.879 149.243 207.879 149.599C207.879 149.955 208.692 156.303 209.204 157.27C209.715 158.237 208.682 161.177 208.387 161.481C208.092 161.785 208.489 169.251 208.489 169.251C208.489 169.251 207.725 175.14 207.573 176.358C207.422 177.577 206.809 182.249 207.312 184.079C207.816 185.908 207.618 186.159 207.618 186.159C207.618 186.159 209.444 188.038 208.382 188.19C207.32 188.342 205.687 189.713 206.345 191.896C207.002 194.079 208.588 197.331 208.588 197.331C208.588 197.331 208.904 197.26 209.431 197.153V197.756L209.493 200.783C209.493 200.783 209.848 203.665 209.645 204.339C209.496 204.818 209.292 207.096 209.193 208.27C209.157 208.705 209.136 208.996 209.136 208.996C209.136 208.996 209.136 211.684 214.784 210.875C220.432 210.065 221.452 207.827 221.452 207.827L221.494 207.546C221.577 207.022 221.754 205.945 221.908 205.34C222.114 204.525 220.283 200.869 220.283 200.869C220.283 200.869 219.975 198.385 219.467 197.824C219.256 197.502 219.116 197.138 219.057 196.757C219.01 196.553 218.971 196.341 218.937 196.131C219.07 196.149 219.198 196.173 219.313 196.199C219.313 196.199 219.007 194.422 220.181 193.861C221.355 193.301 221.045 192.137 220.894 191.629C220.742 191.12 221.35 188.28 221.35 188.28C221.268 187.997 221.263 187.697 221.334 187.412C221.406 187.126 221.552 186.865 221.757 186.655C222.472 185.942 223.03 180.965 223.03 180.965L223.153 161.795C223.153 161.795 223.51 158.389 223.103 157.021C222.696 155.653 222.287 153.011 222.842 152.303C223.398 151.596 222.894 148.294 222.894 148.294C222.894 148.294 222.894 141.336 223.656 139.612C224.418 137.887 224.178 126.967 224.178 126.967L224.379 119.81C224.379 119.81 226.041 118.238 225.647 109.988C227.421 109.878 229.421 109.812 229.724 110.059C230.282 110.515 233.898 112.852 236.035 111.369C236.494 111.165 238.578 109.388 238.578 109.388L237.681 94.1646C238.242 95.0137 238.581 95.5772 238.581 95.5772C238.581 93.444 244.581 86.5386 244.581 86.5386C244.581 86.5386 250.179 79.2794 251.4 78.4146C252.621 77.5498 255.013 72.9821 255.013 72.9821C255.368 72.1107 255.776 71.2625 256.237 70.4427C256.79 69.5228 254.958 67.0856 255.162 66.5248ZM242.029 71.8578C240.503 72.0098 237.297 75.5136 237.245 76.2736C237.219 76.6745 236.882 77.2144 236.569 77.6389C236.546 77.3323 236.52 77.0204 236.494 76.7034C236.134 72.2168 235.748 66.7449 235.925 66.2208C236.23 65.3062 236.126 61.1944 236.126 61.1944L236.183 61.1158C237.211 64.3025 240.396 68.0605 240.396 68.0605C240.396 68.0605 240.957 69.6853 241.617 69.7351C242.277 69.7849 242.029 71.8578 242.029 71.8578Z" fill="url(#paint2_linear)"/>
<path d="M160.427 70.6968C160.427 70.6968 162.282 60.9219 168.253 60.8721L172.615 69.8923L169.706 71.9075C169.706 71.9075 163.385 72.1093 160.427 70.6968Z" fill="#65617D"/>
<path opacity="0.1" d="M172.615 69.8896L169.706 71.9075C169.706 71.9075 165.271 72.049 162.078 71.2628C161.51 71.1296 160.957 70.94 160.427 70.6968C160.427 70.6968 160.427 70.6444 160.461 70.5395C160.46 70.5273 160.46 70.5151 160.461 70.5029C160.735 69.276 161.113 68.0749 161.59 66.9126C161.773 66.4749 161.982 66.0216 162.206 65.5708C163.08 63.8805 164.309 62.2243 165.989 61.404C166.61 61.097 167.287 60.9187 167.979 60.8799H168.156H168.245L168.339 61.079L169.816 64.1268L172.615 69.8896Z" fill="black"/>
<path d="M222.174 110.507C222.174 110.507 228.435 109.902 228.996 110.355C229.556 110.809 233.109 113.128 235.215 111.666C237.32 110.203 235.916 105.114 235.916 104.912C235.916 104.71 235.718 97.5063 235.718 97.5063L231.954 92.417L227.24 83.5068L217.608 82.5503L217.869 96.7017L217.82 103.958L222.174 110.507Z" fill="#65617D"/>
<path opacity="0.1" d="M222.174 110.507C222.174 110.507 228.435 109.902 228.996 110.355C229.556 110.809 233.109 113.128 235.215 111.666C237.32 110.203 235.916 105.114 235.916 104.912C235.916 104.71 235.718 97.5063 235.718 97.5063L231.954 92.417L227.24 83.5068L217.608 82.5503L217.869 96.7017L217.82 103.958L222.174 110.507Z" fill="black"/>
<path d="M166.996 60.6203C166.996 60.6203 166.498 66.7684 162.684 66.8679C162.684 66.8679 161.604 66.2128 160.151 65.1226C156.801 62.6042 151.484 57.7639 152.953 53.2616C155.061 46.8122 165.292 58.7047 165.292 58.7047L166.075 59.5904L166.996 60.6203Z" fill="#F89D8F"/>
<path opacity="0.1" d="M166.995 60.6207C166.995 60.6207 166.496 66.7687 162.682 66.8683C162.682 66.8683 161.602 66.2132 160.149 65.123L159.823 64.7037C160.469 65.0427 161.182 65.235 161.91 65.2671C162.868 65.2881 163.945 64.9317 164.636 63.5427C165.033 62.7514 165.381 61.9366 165.68 61.1029C165.863 60.6144 165.992 60.1074 166.066 59.5908L166.995 60.6207Z" fill="black"/>
<path d="M165.342 71.7553L164.483 70.6467L161.588 66.9123L160.116 65.0045C160.762 65.3452 161.475 65.5384 162.203 65.5706C163.161 65.5915 164.238 65.2351 164.932 63.8436C165.329 63.0523 165.677 62.2375 165.975 61.4038C166.453 60.0437 166.442 59.344 166.275 59.1081C166.108 58.8722 167.34 60.0227 167.932 60.5861L167.953 60.6071C168.122 60.7643 168.232 60.8692 168.232 60.8692L168.334 61.0736L169.787 63.993L169.802 64.1161C169.935 65.0438 170.426 70.9219 165.342 71.7553Z" fill="#E7EFFD"/>
<path d="M195.389 201.461C195.389 201.461 191.176 204.234 189.07 203.82C186.965 203.406 184.805 204.528 184.805 204.528C183.354 206.121 181.523 207.317 179.486 208.005C176.076 209.164 171.313 208.71 168.605 207.801C167.321 207.374 167.22 206.818 167.835 206.137C168.521 205.374 170.094 204.454 171.915 203.367C175.375 201.302 179.087 197.219 179.087 197.219C179.087 197.219 179.136 196.212 179.739 195.759C180.108 195.442 180.447 195.091 180.751 194.711C181.289 194.071 181.795 193.4 181.795 193.4L194.186 193.804C194.186 193.804 194.397 194.703 194.562 195.62C194.7 196.372 194.807 197.137 194.737 197.434C194.585 198.086 195.089 198.691 195.089 198.691L195.31 200.749L195.389 201.461Z" fill="#65617D"/>
<path d="M221.327 204.936C221.178 205.539 220.998 206.621 220.917 207.13C220.889 207.303 220.876 207.408 220.876 207.408C220.876 207.408 219.871 209.625 214.304 210.432C208.737 211.239 208.737 208.566 208.737 208.566C208.737 208.566 208.758 208.278 208.795 207.845C208.891 206.666 209.092 204.41 209.238 203.93C209.439 203.275 209.089 200.403 209.089 200.403L209.029 197.399L208.988 195.303L218.217 194.344C218.276 195.037 218.375 195.727 218.515 196.409C218.573 196.783 218.711 197.141 218.919 197.457C219.42 198.015 219.723 200.481 219.723 200.481C219.723 200.481 221.523 204.129 221.327 204.936Z" fill="#65617D"/>
<path opacity="0.1" d="M194.197 193.801C194.197 193.801 194.408 194.7 194.573 195.617C193.234 195.864 187.383 196.883 185.92 196.17C184.266 195.363 180.702 194.91 180.702 194.91L180.762 194.705C181.3 194.066 181.806 193.395 181.806 193.395L194.197 193.801Z" fill="black"/>
<path opacity="0.1" d="M218.51 196.419C216.163 196.021 211.044 196.985 209.025 197.399L208.983 195.303L218.213 194.344C218.271 195.041 218.371 195.734 218.51 196.419Z" fill="black"/>
<path d="M223.73 120.031L223.529 127.135C223.529 127.135 223.79 137.969 223.028 139.683C222.267 141.397 222.275 148.299 222.275 148.299C222.275 148.299 222.778 151.575 222.225 152.277C221.672 152.98 222.074 155.606 222.486 156.966C222.898 158.326 222.533 161.704 222.533 161.704L222.434 180.751C222.434 180.751 221.883 185.688 221.179 186.396C220.977 186.605 220.833 186.864 220.763 187.147C220.693 187.43 220.699 187.727 220.78 188.007C220.78 188.007 220.177 190.827 220.328 191.333C220.48 191.839 220.78 192.994 219.627 193.547C218.474 194.1 218.771 195.866 218.771 195.866C216.014 195.211 208.19 196.978 208.19 196.978C208.19 196.978 206.625 193.752 205.98 191.584C205.336 189.417 206.935 188.057 207.987 187.915C209.038 187.774 207.235 185.898 207.235 185.898C207.235 185.898 207.436 185.636 206.935 183.833C206.434 182.03 207.034 177.381 207.196 176.172C207.358 174.964 208.099 169.118 208.099 169.118C208.099 169.118 207.7 161.712 208 161.408C208.3 161.104 209.304 158.182 208.803 157.215C208.302 156.248 207.499 149.958 207.499 149.615C207.499 149.272 206.847 141.098 206.847 141.098C206.847 141.098 206.247 135.403 206.395 134.195C206.544 132.987 205.993 128.503 205.993 128.503C205.993 124.771 203.839 120.741 203.839 120.741L203.784 120.885L199.122 133.202C199.122 133.202 198.371 136.928 197.716 139.046C197.305 140.483 196.978 141.944 196.738 143.42L196.693 143.682C196.675 143.794 196.659 143.891 196.649 143.965L196.618 144.169C196.618 144.169 196.967 146.84 196.417 147.697C195.866 148.554 195.24 151.122 195.24 151.837C195.24 152.553 195.287 155.268 195.287 155.268C195.287 155.268 195.491 160.658 194.938 161.264C194.385 161.869 194.677 162.372 194.677 162.372C194.677 162.372 195.582 166.452 195.18 167.511C194.779 168.57 195.081 171.036 195.081 171.036C195.081 171.036 194.285 178.83 194.197 179.239C194.108 179.647 193.545 182.766 194.145 183.018C194.745 183.269 195.9 184.781 195.9 184.781C195.9 184.781 196.161 191.383 195.251 191.886C194.34 192.389 194.846 194.96 194.846 194.96C194.846 194.96 187.576 196.372 185.919 195.565C184.263 194.758 180.702 194.305 180.702 194.305L181.2 192.648C181.171 192.706 180.84 193.243 180.603 191.181C180.342 189.014 182.46 190.072 182.46 190.072C182.46 190.072 184.114 190.476 181.453 187.855C178.792 185.235 180.099 182.564 180.25 182.564C180.402 182.564 180.751 178.686 180.751 178.686C180.751 178.686 181.203 176.366 180.851 174.553C180.498 172.739 180.201 167.095 180.201 167.095C180.201 167.095 180.462 162.812 180 161.251C179.538 159.689 180.3 156.866 180.451 156.208C180.603 155.551 180 149.557 180 149.557C180 149.557 180.504 146.737 180.201 144.672C179.898 142.607 180.504 134.997 180.504 134.997L181.406 126.228C181.406 126.228 182.056 123.508 181.957 122.4C181.857 121.291 182.708 117.42 182.708 117.42C182.708 117.42 182.609 116.008 183.11 115.002C183.611 113.995 183.814 110.67 183.814 110.67L188.63 99.5817L190.978 89.8067L222.83 89.5054C222.83 89.5054 222.948 90.3518 223.138 91.8928C223.328 93.4337 223.605 95.7163 223.921 98.5308C224.197 101.089 224.5 104.097 224.797 107.441C225.736 118.115 223.73 120.031 223.73 120.031Z" fill="#9347B2"/>
<path d="M220.772 31.7963L213.344 39.7604C213.344 39.7604 203.817 35.929 204.819 34.6187C205.208 34.1103 205.145 32.5222 204.921 30.7454C204.569 27.9571 203.817 24.7415 203.817 24.7415C203.817 24.7415 220.469 22.0213 219.063 24.8411C218.541 25.8736 218.64 27.0765 218.958 28.1877C219.365 29.4809 219.977 30.6995 220.772 31.7963Z" fill="#F89D8F"/>
<path opacity="0.1" d="M219.063 24.8411C218.541 25.8737 218.306 25.9732 218.627 27.0844C216.449 29.443 213.671 31.9981 210.237 31.9981C208.392 32.001 206.572 31.5721 204.921 30.7454C204.569 27.9571 203.817 24.7415 203.817 24.7415C203.817 24.7415 220.469 22.0213 219.063 24.8411Z" fill="black"/>
<path d="M222.175 19.6916C222.198 21.2815 221.907 22.8602 221.317 24.3359C220.728 25.8116 219.852 27.1549 218.741 28.2875C217.63 29.4201 216.306 30.3196 214.846 30.9335C213.386 31.5474 211.819 31.8636 210.236 31.8636C208.653 31.8636 207.086 31.5474 205.626 30.9335C204.166 30.3196 202.842 29.4201 201.731 28.2875C200.62 27.1549 199.744 25.8116 199.155 24.3359C198.565 22.8602 198.274 21.2815 198.297 19.6916C198.297 19.634 198.297 19.5763 198.297 19.5187C198.32 16.3382 199.6 13.2971 201.855 11.0643C204.109 8.83161 207.155 7.59017 210.321 7.61311C213.487 7.63604 216.514 8.92148 218.737 11.1866C220.959 13.4518 222.195 16.5111 222.172 19.6916H222.175Z" fill="#F89D8F"/>
<path opacity="0.1" d="M223.903 98.8215C222.322 98.8346 217.055 98.8791 211.17 98.9735H211.099L209.153 99.0049H209.093C202.115 99.1176 195.238 97.747 192.478 98.0091C186.609 98.562 194.584 92.566 194.584 92.566C194.584 92.566 200.936 94.2694 207.953 93.9235L209.641 93.837C214.976 93.533 220.337 93.0299 223.134 92.186C223.329 93.7427 223.601 96.0174 223.903 98.8215Z" fill="black"/>
<path d="M223.903 98.5204C222.322 98.5204 217.055 98.578 211.17 98.6698H211.099L209.153 98.7038H209.093C202.115 98.8165 195.238 97.4459 192.478 97.7054C186.609 98.2583 194.584 92.2649 194.584 92.2649C194.584 92.2649 200.936 93.9657 207.953 93.6224L209.641 93.5333C214.976 93.2319 220.337 92.7262 223.134 91.8823C223.329 93.439 223.601 95.7058 223.903 98.5204Z" fill="#E3A79F"/>
<path opacity="0.1" d="M207.027 35.1216L197.798 39.4561L190.676 94.783C190.676 94.783 194.889 92.8699 197.297 94.078C199.705 95.2861 207.126 94.1802 207.126 94.1802C207.126 94.1802 212.545 93.8762 213.348 94.4816C214.152 95.087 223.58 91.9632 223.58 91.9632C223.58 91.9632 225.286 88.1318 223.981 87.529C222.677 86.9263 224.383 80.9775 224.383 80.9775L223.58 41.0678L221.975 35.9287L217.66 33.3081L213.241 36.8355L211.154 37.1369L207.027 35.1216Z" fill="black"/>
<path d="M207.027 34.5168L197.798 38.8513L190.676 94.1834C190.676 94.1834 194.889 92.2677 197.297 93.4785C199.705 94.6892 207.126 93.578 207.126 93.578C207.126 93.578 212.545 93.2767 213.348 93.8794C214.152 94.4822 223.58 91.361 223.58 91.361C223.58 91.361 225.286 87.5322 223.981 86.9269C222.677 86.3215 224.383 80.3753 224.383 80.3753L223.58 40.4604L221.975 35.3213L217.66 32.7007L213.241 36.2307L211.154 36.5294L207.027 34.5168Z" fill="#E7EFFD"/>
<path opacity="0.1" d="M206.875 37.0875C206.875 37.0875 209.533 40.2611 209.483 40.9162C209.434 41.5714 209.335 43.1333 209.335 43.1333L207.326 47.2162C207.326 47.2162 206.222 52.3055 206.222 53.3642C206.222 54.423 204.467 63.5847 204.467 63.5847L202.361 77.6942L199.703 96.188L202.411 100.874L205.622 98.1535L209.885 65.1964L210.788 58.6972C210.788 58.6972 211.74 47.0066 211.74 45.7985C211.74 44.5904 211.189 41.4141 211.189 41.4141C211.189 41.4141 211.842 38.3899 214.549 37.685C217.257 36.98 214.349 37.533 214.349 37.533L212.783 36.2725L211.429 36.828C211.429 36.828 207.678 35.6776 206.875 37.0875Z" fill="black"/>
<path d="M206.576 36.7914C206.576 36.7914 209.234 39.965 209.185 40.6201C209.135 41.2753 209.033 42.8372 209.033 42.8372L207.027 46.9202C207.027 46.9202 205.937 52.0042 205.937 53.0603C205.937 54.1164 204.181 63.2808 204.181 63.2808L202.06 77.4112L199.415 95.892L202.126 100.58L205.321 97.8522L209.589 64.9029L210.492 58.4038C210.492 58.4038 211.444 46.7131 211.444 45.5024C211.444 44.2917 210.893 41.1181 210.893 41.1181C210.893 41.1181 211.546 38.0965 214.253 37.3889C216.961 36.6813 214.053 37.2395 214.053 37.2395L212.487 35.979L211.154 36.5293C211.154 36.5293 207.379 35.3736 206.576 36.7914Z" fill="#9347B2"/>
<path opacity="0.1" d="M204.819 31.4946C204.819 31.4946 204.417 31.796 204.318 33.8113C204.219 35.8265 202.812 40.3629 202.812 40.3629C202.812 40.3629 208.03 36.7333 210.639 37.1369L204.819 31.4946Z" fill="black"/>
<path d="M204.819 30.8892C204.819 30.8892 204.417 31.1905 204.318 33.2084C204.219 35.2263 202.812 39.76 202.812 39.76C202.812 39.76 208.03 36.133 210.639 36.5366L204.819 30.8892Z" fill="#E7EFFD"/>
<path opacity="0.1" d="M219.066 29.8804L210.838 37.1369C210.838 37.1369 217.761 41.2696 218.664 42.2786C219.567 43.2875 220.469 32.4014 220.469 32.4014L219.066 29.8804Z" fill="black"/>
<path d="M219.366 29.2773L211.153 36.5286C211.153 36.5286 218.074 40.6588 218.98 41.6677C219.885 42.6767 220.787 31.7905 220.787 31.7905L219.366 29.2773Z" fill="#E7EFFD"/>
<path opacity="0.1" d="M205.119 31.4948C205.119 31.4948 204.216 31.0414 203.363 32.3517C202.51 33.662 200.906 34.2648 200.906 34.2648C200.906 34.2648 191.775 35.7271 191.426 36.9352L187.163 37.1973C187.163 37.1973 185.658 37.3964 185.507 40.5727C185.355 43.7489 184.544 44.0424 184.544 44.0424C184.544 44.0424 182.788 47.1662 182.937 48.7779C183.086 50.3896 181.583 51.1967 181.583 51.1967L187.844 67.5731C187.844 67.5731 188.045 74.3264 186.889 76.7951C185.734 79.2637 183.579 90.1996 183.579 90.1996C183.579 90.1996 184.484 89.9978 184.432 90.6006C184.38 91.2033 183.328 97.8073 183.328 97.8073C183.328 97.8073 183.028 100.428 182.527 101.335C182.027 102.241 181.974 106.98 181.974 106.98L181.171 110.405C181.171 110.405 183.078 114.689 185.987 114.074C188.895 113.458 194.196 102.045 194.196 102.045L197.556 89.6991L200.165 77.5053L200.916 69.2424L202.122 50.9504L203.877 38.8561C203.877 38.8561 205.823 32.3517 205.119 31.4948Z" fill="black"/>
<path d="M204.818 30.8893C204.818 30.8893 203.915 30.4359 203.062 31.7463C202.209 33.0566 200.605 33.6619 200.605 33.6619C200.605 33.6619 191.474 35.1216 191.125 36.3324L186.859 36.5944C186.859 36.5944 185.354 36.7962 185.205 39.9698C185.057 43.1434 184.251 43.4474 184.251 43.4474C184.251 43.4474 182.495 46.5712 182.646 48.1829C182.798 49.7946 181.292 50.6017 181.292 50.6017L187.553 66.9781C187.553 66.9781 187.754 73.7315 186.601 76.2001C185.448 78.6687 183.291 89.6046 183.291 89.6046C183.291 89.6046 184.193 89.4029 184.144 90.0082C184.094 90.6136 183.04 97.2123 183.04 97.2123C183.04 97.2123 182.74 99.833 182.237 100.74C181.733 101.646 181.686 106.385 181.686 106.385L180.891 109.799C180.891 109.799 182.798 114.084 185.706 113.468C188.615 112.852 193.882 101.426 193.882 101.426L197.245 89.0805L199.853 76.8841L200.607 68.6212L201.81 50.3292L203.566 38.235C203.566 38.235 205.52 31.7463 204.818 30.8893Z" fill="#9347B2"/>
<path opacity="0.1" d="M172.614 69.89L169.705 71.9078C169.705 71.9078 165.27 72.0494 162.077 71.2632L160.46 70.5399L160.134 70.3984L160.468 70.5032C162.145 71.0037 163.457 70.9932 164.483 70.6473C168.599 69.2558 168.135 62.4264 167.986 60.8802C167.97 60.7256 167.96 60.6181 167.952 60.5867C167.951 60.5806 167.951 60.5745 167.952 60.5684L167.976 60.6077C168.031 60.7005 168.095 60.7881 168.166 60.8697C168.223 60.9352 168.283 61.0034 168.349 61.0663L169.802 63.9857L169.817 64.1088L172.614 69.89Z" fill="black"/>
<path d="M182.697 50.188L181.294 50.5916L181.093 53.4743C181.093 53.4743 179.437 53.2122 178.985 55.1882C178.534 57.1641 177.733 58.0709 177.733 58.0709C177.733 58.0709 174.973 60.3901 174.822 62.353L173.118 63.4012C173.118 63.4012 169.153 62.4735 168.253 60.8723C168.253 60.8723 170.058 73.8733 160.427 70.6971C160.427 70.6971 171.211 75.4352 171.712 76.0903C172.213 76.7455 175.526 78.6586 178.534 77.0469C181.542 75.4352 182.197 72.9561 182.197 72.9561C182.197 72.9561 185.105 68.8731 185.207 68.2677C185.309 67.6624 187.555 66.9574 187.555 66.9574L191.87 56.4749L182.697 50.188Z" fill="#9347B2"/>
<path opacity="0.1" d="M217.912 35.9285L219.365 29.2773C219.365 29.2773 220.017 31.4446 220.67 31.9478L222.827 33.6093C222.827 33.6093 224.985 34.6182 225.736 34.6182C226.487 34.6182 230.552 35.6665 231.052 36.2299C231.553 36.7933 233.562 36.3819 233.562 36.3819C233.562 36.3819 235.216 36.9348 236.672 37.2886C238.127 37.6424 238.829 40.0613 238.526 41.0178C238.405 41.494 238.406 41.9934 238.529 42.4691C238.653 42.9449 238.894 43.3814 239.231 43.738C239.831 44.3434 240.133 46.3089 240.133 46.3089C240.871 46.5502 241.483 47.075 241.837 47.7685C242.34 48.8771 242.189 51.2959 242.189 51.2959L234.715 61.878C234.715 61.878 234.814 65.961 234.514 66.8573C234.214 67.7535 235.558 83.1838 235.558 83.1838L237.123 109.689C237.123 109.689 235.067 111.453 234.616 111.654C234.165 111.856 233.711 102.28 233.711 101.929C233.711 101.578 222.125 84.4941 222.125 84.4941C222.125 84.4941 220.56 81.9731 220.56 81.4201C220.56 80.8672 219.104 75.7753 219.104 75.7753L216.897 65.9505L217.912 35.9285Z" fill="black"/>
<path d="M242.81 50.7197C242.81 51.0656 242.792 51.2962 242.792 51.2962L235.323 61.8705C235.323 61.8705 235.427 65.9508 235.125 66.8497C234.95 67.3738 235.333 72.7985 235.688 77.251C235.949 80.4665 236.179 83.1762 236.179 83.1762L236.839 94.4188L237.731 109.681C237.731 109.681 235.675 111.445 235.224 111.647C234.772 111.849 234.321 102.273 234.321 101.919C234.321 101.565 222.733 84.4865 222.733 84.4865C222.733 84.4865 221.168 81.9655 221.168 81.4125C221.168 80.8596 219.715 75.7677 219.715 75.7677L217.508 65.9403L218.51 35.9105L219.363 29.2593C219.363 29.2593 220.617 31.4265 221.27 31.9271C221.922 32.4276 223.424 33.5912 223.424 33.5912C223.424 33.5912 225.582 34.6001 226.336 34.6001C227.09 34.6001 231.151 35.6484 231.652 36.2118C232.153 36.7753 234.162 36.3638 234.162 36.3638C234.162 36.3638 235.816 36.9168 237.269 37.2706C238.722 37.6243 239.426 40.0432 239.126 40.9971C239.004 41.4735 239.005 41.9733 239.128 42.4495C239.25 42.9257 239.491 43.3628 239.828 43.7199C240.431 44.3253 240.731 46.2882 240.731 46.2882C241.47 46.5311 242.083 47.0577 242.437 47.7531C242.789 48.5367 242.823 49.9335 242.81 50.7197Z" fill="#9347B2"/>
<path opacity="0.1" d="M181.494 184.983C181.755 184.983 192.279 185.386 192.078 187.1C191.877 188.814 181.494 184.983 181.494 184.983Z" fill="black"/>
<path opacity="0.1" d="M183.853 187.855C183.853 187.855 190.925 189.013 189.07 190.072C187.215 191.131 183.853 187.855 183.853 187.855Z" fill="black"/>
<path opacity="0.1" d="M210.135 183.874C210.135 183.874 221.874 184.883 220.118 186.191C218.363 187.498 214.199 187.703 213.998 187.763C213.797 187.823 210.135 183.874 210.135 183.874Z" fill="black"/>
<path opacity="0.1" d="M208.732 189.065C208.732 189.065 215.254 190.174 215.452 191.424C215.651 192.674 208.732 189.065 208.732 189.065Z" fill="black"/>
<path opacity="0.1" d="M212.344 158.729C212.344 158.729 218.312 160.139 218.665 161.088L212.344 158.729Z" fill="black"/>
<path opacity="0.1" d="M189.319 163.064C189.319 163.064 186.21 163.971 189.22 165.784C192.23 167.598 189.319 163.064 189.319 163.064Z" fill="black"/>
<path opacity="0.1" d="M203.113 114.637C203.465 114.637 208.933 112.824 210.838 113.631C212.742 114.438 215.103 114.435 215.103 114.435L203.113 114.637Z" fill="black"/>
<path opacity="0.1" d="M203.818 120.39L203.763 120.888L199.101 133.205C199.101 133.205 198.35 136.931 197.695 139.049C197.284 140.486 196.958 141.947 196.717 143.422L200.857 117.633L203.818 120.39Z" fill="black"/>
<path d="M211.102 98.6697L209.156 98.7037H209.096L207.956 93.6249C208.517 93.5961 209.078 93.5673 209.644 93.5332L211.102 98.6697Z" fill="#3F3D56"/>
<path d="M234.765 92.5188L233.515 93.5514L229.341 97.0001C229.341 97.0001 218.053 103.049 214.944 97.3041C212.202 92.2437 225 88.6298 228.081 87.841C228.501 87.7336 228.739 87.6812 228.739 87.6812L234.765 92.5188Z" fill="#F89D8F"/>
<path opacity="0.1" d="M186.561 42.9839C186.561 42.9839 188.768 43.9902 189.268 45.4027C189.769 46.8153 186.561 42.9839 186.561 42.9839Z" fill="black"/>
<path opacity="0.1" d="M179.738 58.0996C179.738 58.0996 176.527 62.0306 177.831 63.5427C179.136 65.0548 179.738 58.0996 179.738 58.0996Z" fill="black"/>
<path opacity="0.1" d="M237.123 45.2007C237.123 45.2007 234.113 45.5021 234.014 48.1227L237.123 45.2007Z" fill="black"/>
<path opacity="0.1" d="M209.232 86.5201C209.532 86.2187 216.456 75.938 218.06 76.8447L209.232 86.5201Z" fill="black"/>
<path opacity="0.1" d="M222.174 19.7021C222.176 21.6771 221.691 23.622 220.763 25.3627L220.674 25.3469C219.917 25.1871 219.523 24.2987 218.944 23.7484C218.589 23.4085 218.137 23.1888 217.652 23.1202C217.166 23.0515 216.671 23.1374 216.236 23.3657C215.797 23.6301 215.44 24.0122 215.205 24.4691C214.97 24.9259 214.867 25.4396 214.906 25.9523C214.525 24.338 214.645 22.6215 214.272 21.0046C213.899 19.3876 212.775 17.7523 211.238 17.7235C210.576 17.7235 209.801 17.9699 209.323 17.4615C209.034 17.1601 208.974 16.6753 208.757 16.3215C207.659 14.5342 204.322 15.4383 202.95 16.3529C201.63 17.2335 199.997 18.7325 198.299 19.5187C198.322 16.3382 199.601 13.2971 201.856 11.0643C204.111 8.83161 207.156 7.59017 210.322 7.61311C213.489 7.63604 216.516 8.92148 218.738 11.1866C220.961 13.4518 222.197 16.5111 222.174 19.6916V19.7021Z" fill="black"/>
<path d="M208.759 16.0276C208.978 16.3919 209.036 16.8689 209.325 17.1676C209.803 17.6655 210.578 17.4113 211.24 17.4297C212.777 17.4559 213.901 19.0938 214.274 20.7107C214.647 22.3277 214.535 24.0416 214.908 25.6559C214.869 25.1432 214.973 24.6297 215.208 24.1732C215.444 23.7167 215.802 23.3353 216.241 23.0719C216.675 22.8439 217.169 22.7579 217.654 22.826C218.14 22.8942 218.591 23.113 218.946 23.4519C219.526 24.0049 219.919 24.8906 220.676 25.0505C221.432 25.2104 222.163 24.4818 222.434 23.6799C222.706 22.878 222.695 22.0001 222.867 21.1693C223.209 19.597 224.229 18.3102 224.795 16.8165C225.467 14.9974 225.448 12.9935 224.743 11.1873C224.367 10.2413 223.806 9.38958 223.439 8.44353C222.859 7.00742 222.708 5.38787 222.006 4.0199C220.825 1.72946 218.044 0.581624 215.759 1.44381C214.668 1.85525 213.721 2.65193 212.615 3.01619C211.131 3.49315 209.547 3.13412 208.011 2.91923C206.474 2.70434 204.781 2.68337 203.547 3.70542C202.128 4.8716 201.739 7.06508 200.417 8.34657C199.856 8.8838 199.159 9.2271 198.567 9.72502C197.975 10.2229 197.466 10.962 197.523 11.7717C197.612 12.82 198.63 13.7634 198.254 14.7304C198.118 15.0098 197.929 15.2599 197.698 15.4668C196.579 16.6428 195.748 18.0639 195.27 19.6179C197.954 20.4591 200.86 17.4873 202.96 16.0827C204.319 15.1471 207.661 14.2535 208.759 16.0276Z" fill="#141720"/>
<path opacity="0.1" d="M234.766 92.5189L233.516 93.5514C232.415 91.7169 227.895 88.0297 227.895 88.0297L228.09 87.841C228.51 87.7336 228.748 87.6812 228.748 87.6812L234.766 92.5189Z" fill="black"/>
<path d="M235.97 90.6531C235.97 90.6531 235.522 91.7748 235.057 92.7497C234.593 93.7245 234.089 94.5998 234.063 93.8844C234.014 92.4719 228.196 87.7338 228.196 87.7338L228.979 86.9633L229.895 86.0723L235.97 90.6531Z" fill="#E7EFFD"/>
<path opacity="0.1" d="M236.17 83.1948L236.83 94.4373C235.265 92.0027 230.994 85.763 228.242 85.9648L234.915 78.2575C235.193 77.9464 235.448 77.6162 235.68 77.2695C235.935 80.4851 236.17 83.1948 236.17 83.1948Z" fill="black"/>
<path opacity="0.1" d="M235.971 90.6531C235.971 90.6531 235.522 91.7748 235.058 92.7496C233.31 90.3413 230.904 87.4953 228.984 86.9633L229.9 86.0723L235.971 90.6531Z" fill="black"/>
<path d="M240.987 49.894L242.792 51.3039C242.792 51.3039 245.8 51.3564 246.103 53.8748C246.405 56.3932 249.163 57.5437 249.163 57.5437C249.163 57.5437 251.218 59.6087 251.218 60.5653C251.218 61.5218 252.784 63.2383 252.784 63.3877C252.784 63.5371 254.289 66.6137 254.088 67.1666C253.887 67.7196 255.692 70.1411 255.131 71.0478C254.677 71.861 254.275 72.7022 253.926 73.5662C253.926 73.5662 251.578 78.1026 250.365 78.9595C249.152 79.8165 243.645 87.0206 243.645 87.0206C243.645 87.0206 237.726 93.8735 237.726 95.991C237.726 95.991 231.956 86.3156 228.546 86.5567L235.216 78.8468C235.216 78.8468 236.372 77.5889 236.422 76.8316C236.471 76.0742 239.63 72.5992 241.136 72.4472C241.136 72.4472 241.396 70.3822 240.734 70.3324C240.071 70.2826 239.531 68.6683 239.531 68.6683C239.531 68.6683 235.117 63.427 235.068 60.1014C235.018 56.7758 240.987 49.894 240.987 49.894Z" fill="#9347B2"/>
<path opacity="0.1" d="M243.645 54.6743C243.645 54.6743 239.429 57.7981 240.334 58.8044C241.24 59.8107 243.645 54.6743 243.645 54.6743Z" fill="black"/>
<path opacity="0.1" d="M243.847 67.5729C243.847 67.5729 251.673 65.0545 252.474 67.5729H243.847Z" fill="black"/>
<path opacity="0.1" d="M195.389 201.461C195.389 201.461 191.176 204.234 189.07 203.82C186.965 203.406 184.805 204.527 184.805 204.527C183.354 206.12 181.523 207.317 179.486 208.005C176.076 209.163 171.313 208.71 168.605 207.8C167.321 207.373 167.22 206.818 167.835 206.136C170.781 206.726 177.362 207.897 179.136 207.046C181.442 205.937 184.753 203.518 184.753 203.518C184.753 203.518 189.07 202.913 189.67 202.913C190.098 202.913 193.43 201.532 195.31 200.738L195.389 201.461Z" fill="black"/>
<path opacity="0.1" d="M220.913 207.132C220.884 207.305 220.871 207.41 220.871 207.41C220.871 207.41 219.866 209.627 214.299 210.434C208.732 211.241 208.732 208.568 208.732 208.568C208.732 208.568 208.753 208.28 208.79 207.848C210.551 208.516 214.396 209.268 220.913 207.132Z" fill="black"/>
<path opacity="0.1" d="M188.643 54.0688C188.643 54.0688 188.643 65.5577 187.665 66.6925C186.686 67.8272 188.643 54.0688 188.643 54.0688Z" fill="black"/>
<path opacity="0.1" d="M233.862 57.772L235.315 61.8785C235.315 61.8785 235.895 57.848 233.862 57.772Z" fill="black"/>
<g opacity="0.1">
<path opacity="0.1" d="M198.394 13.7294C198.762 12.7833 197.799 11.8582 197.674 10.8467C197.546 11.1326 197.491 11.4459 197.512 11.7587C197.578 12.5213 198.139 13.2367 198.295 13.9416C198.335 13.8743 198.368 13.8032 198.394 13.7294Z" fill="black"/>
<path opacity="0.1" d="M215.043 24.5814C214.683 22.9907 214.783 21.3082 214.423 19.7201C214.063 18.132 212.928 16.4653 211.391 16.4391C210.729 16.4391 209.954 16.6828 209.474 16.177C209.187 15.8782 209.127 15.3908 208.91 15.037C207.812 13.2498 204.475 14.1565 203.101 15.0711C201.048 16.4417 198.23 19.306 195.601 18.6561C195.473 18.9627 195.355 19.272 195.259 19.5891C197.943 20.4303 200.849 17.4585 202.949 16.0538C204.319 15.1392 207.661 14.2194 208.759 16.0198C208.978 16.384 209.035 16.861 209.325 17.1597C209.802 17.6577 210.577 17.4035 211.24 17.4218C212.776 17.448 213.901 19.0859 214.274 20.7028C214.647 22.3198 214.535 24.0337 214.908 25.648C214.882 25.2869 214.928 24.9243 215.043 24.5814Z" fill="black"/>
<path opacity="0.1" d="M222.585 22.6895C222.324 23.4914 221.596 24.2252 220.824 24.0601C220.052 23.895 219.674 23.0118 219.097 22.4615C218.742 22.122 218.29 21.9028 217.804 21.8347C217.318 21.7665 216.824 21.8529 216.389 22.0815C215.971 22.3326 215.627 22.6914 215.393 23.1208C215.159 23.5502 215.044 24.0347 215.059 24.5239C215.259 23.9072 215.68 23.3871 216.241 23.0643C216.675 22.8362 217.169 22.7502 217.654 22.8184C218.139 22.8865 218.591 23.1053 218.946 23.4442C219.525 23.9972 219.919 24.883 220.676 25.0428C221.432 25.2027 222.162 24.4742 222.434 23.6722C222.577 23.2014 222.67 22.7164 222.71 22.2256C222.678 22.3826 222.636 22.5375 222.585 22.6895Z" fill="black"/>
<path opacity="0.1" d="M224.943 15.8262C224.38 17.3199 223.357 18.6093 223.018 20.1817C222.95 20.4988 222.911 20.8237 222.872 21.1487C223.216 19.5763 224.231 18.2974 224.795 16.8089C225.045 16.135 225.201 15.4294 225.259 14.7124C225.182 15.0911 225.076 15.4635 224.943 15.8262Z" fill="black"/>
</g>
<path d="M156.653 53.3966L156.625 53.4108C156.576 53.4355 156.556 53.4954 156.581 53.5445L157.339 55.0565C157.363 55.1056 157.423 55.1254 157.472 55.1007L157.5 55.0865C157.549 55.0618 157.568 55.0019 157.544 54.9528L156.786 53.4408C156.761 53.3917 156.702 53.3719 156.653 53.3966Z" fill="#3A3768"/>
<path d="M149.152 55.5036L149.136 55.5119C149.109 55.5255 149.098 55.5586 149.112 55.5858L149.342 56.0445C149.355 56.0716 149.388 56.0825 149.415 56.0689L149.432 56.0606C149.459 56.0469 149.469 56.0138 149.456 55.9867L149.226 55.528C149.212 55.5008 149.179 55.4899 149.152 55.5036Z" fill="#3A3768"/>
<path d="M149.668 56.5479L149.652 56.5562C149.621 56.5718 149.608 56.6096 149.624 56.6406L150.053 57.4973C150.069 57.5283 150.107 57.5408 150.137 57.5252L150.154 57.5169C150.185 57.5013 150.197 57.4635 150.181 57.4325L149.752 56.5758C149.736 56.5448 149.699 56.5323 149.668 56.5479Z" fill="#3A3768"/>
<path d="M150.324 57.8567L150.307 57.865C150.278 57.88 150.266 57.9162 150.281 57.9459L150.716 58.8143C150.731 58.844 150.767 58.856 150.797 58.841L150.813 58.8327C150.843 58.8178 150.855 58.7815 150.84 58.7518L150.404 57.8835C150.389 57.8537 150.353 57.8418 150.324 57.8567Z" fill="#3A3768"/>
<path d="M154.536 50.5023L148.753 53.4279C148.465 53.5737 148.349 53.9266 148.494 54.2162L154.957 67.1081C155.102 67.3977 155.454 67.5142 155.742 67.3684L161.525 64.4428C161.813 64.297 161.929 63.944 161.784 63.6544L155.321 50.7625C155.176 50.473 154.825 50.3564 154.536 50.5023Z" fill="#3A3768"/>
<path d="M153.74 51.349C153.706 51.3639 153.677 51.3857 153.652 51.4129C153.628 51.4401 153.609 51.4721 153.598 51.507C153.587 51.5418 153.583 51.5786 153.587 51.615C153.59 51.6514 153.602 51.6867 153.62 51.7185L153.646 51.7683C153.664 51.8002 153.675 51.8356 153.679 51.8721C153.682 51.9087 153.678 51.9456 153.666 51.9804C153.655 52.0153 153.636 52.0473 153.611 52.0744C153.587 52.1015 153.557 52.1231 153.523 52.1378L150.63 53.6027C150.598 53.6209 150.563 53.6322 150.527 53.636C150.491 53.6397 150.454 53.6358 150.42 53.6244C150.385 53.6131 150.353 53.5945 150.326 53.57C150.299 53.5455 150.277 53.5156 150.262 53.4822L150.236 53.4297C150.221 53.3963 150.2 53.3664 150.173 53.3419C150.145 53.3174 150.114 53.2988 150.079 53.2875C150.044 53.2761 150.008 53.2722 149.971 53.2759C149.935 53.2797 149.9 53.291 149.868 53.3092L149.305 53.5922C149.243 53.6231 149.188 53.666 149.143 53.7183C149.098 53.7707 149.063 53.8315 149.042 53.8973C149.02 53.9631 149.012 54.0326 149.017 54.1017C149.022 54.1707 149.041 54.2381 149.073 54.2998L155.227 66.5722C155.257 66.6343 155.3 66.6895 155.352 66.7349C155.404 66.7802 155.465 66.8148 155.53 66.8365C155.596 66.8581 155.665 66.8666 155.734 66.8613C155.803 66.8559 155.87 66.837 155.931 66.8055L160.979 64.2503C161.04 64.2195 161.095 64.1767 161.14 64.1245C161.185 64.0724 161.219 64.0118 161.241 63.9463C161.262 63.8808 161.271 63.8117 161.266 63.7429C161.261 63.6741 161.242 63.607 161.211 63.5454L155.065 51.2703C155.034 51.2089 154.991 51.1541 154.939 51.1093C154.887 51.0644 154.827 51.0303 154.762 51.0089C154.696 50.9875 154.628 50.9792 154.559 50.9845C154.491 50.9897 154.424 51.0085 154.363 51.0397L153.74 51.349Z" fill="url(#paint3_linear)"/>
<path d="M152.067 52.2757L151.282 52.6729C151.236 52.6963 151.217 52.7531 151.24 52.7996L151.253 52.8253C151.277 52.8719 151.333 52.8906 151.38 52.8672L152.165 52.4699C152.211 52.4465 152.23 52.3898 152.206 52.3432L152.193 52.3175C152.17 52.271 152.114 52.2522 152.067 52.2757Z" fill="#E6E8EC"/>
<path d="M152.45 52.3103C152.517 52.3103 152.572 52.2552 152.572 52.1871C152.572 52.1191 152.517 52.064 152.45 52.064C152.382 52.064 152.327 52.1191 152.327 52.1871C152.327 52.2552 152.382 52.3103 152.45 52.3103Z" fill="#E6E8EC"/>
<path opacity="0.1" d="M25.3059 6.83733C25.3059 6.83733 50.6471 5.30164 47.6601 23.1403C47.6601 23.1403 48.2523 26.2851 45.4088 27.7238C45.4088 27.7238 45.3644 26.4135 42.8 26.8511C41.89 27.0028 40.9654 27.0468 40.0452 26.9822C38.8021 26.8988 37.6202 26.4092 36.68 25.588C36.68 25.588 29.5686 22.6398 26.7955 10.936C26.7955 10.936 24.7476 8.38351 24.8285 7.72835L29.1042 9.56279C29.1042 9.56279 27.6433 12.663 28.7938 15.2391C28.7938 15.2391 28.932 9.67548 29.7538 9.80651C29.9207 9.83534 31.9764 10.881 31.9764 10.881C31.9764 10.881 29.4616 16.2795 31.3582 20.2026C31.3582 20.2026 30.6381 13.5514 32.7616 11.2714L35.7721 13.0378C35.7721 13.0378 32.8321 18.6118 34.8252 23.1639C34.8252 23.1639 34.3034 16.1851 36.3904 13.4675L39.1191 15.6034C39.1191 15.6034 36.3591 21.1067 38.0417 24.8725C38.0417 24.8725 38.2609 16.7486 39.7087 16.1353C39.7087 16.1353 42.0957 18.2502 42.4609 19.1176C42.4609 19.1176 40.5696 23.1062 41.7435 25.2132C41.7435 25.2132 42.4609 19.8016 43.0479 19.7754C43.0479 19.7754 45.427 23.3631 45.6749 25.8186C45.6749 25.8186 45.5705 22.1628 43.6244 19.4321C43.6244 19.4321 45.9227 19.8278 47.2766 21.3268C47.2766 21.3268 46.9062 18.7901 43.0479 18.5699C43.0479 18.5699 41.0835 15.8497 40.5565 15.6872C40.5565 15.6872 44.394 15.3649 46.721 16.4C46.721 16.4 44.6731 14.0074 39.8548 15.0897L37.1626 12.8831C37.1626 12.8831 42.2131 12.186 44.3548 12.9539C44.3548 12.9539 41.8896 10.839 36.4347 12.38L33.4973 10.6215C33.4973 10.6215 37.8043 9.68859 40.3713 10.0266C40.3713 10.0266 37.6635 8.55909 32.639 10.1498L30.5521 9.20377C30.5521 9.20377 33.7086 8.58006 34.6321 8.48309C35.5556 8.38613 35.6052 8.12669 35.6052 8.12669C33.6065 7.79292 31.5548 8.02243 29.6781 8.78971C29.6781 8.78971 25.2303 7.11774 25.3059 6.83733Z" fill="url(#paint4_linear)"/>
<path opacity="0.1" d="M39.4988 54.5589C39.4988 54.5589 50.9485 53.8645 49.5998 61.9256C49.5998 61.9256 49.8607 63.3486 48.5824 63.9959C48.5824 63.9959 48.5616 63.3984 47.4085 63.6001C46.9976 63.6705 46.5798 63.6908 46.1641 63.6604C45.6025 63.6227 45.0685 63.4018 44.6432 63.0315C44.6432 63.0315 41.4241 61.6949 40.1719 56.4091C40.1719 56.4091 39.2458 55.2587 39.2823 54.9625L41.2154 55.7906C41.2154 55.7906 40.5554 57.1901 41.0745 58.3536C41.0745 58.3536 41.1371 55.8404 41.5076 55.9007C41.5832 55.9138 42.5119 56.3855 42.5119 56.3855C42.5119 56.3855 41.3771 58.8253 42.2328 60.5969C42.2328 60.5969 41.9093 57.5936 42.8667 56.5611L44.2285 57.3604C44.2285 57.3604 42.8902 59.8788 43.7928 61.9491C43.7928 61.9491 43.5606 58.8044 44.505 57.5674L45.7389 58.5318C45.7389 58.5318 44.4919 61.0162 45.2511 62.7248C45.2511 62.7248 45.3502 59.056 46.005 58.7756C46.005 58.7756 47.0824 59.7295 47.2494 60.1226C47.2494 60.1226 46.3937 61.9256 46.9233 62.8769C46.9233 62.8769 47.2494 60.4318 47.5155 60.4213C47.5155 60.4213 48.5903 62.0409 48.7024 63.152C48.7024 63.152 48.6555 61.4984 47.7763 60.2693C48.3955 60.3883 48.9666 60.6861 49.4198 61.1263C49.4198 61.1263 49.2529 59.981 47.5102 59.8815C47.5102 59.8815 46.6233 58.6524 46.3859 58.5711C46.3859 58.5711 48.1181 58.4244 49.1694 58.8935C49.1694 58.8935 48.2459 57.8138 46.0676 58.3038L44.8493 57.3054C44.8493 57.3054 47.132 56.9935 48.0998 57.3394C48.0998 57.3394 46.9859 56.3829 44.5232 57.0774L43.198 56.2912C43.198 56.2912 45.1441 55.8719 46.3024 56.0291C46.3024 56.0291 45.0789 55.3661 42.8093 56.0842L41.8623 55.657C41.8623 55.657 43.2867 55.374 43.7067 55.3294C44.1267 55.2849 44.145 55.1696 44.145 55.1696C43.2425 55.0181 42.3158 55.1215 41.4684 55.4683C41.4684 55.4683 39.4571 54.6847 39.4988 54.5589Z" fill="url(#paint5_linear)"/>
<path opacity="0.1" d="M0.217578 11.4758C0.217578 11.4758 11.6673 10.7839 10.3186 18.8424C10.3186 18.8424 10.5794 20.268 9.30117 20.9153C9.30117 20.9153 9.2803 20.3178 8.12724 20.5196C7.71625 20.5887 7.29859 20.6089 6.88288 20.5799C6.32101 20.5412 5.78704 20.3195 5.36199 19.9483C5.36199 19.9483 2.14282 18.6144 0.89063 13.3286C0.89063 13.3286 -0.0354697 12.1755 0.00105252 11.8794L1.93412 12.7075C1.93412 12.7075 1.27411 14.1095 1.79325 15.2731C1.79325 15.2731 1.85586 12.7599 2.2263 12.8202C2.30195 12.8202 3.23066 13.305 3.23066 13.305C3.23066 13.305 2.09586 15.7448 2.95153 17.5164C2.95153 17.5164 2.62804 14.5105 3.58545 13.4806L4.9472 14.2668C4.9472 14.2668 3.61936 16.7878 4.51937 18.8424C4.51937 18.8424 4.28719 15.6976 5.23155 14.4633L6.46548 15.4277C6.46548 15.4277 5.21851 17.9121 5.97765 19.6207C5.97765 19.6207 6.07678 15.9518 6.73157 15.6741C6.73157 15.6741 7.80898 16.628 7.97594 17.0211C7.97594 17.0211 7.12028 18.8241 7.64985 19.7753C7.64985 19.7753 7.97594 17.3303 8.24203 17.3172C8.24203 17.3172 9.31683 18.9394 9.429 20.0479C9.429 20.0479 9.38204 18.3969 8.5029 17.1652C9.12251 17.2828 9.69403 17.5808 10.1464 18.0221C10.1464 18.0221 9.97944 16.8743 8.23681 16.7747C8.23681 16.7747 7.34984 15.5456 7.11245 15.4644C7.11245 15.4644 8.84464 15.3176 9.89596 15.7867C9.89596 15.7867 8.97247 14.7044 6.79418 15.1971L5.58634 14.2091C5.58634 14.2091 7.86898 13.8946 8.83682 14.2432C8.83682 14.2432 7.72289 13.2867 5.26025 13.9811L3.93502 13.1949C3.93502 13.1949 5.88113 12.773 7.0394 12.9329C7.0394 12.9329 5.81591 12.2698 3.54632 12.9879L2.59935 12.5607C2.59935 12.5607 4.02632 12.2803 4.44372 12.2358C4.86112 12.1912 4.88199 12.0759 4.88199 12.0759C3.97755 11.9175 3.04706 12.0155 2.19499 12.3589C2.19499 12.3589 0.183664 11.6042 0.217578 11.4758Z" fill="url(#paint6_linear)"/>
<path d="M258.899 195.08C265.582 195.08 271.001 194.16 271.001 193.026C271.001 191.891 265.582 190.971 258.899 190.971C252.215 190.971 246.797 191.891 246.797 193.026C246.797 194.16 252.215 195.08 258.899 195.08Z" fill="#9347B2"/>
<path d="M263.901 189.666C264.423 189.181 264.906 188.617 265.057 187.915C265.208 187.213 264.911 186.387 264.251 186.133C263.51 185.85 262.72 186.366 262.12 186.885C261.52 187.404 260.831 188.002 260.046 187.892C260.45 187.524 260.752 187.057 260.923 186.537C261.094 186.018 261.128 185.462 261.021 184.925C260.991 184.704 260.901 184.495 260.76 184.322C260.351 183.879 259.605 184.06 259.112 184.417C257.546 185.522 257.111 187.658 257.103 189.582C256.944 188.887 257.077 188.164 257.074 187.454C257.072 186.744 256.876 185.955 256.292 185.572C255.919 185.372 255.501 185.274 255.079 185.287C254.374 185.26 253.592 185.331 253.112 185.847C252.514 186.489 252.668 187.567 253.19 188.274C253.712 188.982 254.494 189.425 255.225 189.912C255.808 190.261 256.306 190.737 256.68 191.306C256.725 191.39 256.761 191.477 256.787 191.568H261.199C262.18 191.058 263.089 190.418 263.901 189.666Z" fill="#9347B2"/>
<path d="M15.1292 210.225C20.3751 210.225 24.6276 209.502 24.6276 208.61C24.6276 207.719 20.3751 206.996 15.1292 206.996C9.88343 206.996 5.63086 207.719 5.63086 208.61C5.63086 209.502 9.88343 210.225 15.1292 210.225Z" fill="#9347B2"/>
<path d="M19.0553 205.971C19.4892 205.616 19.8058 205.138 19.9631 204.598C20.0779 204.053 19.8483 203.398 19.3292 203.199C18.7474 202.976 18.1266 203.38 17.657 203.788C17.1874 204.197 16.6448 204.664 16.0292 204.575C16.3462 204.286 16.5835 203.92 16.7179 203.513C16.8523 203.105 16.8792 202.669 16.7961 202.247C16.7691 202.073 16.6951 201.909 16.5822 201.773C16.2587 201.427 15.6744 201.577 15.2778 201.849C14.0491 202.717 13.7126 204.394 13.6996 205.903C13.5769 205.358 13.6813 204.792 13.6761 204.234C13.6709 203.676 13.5222 203.055 13.0526 202.756C12.7605 202.598 12.432 202.52 12.1004 202.531C11.55 202.51 10.9343 202.567 10.556 202.971C10.0891 203.477 10.2091 204.323 10.616 204.876C11.023 205.429 11.6439 205.78 12.2152 206.163C12.6733 206.437 13.0639 206.811 13.3578 207.258C13.3917 207.32 13.4205 207.385 13.4439 207.452H16.9057C17.6858 207.059 18.409 206.561 19.0553 205.971Z" fill="#9347B2"/>
<path d="M39.0736 198.11C44.3194 198.11 48.572 197.387 48.572 196.495C48.572 195.604 44.3194 194.881 39.0736 194.881C33.8278 194.881 29.5752 195.604 29.5752 196.495C29.5752 197.387 33.8278 198.11 39.0736 198.11Z" fill="#9347B2"/>
<path d="M43.002 193.856C43.4352 193.501 43.7509 193.022 43.9072 192.483C44.0246 191.938 43.7924 191.285 43.2733 191.086C42.6941 190.861 42.0733 191.267 41.6011 191.676C41.1289 192.085 40.5915 192.551 39.9758 192.462C40.2926 192.173 40.5295 191.806 40.6635 191.398C40.7974 190.99 40.8239 190.554 40.7402 190.132C40.7132 189.958 40.6392 189.795 40.5263 189.66C40.2054 189.312 39.6211 189.461 39.235 189.734C38.0063 190.604 37.6697 192.279 37.6567 193.788C37.5315 193.243 37.6358 192.677 37.6332 192.119C37.6306 191.56 37.4767 190.942 37.0097 190.641C36.7177 190.483 36.389 190.406 36.0575 190.418C35.5045 190.397 34.8888 190.452 34.5132 190.858C34.0436 191.361 34.1662 192.208 34.5732 192.763C34.9801 193.319 35.601 193.665 36.1723 194.05C36.6298 194.324 37.0203 194.697 37.3149 195.143C37.3495 195.205 37.3774 195.271 37.3984 195.339H40.8602C41.6377 194.945 42.3582 194.446 43.002 193.856Z" fill="#9347B2"/>
<path d="M146.926 59.3812V88.3471C146.927 88.7289 146.852 89.1072 146.707 89.4601C146.562 89.813 146.349 90.1337 146.08 90.4037C145.811 90.6737 145.492 90.8877 145.141 91.0336C144.789 91.1794 144.413 91.2541 144.033 91.2534H140.926V56.4775H144.033C144.413 56.4769 144.789 56.5515 145.14 56.6971C145.491 56.8428 145.81 57.0566 146.079 57.3263C146.348 57.596 146.561 57.9164 146.706 58.269C146.852 58.6216 146.926 58.9996 146.926 59.3812Z" fill="#C7CCE1"/>
<path opacity="0.2" d="M144.598 56.5326V91.1983C144.412 91.2352 144.222 91.2536 144.032 91.2534H143.558V56.4775H144.032C144.222 56.4773 144.412 56.4957 144.598 56.5326Z" fill="black"/>
<path d="M133.21 101.586H122.008V191.815H133.21V101.586Z" fill="#DCDFED"/>
<path d="M135.874 201.448H118.059V203.961H135.874V201.448Z" fill="#C7CCE1"/>
<path opacity="0.1" d="M135.874 201.448H118.059V202.858H135.874V201.448Z" fill="black"/>
<path opacity="0.1" d="M133.21 190.03H122.008V191.812H133.21V190.03Z" fill="black"/>
<path d="M114.141 190.399H139.79C141.184 190.399 142.565 190.675 143.853 191.211C145.141 191.747 146.312 192.533 147.298 193.523C148.284 194.514 149.066 195.69 149.599 196.984C150.133 198.278 150.408 199.665 150.408 201.065V202.706H103.523V201.065C103.523 199.665 103.798 198.278 104.332 196.984C104.865 195.69 105.647 194.514 106.633 193.523C107.619 192.533 108.79 191.747 110.078 191.211C111.366 190.675 112.747 190.399 114.141 190.399Z" fill="#DCDFED"/>
<path opacity="0.1" d="M133.21 114.008H122.008V124.832H133.21V114.008Z" fill="black"/>
<path opacity="0.1" d="M133.21 113.271H122.008V124.095H133.21V113.271Z" fill="black"/>
<path d="M134.376 113.639H120.97V124.462H134.376V113.639Z" fill="#DCDFED"/>
<path d="M139.243 94.7883V99.2801C139.243 100.398 138.801 101.47 138.014 102.26C137.228 103.05 136.161 103.494 135.048 103.494H120.178C119.066 103.494 117.999 103.05 117.212 102.26C116.425 101.47 115.983 100.398 115.983 99.2801V94.7883C115.984 94.2353 116.093 93.6877 116.304 93.1769C116.514 92.6661 116.824 92.202 117.213 91.8112C117.603 91.4204 118.065 91.1105 118.574 90.8992C119.082 90.6878 119.628 90.5792 120.178 90.5796H135.048C135.599 90.5792 136.144 90.6878 136.653 90.8992C137.161 91.1105 137.624 91.4204 138.013 91.8112C138.403 92.202 138.712 92.6661 138.923 93.1769C139.134 93.6877 139.243 94.2353 139.243 94.7883Z" fill="#C7CCE1"/>
<path opacity="0.1" d="M139.244 94.7883V95.2469C137.878 97.0451 136.118 98.5025 134.1 99.5056C132.083 100.509 129.862 101.031 127.61 101.031C125.359 101.031 123.138 100.509 121.12 99.5056C119.102 98.5025 117.342 97.0451 115.977 95.2469V94.7883C115.977 94.2353 116.086 93.6877 116.297 93.1769C116.508 92.6661 116.817 92.202 117.206 91.8112C117.596 91.4204 118.058 91.1105 118.567 90.8992C119.076 90.6878 119.621 90.5793 120.171 90.5796H135.041C135.592 90.5782 136.138 90.6861 136.648 90.8969C137.158 91.1078 137.621 91.4175 138.011 91.8084C138.402 92.1994 138.712 92.6638 138.923 93.1751C139.134 93.6864 139.244 94.2346 139.244 94.7883Z" fill="black"/>
<path d="M114.162 52.9365H141.061C141.374 52.9365 141.675 53.0616 141.896 53.2842C142.118 53.5069 142.243 53.8088 142.243 54.1237V87.9299C142.243 91.3084 140.907 94.5486 138.528 96.9376C136.15 99.3266 132.925 100.669 129.562 100.669H125.662C122.298 100.669 119.073 99.3266 116.695 96.9376C114.317 94.5486 112.98 91.3084 112.98 87.9299V54.1237C112.98 53.8088 113.105 53.5069 113.327 53.2842C113.548 53.0616 113.849 52.9365 114.162 52.9365Z" fill="#C7CCE1"/>
<path d="M119.134 35.4758H136.09C137.284 35.4758 138.43 35.9523 139.274 36.8006C140.119 37.6489 140.593 38.7994 140.593 39.999V52.958C140.593 53.3903 140.422 53.8049 140.118 54.1106C139.813 54.4163 139.401 54.5881 138.97 54.5881H116.253C116.04 54.5881 115.829 54.5459 115.633 54.464C115.436 54.3821 115.257 54.262 115.106 54.1106C114.955 53.9593 114.836 53.7796 114.754 53.5818C114.673 53.384 114.631 53.1721 114.631 52.958V39.9964C114.631 38.7967 115.105 37.6462 115.95 36.798C116.794 35.9497 117.939 35.4731 119.134 35.4731V35.4758Z" fill="#C7CCE1"/>
<path opacity="0.2" d="M138.018 48.8828H117.693V50.2351H138.018V48.8828Z" fill="black"/>
<path opacity="0.1" d="M139.242 57.2764H115.979V74.2345H139.242V57.2764Z" fill="black"/>
<path d="M139.242 56.9072H115.979V73.8654H139.242V56.9072Z" fill="url(#paint7_linear)"/>
<g opacity="0.1">
<path opacity="0.1" d="M121.136 76.7715H116.315C116.202 76.7715 116.109 76.8642 116.109 76.9785V78.4408C116.109 78.5552 116.202 78.6479 116.315 78.6479H121.136C121.25 78.6479 121.342 78.5552 121.342 78.4408V76.9785C121.342 76.8642 121.25 76.7715 121.136 76.7715Z" fill="black"/>
<path opacity="0.1" d="M127.059 76.7715H122.238C122.124 76.7715 122.032 76.8642 122.032 76.9785V78.4408C122.032 78.5552 122.124 78.6479 122.238 78.6479H127.059C127.173 78.6479 127.265 78.5552 127.265 78.4408V76.9785C127.265 76.8642 127.173 76.7715 127.059 76.7715Z" fill="black"/>
<path opacity="0.1" d="M132.98 76.7715H128.159C128.045 76.7715 127.953 76.8642 127.953 76.9785V78.4408C127.953 78.5552 128.045 78.6479 128.159 78.6479H132.98C133.094 78.6479 133.186 78.5552 133.186 78.4408V76.9785C133.186 76.8642 133.094 76.7715 132.98 76.7715Z" fill="black"/>
<path opacity="0.1" d="M138.906 76.7715H134.085C133.971 76.7715 133.879 76.8642 133.879 76.9785V78.4408C133.879 78.5552 133.971 78.6479 134.085 78.6479H138.906C139.02 78.6479 139.112 78.5552 139.112 78.4408V76.9785C139.112 76.8642 139.02 76.7715 138.906 76.7715Z" fill="black"/>
<path opacity="0.1" d="M121.136 80.4458H116.315C116.202 80.4458 116.109 80.5385 116.109 80.6528V82.1151C116.109 82.2295 116.202 82.3222 116.315 82.3222H121.136C121.25 82.3222 121.342 82.2295 121.342 82.1151V80.6528C121.342 80.5385 121.25 80.4458 121.136 80.4458Z" fill="black"/>
<path opacity="0.1" d="M127.059 80.4458H122.238C122.124 80.4458 122.032 80.5385 122.032 80.6528V82.1151C122.032 82.2295 122.124 82.3222 122.238 82.3222H127.059C127.173 82.3222 127.265 82.2295 127.265 82.1151V80.6528C127.265 80.5385 127.173 80.4458 127.059 80.4458Z" fill="black"/>
<path opacity="0.1" d="M132.98 80.4458H128.159C128.045 80.4458 127.953 80.5385 127.953 80.6528V82.1151C127.953 82.2295 128.045 82.3222 128.159 82.3222H132.98C133.094 82.3222 133.186 82.2295 133.186 82.1151V80.6528C133.186 80.5385 133.094 80.4458 132.98 80.4458Z" fill="black"/>
<path opacity="0.1" d="M121.136 84.0278H116.315C116.202 84.0278 116.109 84.1205 116.109 84.2349V85.6972C116.109 85.8115 116.202 85.9042 116.315 85.9042H121.136C121.25 85.9042 121.342 85.8115 121.342 85.6972V84.2349C121.342 84.1205 121.25 84.0278 121.136 84.0278Z" fill="black"/>
<path opacity="0.1" d="M127.059 84.0278H122.238C122.124 84.0278 122.032 84.1205 122.032 84.2349V85.6972C122.032 85.8115 122.124 85.9042 122.238 85.9042H127.059C127.173 85.9042 127.265 85.8115 127.265 85.6972V84.2349C127.265 84.1205 127.173 84.0278 127.059 84.0278Z" fill="black"/>
<path opacity="0.1" d="M132.98 84.0278H128.159C128.045 84.0278 127.953 84.1205 127.953 84.2349V85.6972C127.953 85.8115 128.045 85.9042 128.159 85.9042H132.98C133.094 85.9042 133.186 85.8115 133.186 85.6972V84.2349C133.186 84.1205 133.094 84.0278 132.98 84.0278Z" fill="black"/>
<path opacity="0.1" d="M121.136 87.98H116.315C116.202 87.98 116.109 88.0727 116.109 88.187V89.6493C116.109 89.7637 116.202 89.8564 116.315 89.8564H121.136C121.25 89.8564 121.342 89.7637 121.342 89.6493V88.187C121.342 88.0727 121.25 87.98 121.136 87.98Z" fill="black"/>
<path opacity="0.1" d="M127.059 87.98H122.238C122.124 87.98 122.032 88.0727 122.032 88.187V89.6493C122.032 89.7637 122.124 89.8564 122.238 89.8564H127.059C127.173 89.8564 127.265 89.7637 127.265 89.6493V88.187C127.265 88.0727 127.173 87.98 127.059 87.98Z" fill="black"/>
<path opacity="0.1" d="M132.98 87.98H128.159C128.045 87.98 127.953 88.0727 127.953 88.187V89.6493C127.953 89.7637 128.045 89.8564 128.159 89.8564H132.98C133.094 89.8564 133.186 89.7637 133.186 89.6493V88.187C133.186 88.0727 133.094 87.98 132.98 87.98Z" fill="black"/>
<path opacity="0.1" d="M138.906 80.4458H134.085C133.971 80.4458 133.879 80.5385 133.879 80.6528V82.1151C133.879 82.2295 133.971 82.3222 134.085 82.3222H138.906C139.02 82.3222 139.112 82.2295 139.112 82.1151V80.6528C139.112 80.5385 139.02 80.4458 138.906 80.4458Z" fill="black"/>
<path opacity="0.1" d="M138.322 83.8262H134.711C134.427 83.8262 134.197 84.0573 134.197 84.3424V89.9978C134.197 90.2829 134.427 90.514 134.711 90.514H138.322C138.605 90.514 138.836 90.2829 138.836 89.9978V84.3424C138.836 84.0573 138.605 83.8262 138.322 83.8262Z" fill="black"/>
</g>
<path d="M121.136 76.4019H116.315C116.202 76.4019 116.109 76.4945 116.109 76.6089V78.0712C116.109 78.1855 116.202 78.2782 116.315 78.2782H121.136C121.25 78.2782 121.342 78.1855 121.342 78.0712V76.6089C121.342 76.4945 121.25 76.4019 121.136 76.4019Z" fill="#F2F3F3"/>
<path d="M127.057 76.4019H122.236C122.123 76.4019 122.03 76.4945 122.03 76.6089V78.0712C122.03 78.1855 122.123 78.2782 122.236 78.2782H127.057C127.171 78.2782 127.263 78.1855 127.263 78.0712V76.6089C127.263 76.4945 127.171 76.4019 127.057 76.4019Z" fill="#F2F3F3"/>
<path d="M132.98 76.4019H128.159C128.045 76.4019 127.953 76.4945 127.953 76.6089V78.0712C127.953 78.1855 128.045 78.2782 128.159 78.2782H132.98C133.094 78.2782 133.186 78.1855 133.186 78.0712V76.6089C133.186 76.4945 133.094 76.4019 132.98 76.4019Z" fill="#F2F3F3"/>
<path d="M138.903 76.4019H134.082C133.968 76.4019 133.876 76.4945 133.876 76.6089V78.0712C133.876 78.1855 133.968 78.2782 134.082 78.2782H138.903C139.017 78.2782 139.109 78.1855 139.109 78.0712V76.6089C139.109 76.4945 139.017 76.4019 138.903 76.4019Z" fill="#D44F6A"/>
<path d="M121.136 80.0762H116.315C116.202 80.0762 116.109 80.1689 116.109 80.2832V81.7455C116.109 81.8599 116.202 81.9526 116.315 81.9526H121.136C121.25 81.9526 121.342 81.8599 121.342 81.7455V80.2832C121.342 80.1689 121.25 80.0762 121.136 80.0762Z" fill="#F2F3F3"/>
<path d="M127.057 80.0762H122.236C122.123 80.0762 122.03 80.1689 122.03 80.2832V81.7455C122.03 81.8599 122.123 81.9526 122.236 81.9526H127.057C127.171 81.9526 127.263 81.8599 127.263 81.7455V80.2832C127.263 80.1689 127.171 80.0762 127.057 80.0762Z" fill="#F2F3F3"/>
<path d="M132.98 80.0762H128.159C128.045 80.0762 127.953 80.1689 127.953 80.2832V81.7455C127.953 81.8599 128.045 81.9526 128.159 81.9526H132.98C133.094 81.9526 133.186 81.8599 133.186 81.7455V80.2832C133.186 80.1689 133.094 80.0762 132.98 80.0762Z" fill="#F2F3F3"/>
<path d="M121.136 83.6587H116.315C116.202 83.6587 116.109 83.7514 116.109 83.8657V85.328C116.109 85.4424 116.202 85.5351 116.315 85.5351H121.136C121.25 85.5351 121.342 85.4424 121.342 85.328V83.8657C121.342 83.7514 121.25 83.6587 121.136 83.6587Z" fill="#F2F3F3"/>
<path d="M127.057 83.6587H122.236C122.123 83.6587 122.03 83.7514 122.03 83.8657V85.328C122.03 85.4424 122.123 85.5351 122.236 85.5351H127.057C127.171 85.5351 127.263 85.4424 127.263 85.328V83.8657C127.263 83.7514 127.171 83.6587 127.057 83.6587Z" fill="#F2F3F3"/>
<path d="M132.98 83.6587H128.159C128.045 83.6587 127.953 83.7514 127.953 83.8657V85.328C127.953 85.4424 128.045 85.5351 128.159 85.5351H132.98C133.094 85.5351 133.186 85.4424 133.186 85.328V83.8657C133.186 83.7514 133.094 83.6587 132.98 83.6587Z" fill="#F2F3F3"/>
<path d="M121.136 87.6104H116.315C116.202 87.6104 116.109 87.703 116.109 87.8174V89.2797C116.109 89.394 116.202 89.4867 116.315 89.4867H121.136C121.25 89.4867 121.342 89.394 121.342 89.2797V87.8174C121.342 87.703 121.25 87.6104 121.136 87.6104Z" fill="#F2F3F3"/>
<path d="M127.057 87.6104H122.236C122.123 87.6104 122.03 87.703 122.03 87.8174V89.2797C122.03 89.394 122.123 89.4867 122.236 89.4867H127.057C127.171 89.4867 127.263 89.394 127.263 89.2797V87.8174C127.263 87.703 127.171 87.6104 127.057 87.6104Z" fill="#F2F3F3"/>
<path d="M132.98 87.6104H128.159C128.045 87.6104 127.953 87.703 127.953 87.8174V89.2797C127.953 89.394 128.045 89.4867 128.159 89.4867H132.98C133.094 89.4867 133.186 89.394 133.186 89.2797V87.8174C133.186 87.703 133.094 87.6104 132.98 87.6104Z" fill="#F2F3F3"/>
<path d="M138.903 80.0762H134.082C133.968 80.0762 133.876 80.1689 133.876 80.2832V81.7455C133.876 81.8599 133.968 81.9526 134.082 81.9526H138.903C139.017 81.9526 139.109 81.8599 139.109 81.7455V80.2832C139.109 80.1689 139.017 80.0762 138.903 80.0762Z" fill="#FECB42"/>
<path d="M138.322 83.4595H134.711C134.427 83.4595 134.197 83.6906 134.197 83.9757V89.6311C134.197 89.9162 134.427 90.1473 134.711 90.1473H138.322C138.605 90.1473 138.836 89.9162 138.836 89.6311V83.9757C138.836 83.6906 138.605 83.4595 138.322 83.4595Z" fill="#97D25E"/>
<path d="M130.084 71.8052H127.577V72.1066H130.084V71.8052Z" fill="#C7CCE1"/>
<path d="M133.596 71.8052H131.089V72.1066H133.596V71.8052Z" fill="#C7CCE1"/>
<path d="M137.108 71.8052H134.601V72.1066H137.108V71.8052Z" fill="#C7CCE1"/>
</g>
<defs>
<linearGradient id="paint0_linear" x1="164.969" y1="-20.2269" x2="170.702" y2="247.59" gradientUnits="userSpaceOnUse">
<stop stop-color="#FD749B"/>
<stop offset="1" stop-color="#281AC8"/>
</linearGradient>
<linearGradient id="paint1_linear" x1="162.979" y1="201.274" x2="163.02" y2="219.24" gradientUnits="userSpaceOnUse">
<stop stop-color="#FD749B"/>
<stop offset="1" stop-color="#281AC8"/>
</linearGradient>
<linearGradient id="paint2_linear" x1="202.163" y1="211.034" x2="202.163" y2="-2.33368e-06" gradientUnits="userSpaceOnUse">
<stop stop-color="#808080" stop-opacity="0.25"/>
<stop offset="0.54" stop-color="#808080" stop-opacity="0.12"/>
<stop offset="1" stop-color="#808080" stop-opacity="0.1"/>
</linearGradient>
<linearGradient id="paint3_linear" x1="155.754" y1="48.4833" x2="156.914" y2="76.5948" gradientUnits="userSpaceOnUse">
<stop stop-color="#FD749B"/>
<stop offset="1" stop-color="#281AC8"/>
</linearGradient>
<linearGradient id="paint4_linear" x1="37.5194" y1="3.5113" x2="38.5895" y2="40.5766" gradientUnits="userSpaceOnUse">
<stop stop-color="#FD749B"/>
<stop offset="1" stop-color="#281AC8"/>
</linearGradient>
<linearGradient id="paint5_linear" x1="45.0172" y1="53.0561" x2="45.5006" y2="69.803" gradientUnits="userSpaceOnUse">
<stop stop-color="#FD749B"/>
<stop offset="1" stop-color="#281AC8"/>
</linearGradient>
<linearGradient id="paint6_linear" x1="5.73596" y1="9.97275" x2="6.2196" y2="26.724" gradientUnits="userSpaceOnUse">
<stop stop-color="#FD749B"/>
<stop offset="1" stop-color="#281AC8"/>
</linearGradient>
<linearGradient id="paint7_linear" x1="128.774" y1="54.2379" x2="129.471" y2="84.2931" gradientUnits="userSpaceOnUse">
<stop stop-color="#FD749B"/>
<stop offset="1" stop-color="#281AC8"/>
</linearGradient>
<clipPath id="clip0">
<rect width="271" height="213" fill="white"/>
</clipPath>
</defs>
</svg>
