<svg width="288" height="225" viewBox="0 0 288 225" fill="none" xmlns="http://www.w3.org/2000/svg">
<g clip-path="url(#clip0)">
<path opacity="0.1" d="M271.367 142.008C261.636 154.422 265.408 172.57 271.6 187.097C273.664 191.962 276.023 197.108 275.138 202.324C274.068 208.703 268.389 213.37 262.424 215.841C251.552 220.348 238.539 219.272 228.554 213.045C219.921 207.662 213.74 198.908 204.965 193.771C190.271 185.173 171.57 188.418 155.615 194.341C144.327 198.532 131.986 203.98 120.769 199.602C112.876 196.519 107.421 189.021 104.448 181.07C103.012 177.228 101.971 173.09 99.2319 170.034C97.6012 168.225 95.4752 166.942 93.299 165.857C73.4098 155.977 48.2896 161.267 28.9695 150.305C15.9214 142.901 7.57055 128.932 3.86989 114.37C0.169236 99.8071 0.602701 84.5352 1.5404 69.5352C2.20681 58.877 3.404 47.4977 10.2008 39.2692C17.3898 30.5677 29.7244 27.3312 40.8676 28.9834C52.0109 30.6357 62.1221 36.5381 71.0243 43.478C82.1381 52.1559 92.4409 62.9618 106.085 66.479C115.376 68.8731 125.151 67.5637 134.732 67.1086C150.752 66.349 166.778 68.0366 182.71 69.8839C197.961 71.6573 213.324 73.5962 227.856 78.5706C238.138 82.0908 246.382 88.478 256.09 92.9411C262.418 95.8494 269.321 96.6534 275.312 100.36C282.684 104.923 289.466 112.862 287.57 122.155C285.772 130.986 276.539 135.417 271.367 142.008Z" fill="url(#paint0_linear)"/>
<path d="M226.337 186.021C225.178 184.656 223.864 183.432 222.421 182.373C222.721 182.155 223.016 181.935 223.305 181.714C227.027 178.942 230.214 176.098 230.898 174.056C232.727 168.638 251.472 158.707 251.472 158.707C251.472 158.707 232.269 162.319 222.211 156.449C216.211 152.947 206.955 152.338 200.464 152.418L200.512 152.305L200.6 152.11C200.65 152.001 200.7 151.895 200.753 151.785C200.807 151.676 200.839 151.608 200.886 151.519L200.924 151.448C200.992 151.318 201.063 151.188 201.137 151.058C201.317 150.739 201.508 150.42 201.712 150.1V150.083C202.235 149.275 202.803 148.498 203.413 147.754L203.437 147.724C203.923 147.133 204.431 146.542 204.941 146.001L204.97 145.968L205.33 145.587L205.389 145.528C205.875 145.017 206.362 144.532 206.834 144.08L206.943 143.976L207.238 143.707L207.373 143.58L207.636 143.335L207.774 143.208L208.167 142.853L208.379 142.664L208.538 142.525L208.771 142.321L208.889 142.221L209.184 141.961L209.21 141.937C210.163 141.121 210.791 140.645 210.791 140.645H210.776C210.474 140.862 210.157 141.06 209.83 141.236L209.785 141.257L209.491 141.405L209.408 141.443L209.146 141.562L208.998 141.621L208.792 141.706L208.591 141.78L208.429 141.839L208.175 141.925L208.057 141.964L207.733 142.061L207.68 142.076L207.297 142.179C200.627 143.902 191.146 141.355 190.277 141.112L190.221 141.098C190.221 141.098 186.411 140.308 181.475 139.599C183.763 134.905 186.054 130.49 188.177 126.559C190.008 130.578 193.12 133.874 197.023 135.928C197.171 135.763 197.318 135.591 197.442 135.42C197.884 135.674 198.147 135.795 198.147 135.795C199.385 134.375 200.247 132.665 200.653 130.824C201.923 132.03 203.358 133.049 204.914 133.85C205.042 133.706 205.165 133.56 205.283 133.41C205.463 133.504 205.56 133.552 205.56 133.552C208.028 130.764 208.683 127.165 208.405 123.502C212.993 125.253 218.059 125.275 222.663 123.565C222.663 123.547 222.663 123.526 222.663 123.508C223.087 123.364 223.32 123.263 223.32 123.263C222.949 120.523 221.551 118.238 219.652 116.341C228.463 116.524 233.216 111.05 233.216 111.05L233.166 110.982C233.529 110.642 233.711 110.432 233.711 110.432C232.547 108.788 231.077 107.383 229.383 106.295C233.405 103.909 235.147 100.821 235.147 100.821C235.047 100.726 234.941 100.634 234.853 100.543C235.074 100.224 235.183 100.032 235.183 100.032C234.962 99.8217 234.732 99.6236 234.502 99.4404C234.652 99.2128 234.726 99.0827 234.726 99.0827C231.187 95.7458 226.493 94.5428 221.837 94.4039C224.651 91.27 226.382 87.311 226.776 83.1133C223.238 81.9576 219.622 82.7556 216.332 84.4167C216.601 81.3502 216.159 78.2629 215.04 75.396C215.942 76.0928 216.914 76.695 217.939 77.1931C218.064 77.0473 218.185 76.8985 218.301 76.7468C218.481 76.8384 218.596 76.8827 218.596 76.8827C221.02 74.0571 221.616 70.4483 221.283 66.8039C225.897 68.4831 230.963 68.4264 235.54 66.6443V66.5882C235.961 66.4374 236.191 66.334 236.191 66.334C235.776 63.6 234.354 61.3359 232.414 59.468C241.225 59.5153 245.893 53.9675 245.893 53.9675L245.84 53.8995C246.196 53.5537 246.376 53.3409 246.376 53.3409C245.184 51.7196 243.693 50.343 241.983 49.2857C245.966 46.8384 247.659 43.7231 247.659 43.7231C247.556 43.6286 247.45 43.5399 247.346 43.4483C247.562 43.1231 247.668 42.931 247.668 42.931C247.444 42.7241 247.211 42.5291 246.978 42.3399C247.125 42.1094 247.199 41.9793 247.199 41.9793C243.61 38.6985 238.895 37.5665 234.224 37.5015C236.987 34.3239 238.655 30.339 238.981 26.1369C235.413 25.0345 231.824 25.8916 228.56 27.6148C228.813 24.2778 228.204 20.9317 226.791 17.8995C226.549 17.9498 226.313 18.0089 226.08 18.0709C226.024 17.9527 225.992 17.8936 225.992 17.8936C225.897 17.6867 225.838 17.5744 225.838 17.5744C221.79 18.3931 218.885 21.3163 216.821 24.8276C216.668 25.0877 216.526 25.3507 216.376 25.6167C214.841 21.8201 212.173 18.5913 208.739 16.3714C205.722 19.2236 204.852 23.2788 205.017 27.3813C205.017 27.6591 205.047 27.9369 205.064 28.2148C201.612 25.5113 197.378 24.0033 192.998 23.9172C192.376 26.3527 192.671 28.7498 193.526 31.0108C190.573 30.5555 187.556 30.7666 184.695 31.6286C184.695 31.667 184.695 31.7054 184.695 31.7438C184.273 31.8562 184.04 31.9389 184.04 31.9389C184.27 35.3734 186.104 38.2138 188.631 40.5103C184.747 41.0874 181.116 42.7897 178.184 45.4079C178.282 45.5813 178.38 45.7497 178.479 45.9133C178.272 46.0936 178.166 46.2089 178.166 46.2089C179.968 49.398 183.12 51.2128 186.638 52.197C183.057 54.3404 180.243 57.5626 178.597 61.4039C178.682 61.463 178.768 61.5192 178.853 61.5783C178.673 61.9685 178.591 62.196 178.591 62.196C181.596 64.3419 185.24 64.6699 188.858 64.0877C188.274 66.1736 188.029 68.3403 188.133 70.5044C185.913 73.6286 183.66 76.8975 181.436 80.2049C181.035 80.1813 180.811 80.1842 180.811 80.1842C180.69 80.6319 180.599 81.0871 180.537 81.5468C179.31 83.3793 178.095 85.2177 176.901 87.0414C175.378 87.094 173.867 87.3393 172.404 87.7714C172.404 87.8098 172.404 87.8483 172.404 87.8867C171.983 87.9931 171.747 88.0699 171.747 88.0699C171.747 88.1172 171.747 88.1645 171.747 88.2118C169.771 85.5369 167.005 83.5359 164.024 82.0433C167.918 80.39 171.186 77.5369 173.354 73.8975C170.638 71.3616 167.032 70.5724 163.328 70.6965C165.039 67.8204 165.982 64.5506 166.065 61.2029C165.826 61.1409 165.587 61.0936 165.348 61.0492C165.348 60.9192 165.348 60.8512 165.348 60.8512C165.348 60.6236 165.348 60.4995 165.348 60.4995C161.347 59.4768 157.44 60.8453 154.019 63.1034C153.765 63.2719 153.515 63.4433 153.267 63.6207C153.581 59.5554 152.62 55.4934 150.519 52.002C146.538 53.2581 143.955 56.5212 142.28 60.2778C142.165 60.532 142.059 60.7891 141.953 61.0492C140.05 57.12 136.913 53.9251 133.024 51.9547C131.382 53.8729 130.582 56.1547 130.341 58.5606C127.882 56.8687 125.077 55.7497 122.131 55.2857L122.09 55.3951C121.663 55.3123 121.415 55.2857 121.415 55.2857C120.094 58.4719 120.489 61.8236 121.71 64.9832C117.961 63.8276 113.96 63.7824 110.186 64.8532C110.186 65.0512 110.213 65.2463 110.236 65.4443C109.971 65.5182 109.829 65.5655 109.829 65.5655C110.03 69.2128 112.053 72.2098 114.777 74.6187C110.605 74.9953 106.654 76.6647 103.472 79.3951C103.522 79.4867 103.575 79.5724 103.625 79.6611C103.292 79.933 103.115 80.1015 103.115 80.1015C104.861 83.332 107.989 85.2088 111.495 86.2551C109.462 88.489 107.975 91.1665 107.152 94.0758C107.417 94.2177 107.683 94.3448 107.954 94.466C107.895 94.6699 107.868 94.7852 107.868 94.7852C111.628 96.8217 115.93 96.3399 119.929 94.862C118.717 103.277 123.709 109.215 123.709 109.215C123.912 109.126 124.113 109.032 124.299 108.919C124.594 109.333 124.773 109.555 124.773 109.555C126.511 108.792 128.031 107.606 129.197 106.105C129.827 107.73 130.688 109.255 131.753 110.633C131.932 110.557 132.107 110.475 132.278 110.388C132.399 110.548 132.47 110.633 132.47 110.633C134.206 109.875 135.726 108.694 136.893 107.199C137.285 115.818 137.621 130.034 136.648 144.698C136.058 153.647 134.976 162.765 133.11 170.882C129.727 156.857 125.366 139.868 120.952 125.737C116.14 110.329 106.869 95.6157 98.2673 81.9103C92.131 72.1359 84.3582 60.1448 77.0689 50.0394C83.8333 52.2916 89.1587 49.9271 89.1587 49.9271C89.1587 49.9271 89.1587 49.8709 89.141 49.8443C89.6158 49.6906 89.8723 49.5754 89.8723 49.5754C89.5235 47.6033 88.7954 45.7181 87.7286 44.0246C92.3964 43.5547 95.3039 41.4887 95.3039 41.4887C95.2537 41.3586 95.1977 41.2345 95.1446 41.1074C95.4837 40.9094 95.6636 40.7823 95.6636 40.7823C95.5516 40.4867 95.4307 40.2236 95.3039 39.9517C95.5398 39.8098 95.6636 39.7212 95.6636 39.7212C93.8944 35.2167 90.1642 32.1547 86.0095 30.0768C89.9035 28.4235 93.1712 25.5704 95.3393 21.931C92.6235 19.3951 89.0172 18.6059 85.3136 18.73C87.0299 15.8593 87.9794 12.5938 88.0706 9.24827C87.8318 9.1862 87.5929 9.13892 87.3541 9.09458C87.3541 8.96453 87.3541 8.89655 87.3541 8.89655C87.3541 8.66897 87.3541 8.54483 87.3541 8.54483C83.3527 7.52217 79.4456 8.89064 76.0251 11.1488C75.7715 11.3172 75.5208 11.4887 75.2731 11.666C75.5868 7.60071 74.626 3.53872 72.5249 0.0472917C68.5441 1.30345 65.961 4.5665 64.2862 8.32315C64.1712 8.57734 64.065 8.83448 63.9589 9.09458C62.0557 5.16534 58.9191 1.97044 55.0301 0C53.3877 1.91823 52.5886 4.2 52.3468 6.60591C49.8875 4.91359 47.0815 3.7946 44.1345 3.33104L44.0933 3.44039C43.6657 3.35763 43.418 3.33104 43.418 3.33104C42.097 6.51724 42.4921 9.86896 43.7129 13.0286C39.9516 11.8648 35.9343 11.8196 32.1479 12.8985C32.1479 13.0965 32.1745 13.2916 32.1981 13.4897C31.9327 13.5635 31.7912 13.6108 31.7912 13.6108C31.9917 17.2581 34.0145 20.2552 36.7391 22.664C32.5683 23.0443 28.619 24.7168 25.4396 27.4493C25.4897 27.5409 25.5428 27.6266 25.5929 27.7153C25.2597 27.9872 25.0828 28.1557 25.0828 28.1557C26.8284 31.3862 29.957 33.2631 33.4631 34.3094C31.4296 36.5432 29.9425 39.2207 29.1196 42.13C29.385 42.2719 29.6504 42.399 29.9217 42.5202C29.8627 42.7241 29.8361 42.8394 29.8361 42.8394C33.5958 44.8759 37.898 44.3941 41.8965 42.9163C40.6845 51.331 45.6767 57.269 45.6767 57.269C45.8802 57.1803 46.0807 57.0857 46.2665 56.9734C46.5613 57.3872 46.7412 57.6089 46.7412 57.6089C48.4788 56.8457 49.9991 55.6602 51.1643 54.1596C51.7976 55.7915 52.6637 57.3227 53.7356 58.7054C53.9145 58.6286 54.0895 58.5468 54.2605 58.4601C54.3814 58.6197 54.4521 58.7054 54.4521 58.7054C57.8845 57.2276 60.0253 54.2364 61.3492 50.8167C66.1645 55.8798 72.289 56.7044 73.8519 56.8345C82.816 69.5261 93.6998 86.0187 100.615 100.259C100.615 100.259 114.842 127.815 123.91 156.697C119.301 151.821 112.999 144.745 111.587 141.118C109.301 135.248 80.9553 141.118 80.9553 141.118L80.8993 141.133C80.0147 141.375 70.5493 143.923 63.8792 142.2L63.5018 142.097L63.4487 142.082L63.1244 141.984L63.0064 141.946L62.7528 141.86L62.5906 141.801L62.3901 141.727L62.1837 141.641L62.0363 141.582L61.7739 141.464L61.6913 141.426L61.3964 141.278L61.3522 141.257C61.0243 141.081 60.7082 140.883 60.4056 140.666H60.3909C62.9624 142.684 65.3325 144.948 67.4678 147.426L67.5357 147.508L67.9072 147.964L68.0045 148.085C68.1264 148.238 68.2463 148.392 68.3643 148.546L68.435 148.637C68.5707 148.819 68.7043 149.001 68.8361 149.184L68.9334 149.326C69.0258 149.456 69.1162 149.587 69.2047 149.719L69.358 149.95L69.5555 150.245L69.7177 150.505L69.8829 150.801C69.9359 150.893 69.992 150.984 70.0421 151.076L70.0627 151.114C70.1482 151.271 70.2338 151.425 70.3134 151.581L70.3959 151.75C70.4647 151.888 70.5296 152.025 70.5906 152.161L70.6584 152.311L70.7115 152.438C64.2242 152.359 54.9652 152.967 48.9646 156.47C38.9064 162.34 19.7043 158.728 19.7043 158.728C19.7043 158.728 38.4494 168.659 40.2776 174.077C41.0089 176.24 44.5739 179.335 48.6019 182.276L49.4688 182.902C48.286 183.838 47.1994 184.889 46.2252 186.041C37.0841 196.877 15.1367 207.712 15.1367 207.712H15.2016L15.3903 207.73L15.7147 207.76L16.3044 207.816H16.4047C21.0991 208.259 37.6355 209.964 47.0715 212.808C47.4106 212.911 47.7408 213.015 48.0593 213.118C50.8016 214.02 66.3414 212.666 76.8625 209.506C77.1574 209.418 77.4523 209.338 77.7471 209.261L78.0096 209.196C78.2297 209.143 78.4509 209.093 78.673 209.045L78.9355 208.989C79.2303 208.93 79.5252 208.874 79.8201 208.827H79.8142C80.1091 208.776 80.4039 208.735 80.6988 208.697L80.9671 208.664L81.6129 208.593L81.893 208.566C82.1604 208.543 82.4268 208.524 82.6922 208.51H82.7777C83.0725 208.496 83.3468 208.484 83.6328 208.478H83.9277H84.8123H85.4197L85.8326 208.493L86.4223 208.522L86.844 208.552L87.2096 208.581L87.6785 208.623L87.8996 208.646L88.4038 208.699L88.7636 208.744L89.0349 208.779L89.4329 208.835L89.6541 208.868C89.6541 208.93 89.6305 208.998 89.6187 209.063C89.6187 209.063 89.9991 211.188 92.4937 213.266C88.2682 214.484 84.7622 215.885 82.1437 217.404C81.9874 217.49 81.8488 217.581 81.6955 217.67C81.8016 217.67 81.9048 217.646 82.0169 217.637C82.1289 217.629 82.2145 217.637 82.3118 217.637H189.831C189.932 217.637 190.029 217.637 190.126 217.637C190.224 217.637 190.336 217.655 190.442 217.67C190.529 217.679 190.615 217.693 190.701 217.711C190.794 217.724 190.886 217.744 190.975 217.77C190.779 217.644 190.582 217.522 190.386 217.404C187.113 215.489 182.454 213.789 176.748 212.379C178.461 211.493 179.416 210.488 179.814 209.424C180.151 209.347 180.493 209.273 180.85 209.202C182.245 208.917 183.654 208.709 185.072 208.578L185.662 208.531L185.957 208.507C189.233 208.256 192.527 208.588 195.688 209.489C206.203 212.648 221.745 214.002 224.491 213.1C224.809 212.994 225.139 212.891 225.479 212.79C234.894 209.95 251.427 208.241 256.145 207.798H256.246L256.835 207.742L257.16 207.712L257.348 207.695H257.413C257.413 207.695 235.481 196.856 226.337 186.021ZM213.731 74.3557L213.58 74.3882C213.58 74.3409 213.601 74.2936 213.61 74.2463L213.731 74.3557ZM169.237 98.9911C168.592 99.3399 168.023 99.6886 167.545 100.011C167.137 98.5947 166.534 97.2426 165.752 95.9941C168.076 95.7687 170.335 95.0953 172.404 94.0108C171.31 95.7133 170.255 97.3773 169.237 98.9911ZM171.225 107.299C172.13 107.727 173.068 108.083 174.029 108.364C171.768 109.673 169.788 111.418 168.202 113.498C169.131 111.449 170.146 109.38 171.225 107.299ZM142.091 144.715C142.923 130.945 143.43 116.045 142.722 105.556C145.573 107.428 148.851 108.547 152.25 108.807L152.265 108.751C152.71 108.798 152.963 108.807 152.963 108.807C153.804 106.17 153.535 103.522 152.621 101.001C156.679 103.034 161.334 103.526 165.725 102.387C165.937 102.765 166.172 103.129 166.427 103.478C160.721 112.64 156.838 119.217 156.838 119.217C152.884 125.178 146.367 146.025 140.443 166.963C140.992 160.714 141.599 152.911 142.091 144.715ZM159.586 141.103C158.495 143.905 154.488 148.762 150.596 153.077C155.703 140.187 160.822 129.269 163.679 123.396C164.49 121.732 165.268 120.053 166.038 118.371C168.972 120.44 172.525 120.798 176.064 120.287C175.185 123.169 174.991 126.218 175.498 129.189C175.792 129.207 176.087 129.21 176.382 129.204C176.418 129.414 176.441 129.526 176.441 129.526C177.79 129.609 179.142 129.448 180.434 129.05C178.859 132.248 177.282 135.553 175.733 138.901C168.368 138.168 160.73 138.171 159.589 141.1L159.586 141.103ZM213.981 74.8492C213.928 74.731 213.896 74.669 213.896 74.669C213.837 74.5359 213.793 74.4414 213.769 74.3911C213.924 74.529 214.079 74.6611 214.232 74.7872L213.981 74.8492ZM193.6 72.7005C196.112 71.8374 198.338 70.1616 200.261 68.1576C201.577 72.053 204.083 75.4344 207.423 77.8226C206.349 78.9213 205.407 80.1436 204.619 81.464C204.463 81.7212 204.324 81.9842 204.162 82.2473C202.686 78.4304 200.07 75.1634 196.672 72.8926C193.609 75.6975 192.677 79.7379 192.777 83.8286C192.777 84.1064 192.798 84.3842 192.813 84.665C191.14 83.2972 189.254 82.2157 187.231 81.464C189.41 78.3724 191.571 75.4286 193.609 72.7005H193.6Z" fill="url(#paint1_linear)"/>
<path d="M129.166 162.76C129.166 162.76 114.51 148.07 112.29 142.286C110.07 136.501 82.5373 142.286 82.5373 142.286C82.5373 142.286 68.7726 146.291 62.5537 141.839C62.5537 141.839 72.3229 149.406 73.2104 155.636C74.098 161.867 108.737 177.893 108.737 177.893L129.166 197.03L136.272 193.026L129.166 162.76Z" fill="#FF8000"/>
<path d="M136.271 193.028L129.164 197.03L123.453 191.692L108.739 177.895C108.739 177.895 74.1028 161.858 73.2123 155.651C72.9994 154.401 72.5628 153.199 71.9237 152.104C69.1224 147.009 62.8947 142.111 62.5674 141.854C68.7892 146.287 82.5362 142.291 82.5362 142.291C82.5362 142.291 110.069 136.504 112.289 142.291C114.509 148.079 129.164 162.765 129.164 162.765L136.271 193.028Z" fill="#9347B2"/>
<path opacity="0.1" d="M126.946 191.693H123.455L108.741 177.896C108.741 177.896 74.1049 161.858 73.2144 155.651C73.0015 154.401 72.5649 153.199 71.9258 152.105C74.7287 152.094 77.5301 152.235 80.3179 152.527C90.087 162.319 103.852 167.217 103.852 167.217C117.622 158.311 126.946 191.693 126.946 191.693Z" fill="black"/>
<path d="M126.503 193.029H109.628L63.8898 191.255C63.8898 191.255 56.9927 187.236 51.1041 182.87C47.1912 179.973 43.7323 176.92 43.0187 174.786C41.2495 169.445 23.0352 159.653 23.0352 159.653C23.0352 159.653 41.6859 163.2 51.455 157.428C61.2242 151.655 79.8749 153.881 79.8749 153.881C89.644 163.673 103.409 168.571 103.409 168.571C111.043 163.635 117.309 171.701 121.381 179.864C123.453 184.101 125.166 188.505 126.503 193.029Z" fill="#B247A7"/>
<path d="M142.031 162.76C142.031 162.76 156.686 148.07 158.907 142.286C161.127 136.501 188.66 142.286 188.66 142.286C188.66 142.286 202.424 146.291 208.643 141.839C208.643 141.839 198.874 149.406 197.986 155.636C197.099 161.867 162.46 177.893 162.46 177.893L142.031 197.03L134.925 193.026L142.031 162.76Z" fill="#FF8000"/>
<path d="M208.64 141.851C208.313 142.108 202.085 147.009 199.284 152.107C198.644 153.202 198.207 154.403 197.995 155.654C197.111 161.885 162.469 177.91 162.469 177.91L147.743 191.707L142.031 197.03L134.925 193.026L142.031 162.76C142.031 162.76 156.686 148.07 158.907 142.286C161.127 136.501 188.66 142.286 188.66 142.286C188.66 142.286 202.418 146.288 208.64 141.851Z" fill="#9347B2"/>
<path opacity="0.1" d="M127.552 187.573C126.933 188.149 125.892 188.628 126.078 189.455C126.159 189.733 126.327 189.977 126.555 190.153C127.711 191.182 129.584 191.983 129.427 193.525C129.339 194.412 128.566 195.042 128.189 195.84C127.402 197.507 128.643 199.632 130.392 200.205C132.14 200.779 134.098 200.105 135.54 198.955C135.85 198.707 136.18 198.426 136.575 198.426C136.877 198.468 137.169 198.559 137.442 198.695C138.621 199.103 139.951 198.198 140.456 197.043C140.96 195.887 140.868 194.569 140.765 193.313C141.435 193.883 142.534 193.573 143.104 192.896C143.673 192.219 143.838 191.306 143.988 190.437L145.041 184.345C145.884 184.1 146.22 182.959 145.834 182.17C145.448 181.381 144.548 180.949 143.676 180.866C142.803 180.784 141.93 180.982 141.069 181.147C138.816 181.582 136.524 181.78 134.231 181.738C132.329 181.7 129.887 179.347 128.838 181.443C127.879 183.317 129.292 185.956 127.552 187.573Z" fill="black"/>
<path opacity="0.1" d="M199.285 152.104C198.645 153.199 198.208 154.4 197.996 155.651C197.112 161.882 162.47 177.907 162.47 177.907L147.744 191.704H143.822C143.822 191.704 153.146 158.311 166.914 167.211C166.914 167.211 180.678 162.313 190.448 152.521C193.383 152.217 196.334 152.078 199.285 152.104Z" fill="black"/>
<path d="M248.186 159.645C248.186 159.645 229.98 169.437 228.202 174.778C227.536 176.782 224.44 179.592 220.83 182.326C214.8 186.893 207.334 191.247 207.334 191.247L161.596 193.02H144.709C145.893 188.999 147.371 185.071 149.132 181.268C153.169 172.67 159.724 163.336 167.801 168.547C167.801 168.547 181.565 163.65 191.334 153.857C191.334 153.857 209.985 151.632 219.754 157.404C229.523 163.177 248.186 159.645 248.186 159.645Z" fill="#B247A7"/>
<path d="M205.989 57.0472C205.989 57.0472 178.424 89.1457 166.674 116.456C165.465 119.267 164.217 122.072 162.896 124.818C155.849 139.519 134.645 186.295 135.385 215.556L127.391 217.262C127.391 217.262 147.817 133.581 156.256 120.674C156.256 120.674 193.557 56.5772 205.992 50.3467L205.989 57.0472Z" fill="#635151"/>
<path d="M141.926 145.847C141.442 153.934 140.852 161.63 140.33 167.769C140.227 169.034 140.121 170.231 140.035 171.358C139.484 177.523 139.083 181.442 139.083 181.442V181.466C138.98 183.393 138.381 186.322 137.414 189.966C137.096 191.172 136.73 192.458 136.335 193.809C136.258 194.054 136.187 194.302 136.114 194.551C135.775 195.69 135.413 196.872 135.026 198.097C134.866 198.597 134.707 199.102 134.542 199.617C133.657 202.389 132.667 205.345 131.593 208.425C130.635 211.206 129.618 214.088 128.565 217.023L128.391 217.498C128.364 217.569 128.338 217.646 128.311 217.72H122.759C122.782 217.643 122.803 217.569 122.821 217.498C123.67 214.484 124.451 211.531 125.18 208.664C125.908 205.797 126.601 202.957 127.217 200.291C127.471 199.201 127.715 198.136 127.949 197.096C128.025 196.759 128.099 196.425 128.17 196.094C128.205 195.946 128.238 195.798 128.267 195.656C128.426 194.95 128.577 194.255 128.721 193.587C128.78 193.339 128.833 193.088 128.886 192.845L129.019 192.222C129.352 190.664 129.659 189.186 129.939 187.806C130.169 186.674 130.378 185.613 130.573 184.614C130.847 183.195 131.092 181.915 131.295 180.807C131.885 177.647 132.18 175.827 132.18 175.827C132.193 175.786 132.204 175.744 132.212 175.702C132.572 174.39 132.905 173.042 133.212 171.665C135.014 163.661 136.066 154.67 136.641 145.844C138.157 122.672 136.403 100.623 136.403 100.623L140.333 95.2314C143.662 101.737 143.158 125.087 141.926 145.847Z" fill="#635151"/>
<path d="M196.344 110.893C196.344 110.893 188.226 124.043 180.176 140.808C179.389 142.455 178.603 144.13 177.817 145.832C174.756 152.447 172.028 159.211 169.643 166.099C169.416 166.761 169.195 167.426 168.982 168.086C168.581 169.318 168.201 170.548 167.844 171.762C167.702 172.238 167.564 172.714 167.434 173.187C167.181 174.086 166.941 174.977 166.715 175.862C166.387 177.157 166.09 178.439 165.83 179.704C165.83 179.704 164.161 184.85 161.899 193.005C161.758 193.531 161.605 194.063 161.46 194.613C161.357 194.991 161.251 195.378 161.144 195.771C160.337 198.786 159.467 202.126 158.588 205.714C158.293 206.944 157.998 208.197 157.686 209.486C157.078 212.063 156.468 214.747 155.878 217.501C155.878 217.578 155.846 217.649 155.834 217.723H150.264C150.264 217.646 150.287 217.572 150.296 217.501C150.679 214.563 151.066 211.693 151.476 208.93C151.756 206.95 152.045 205.017 152.334 203.16C152.841 199.894 153.36 196.841 153.876 194.09C153.947 193.729 154.014 193.374 154.079 193.025C154.079 193.025 154.079 192.999 154.079 192.984C154.652 189.836 155.399 186.723 156.317 183.659C156.546 182.936 156.813 182.225 157.117 181.531C157.117 181.531 157.868 179.598 159.181 176.347L159.847 174.677C160.732 172.519 161.77 169.933 162.964 167.039C163.129 166.634 163.3 166.221 163.474 165.801C165.904 159.94 168.861 152.964 172.025 145.841C172.875 143.932 173.736 141.999 174.608 140.104C182.095 123.724 190.257 107.914 195.314 104.296L196.344 110.893Z" fill="#635151"/>
<path d="M60.7823 38.7994C60.7823 38.7994 88.5357 74.6309 101.634 102.003C101.634 102.003 132.274 162.24 131.387 197.329L139.378 199.038C139.378 199.038 130.496 156.736 121.39 127.153C116.717 111.961 107.711 97.4575 99.3576 83.9442C87.3326 64.4959 68.8352 36.1629 60.7764 32.1255L60.7823 38.7994Z" fill="#635151"/>
<path d="M189.41 217.868C189.323 217.841 189.234 217.822 189.145 217.809C189.061 217.791 188.976 217.777 188.891 217.767C188.788 217.767 188.688 217.741 188.596 217.735C188.505 217.729 188.404 217.735 188.301 217.735H83.8838C83.7865 217.735 83.6892 217.735 83.5889 217.735C83.4887 217.735 83.3796 217.753 83.2793 217.767C83.4208 217.679 83.5742 217.59 83.7157 217.504C86.2605 215.994 89.6663 214.617 93.7679 213.414C101.933 211.02 112.858 209.314 125.178 208.67C126.626 208.59 128.094 208.531 129.577 208.484L131.597 208.431C132.915 208.404 134.251 208.386 135.593 208.386C135.82 208.386 136.041 208.386 136.268 208.386C141.526 208.386 146.618 208.578 151.46 208.933C153.583 209.089 155.652 209.276 157.667 209.495C163.698 210.105 169.68 211.128 175.572 212.557C181.112 213.946 185.639 215.625 188.817 217.51C189.022 217.625 189.219 217.744 189.41 217.868Z" fill="#635151"/>
<path opacity="0.1" d="M126.505 193.029H109.629L63.8912 191.255C63.8912 191.255 56.9941 187.235 51.1055 182.87C60.4529 174.576 75.7598 174.742 79.431 176.79C83.4295 179.001 90.9782 178.114 90.9782 178.114C96.5248 165.538 111.661 173.146 121.391 179.84C123.461 184.085 125.171 188.497 126.505 193.029Z" fill="black"/>
<path d="M130.053 187.909C130.053 187.909 99.4126 160.312 90.9763 179.453C90.9763 179.453 83.4275 180.34 79.432 178.117C75.4364 175.895 57.6733 175.892 48.7917 186.573C39.9101 197.255 18.5967 207.94 18.5967 207.94C18.5967 207.94 40.1401 209.796 50.5698 213.281C53.2236 214.168 68.333 212.835 78.5444 209.734C88.7559 206.634 99.8637 211.513 99.8637 211.513L131.386 198.591L130.053 187.909Z" fill="#FF8000"/>
<path d="M131.388 198.591L99.8656 211.513C96.6435 210.205 93.2605 209.337 89.8075 208.933C86.3516 208.522 82.3885 208.564 78.5493 209.734C68.3349 212.849 53.2374 214.185 50.5746 213.281C40.145 209.796 18.6016 207.94 18.6016 207.94C18.6016 207.94 39.9179 197.258 48.7966 186.573C57.6752 175.889 75.4354 175.892 79.4339 178.114C83.4324 180.337 90.9782 179.45 90.9782 179.45C99.4145 160.309 130.055 187.906 130.055 187.906L130.695 193.052L131.388 198.591Z" fill="#9347B2"/>
<path opacity="0.1" d="M220.816 182.329C214.786 186.895 207.319 191.249 207.319 191.249L161.582 193.023H144.709C145.893 189.001 147.371 185.074 149.132 181.271C158.636 174.349 175.615 164.619 181.568 178.111C181.568 178.111 189.117 178.998 193.112 176.775C196.704 174.777 211.43 174.567 220.816 182.329Z" fill="black"/>
<path d="M142.489 187.909C142.489 187.909 173.129 160.312 181.566 179.453C181.566 179.453 189.114 180.34 193.11 178.117C197.106 175.895 214.869 175.892 223.75 186.573C232.632 197.255 253.945 207.94 253.945 207.94C253.945 207.94 232.408 209.796 221.975 213.287C219.321 214.174 204.212 212.841 194.001 209.74C183.789 206.64 172.699 211.513 172.699 211.513L141.147 198.591L142.489 187.909Z" fill="#FF8000"/>
<path d="M253.948 207.94C253.948 207.94 232.408 209.796 221.975 213.287C219.321 214.174 204.212 212.841 194.001 209.74C188.911 208.185 183.606 208.623 179.552 209.444C177.207 209.912 174.912 210.605 172.699 211.513L141.147 198.591L141.952 192.151L142.48 187.909C142.48 187.909 173.121 160.312 181.557 179.453C181.557 179.453 189.106 180.34 193.101 178.117C197.097 175.895 214.86 175.892 223.741 186.573C232.623 197.255 253.948 207.94 253.948 207.94Z" fill="#9347B2"/>
<path opacity="0.1" d="M179.561 209.444C177.212 209.912 174.915 210.604 172.699 211.513L141.147 198.591L141.952 192.151C151.775 190.909 170.458 197.255 170.458 197.255C170.458 197.255 182.837 204.177 179.561 209.444Z" fill="black"/>
<path opacity="0.1" d="M131.385 198.591L99.8628 211.514C96.6407 210.205 93.2577 209.337 89.8047 208.933C89.7391 208.759 89.6868 208.58 89.6484 208.398C92.8537 190.194 120.053 191.743 130.698 193.07L131.385 198.591Z" fill="black"/>
<path d="M178.555 209.648C178.169 210.686 177.24 211.673 175.577 212.551C174.651 213.031 173.684 213.427 172.687 213.733C168.886 214.93 166.309 216.233 164.584 217.516C164.481 217.593 164.389 217.664 164.289 217.738H106.789C106.744 217.649 106.7 217.578 106.668 217.516C106.582 217.368 106.529 217.294 106.529 217.294C99.7971 217.085 95.9549 215.273 93.7788 213.425C91.3549 211.377 90.9863 209.288 90.9863 209.288C90.9863 209.225 91.0099 209.157 91.0217 209.095C93.7965 194.22 112.745 192.694 125.227 193.356C126.465 193.424 127.639 193.507 128.727 193.605L129.402 193.667L130.791 193.815L131.381 193.883C132.074 193.962 132.705 194.048 133.268 194.128C133.584 194.169 133.858 194.214 134.153 194.249C135.147 194.4 135.831 194.521 136.126 194.574L136.291 194.607C136.496 194.444 136.712 194.297 136.939 194.166C137.223 194.002 137.519 193.858 137.824 193.738C137.954 193.685 138.086 193.64 138.219 193.596C139.405 193.218 140.635 193.001 141.879 192.952C142.282 192.925 142.695 192.91 143.123 192.907C143.651 192.907 144.196 192.907 144.756 192.931C145.317 192.955 145.818 192.984 146.364 193.028C146.461 193.028 146.558 193.028 146.658 193.052C149.083 193.278 151.493 193.633 153.88 194.116C156.436 194.619 158.937 195.219 161.148 195.804C165.781 197.027 169.151 198.168 169.151 198.168C169.151 198.168 180.483 204.493 178.555 209.648Z" fill="#B247A7"/>
<path d="M138.427 91.1861C145.077 89.4933 149.587 84.6439 148.5 80.3547C147.414 76.0655 141.142 73.9608 134.492 75.6536C127.842 77.3464 123.332 82.1958 124.419 86.485C125.506 90.7742 131.778 92.8789 138.427 91.1861Z" fill="#FF8000"/>
<path d="M145.889 78.0381C145.889 78.0381 163.688 67.8676 172.298 76.0282C172.298 76.0282 164.522 91.0667 145.332 83.3878L145.889 78.0381Z" fill="#9347B2"/>
<path opacity="0.05" d="M143.085 78.0771C143.085 78.0771 153.753 60.5441 165.227 63.5116C165.227 63.5116 165.678 80.4417 145.176 83.019L143.085 78.0771Z" fill="black"/>
<path d="M144.482 82.333L144.187 81.6354L142.389 77.3822C142.389 77.3822 147.045 69.7182 153.532 65.3852C156.852 63.1596 160.647 61.8088 164.534 62.8167C164.531 62.8167 164.985 79.7468 144.482 82.333Z" fill="#B247A7"/>
<path opacity="0.05" d="M153.531 65.3853C153.277 70.1882 151.095 76.0109 144.222 81.6591L144.189 81.6384L142.391 77.3852C142.391 77.3852 147.044 69.7183 153.531 65.3853Z" fill="black"/>
<path d="M143.524 81.6562L142.533 80.9616L139.122 78.5823C139.122 78.5823 139.001 69.7153 142.126 62.5981C143.754 58.8946 146.255 55.673 150.129 54.4375C150.129 54.4375 159.506 68.5272 143.524 81.6562Z" fill="#9347B2"/>
<path opacity="0.05" d="M142.666 80.9705H142.533L139.122 78.5912C139.122 78.5912 139.001 69.7242 142.126 62.6069C144.323 66.7922 145.411 72.7744 142.666 80.9705Z" fill="black"/>
<path d="M136.607 80.7107C136.607 80.7107 125.485 63.4644 133.134 54.4053C133.134 54.4053 148.547 61.3511 141.98 80.9826L136.607 80.7107Z" fill="#FF8000"/>
<path opacity="0.05" d="M133.954 81.6413C133.954 81.6413 118.067 68.6718 122.569 57.6797C122.569 57.6797 139.377 59.524 139.144 80.2344L133.954 81.6413Z" fill="black"/>
<path d="M133.26 81.6413C133.26 81.6413 117.375 68.6689 121.863 57.6797C121.863 57.6797 138.671 59.524 138.438 80.2344L133.26 81.6413Z" fill="#9347B2"/>
<path opacity="0.05" d="M131.47 83.8725C131.47 83.8725 111.572 78.972 110.932 67.1139C110.932 67.1139 126.899 61.569 135.548 80.3789L131.47 83.8725Z" fill="black"/>
<path d="M131.122 84.5673C131.122 84.5673 111.224 79.6668 110.584 67.8087C110.584 67.8087 126.551 62.2639 135.2 81.0737L131.122 84.5673Z" fill="#FF8000"/>
<path opacity="0.05" d="M130.09 87.9661C130.09 87.9661 109.988 91.9415 104.412 81.4637C104.412 81.4637 116.552 69.6824 132.313 83.0716L130.09 87.9661Z" fill="black"/>
<path d="M129.74 88.6527C129.74 88.6527 109.639 92.6281 104.062 82.1502C104.062 82.1502 116.202 70.3689 131.963 83.7581L129.74 88.6527Z" fill="#9347B2"/>
<path opacity="0.05" d="M133.026 87.278C133.026 87.278 118.377 101.637 107.985 95.9262C107.985 95.9262 111.71 79.4041 132.212 81.9607L133.026 87.278Z" fill="black"/>
<path d="M133.721 87.9659C133.721 87.9659 119.072 102.325 108.681 96.6142C108.681 96.6142 112.405 80.092 132.907 82.6487L133.721 87.9659Z" fill="#FF8000"/>
<path opacity="0.05" d="M132.501 85.6845C132.501 85.6845 134.919 106.079 124.067 110.849C124.067 110.849 113.275 97.8145 127.803 83.0864L132.501 85.6845Z" fill="black"/>
<path d="M133.543 86.0311C133.543 86.0311 135.961 106.425 125.109 111.196C125.109 111.196 114.317 98.1612 128.845 83.4331L133.543 86.0311Z" fill="#9347B2"/>
<path opacity="0.05" d="M140.32 87.0971C140.32 87.0971 142.738 107.491 131.887 112.262C131.887 112.262 121.094 99.2271 135.623 84.499L140.32 87.0971Z" fill="black"/>
<path d="M141.017 87.0971C141.017 87.0971 143.435 107.491 132.584 112.262C132.584 112.262 121.792 99.2271 136.32 84.499L141.017 87.0971Z" fill="#FF8000"/>
<path opacity="0.05" d="M138.449 87.5088C138.449 87.5088 155.354 99.1098 151.792 110.43C151.792 110.43 134.898 109.99 133.403 89.3324L138.449 87.5088Z" fill="black"/>
<path d="M139.142 87.5088C139.142 87.5088 156.05 99.1098 152.488 110.43C152.488 110.43 135.595 109.99 134.1 89.3324L139.142 87.5088Z" fill="#9347B2"/>
<path opacity="0.05" d="M143.063 84.8101C143.063 84.8101 163.954 89.8642 166.293 103.632C166.293 103.632 150.877 110.592 139.421 89.0041L143.063 84.8101Z" fill="black"/>
<path d="M143.759 84.4609C143.759 84.4609 164.651 89.5151 166.989 103.283C166.989 103.283 151.573 110.243 140.117 88.655L143.759 84.4609Z" fill="#FF8000"/>
<path d="M136.607 80.7107C136.607 80.7107 125.485 63.4644 133.134 54.4053C133.134 54.4053 148.547 61.3511 141.98 80.9826L136.607 80.7107Z" fill="#FF8000"/>
<path d="M136.607 80.7107C136.607 80.7107 125.485 63.4644 133.134 54.4053C133.134 54.4053 148.547 61.3511 141.98 80.9826L136.607 80.7107Z" fill="#B247A7"/>
<path d="M131.122 84.5673C131.122 84.5673 111.224 79.6668 110.584 67.8087C110.584 67.8087 126.551 62.2639 135.2 81.0737L131.122 84.5673Z" fill="#FF8000"/>
<path d="M131.122 84.5673C131.122 84.5673 111.224 79.6668 110.584 67.8087C110.584 67.8087 126.551 62.2639 135.2 81.0737L131.122 84.5673Z" fill="#B247A7"/>
<path d="M133.721 87.9659C133.721 87.9659 119.072 102.325 108.681 96.6142C108.681 96.6142 112.405 80.092 132.907 82.6487L133.721 87.9659Z" fill="#FF8000"/>
<path d="M133.721 87.9659C133.721 87.9659 119.072 102.325 108.681 96.6142C108.681 96.6142 112.405 80.092 132.907 82.6487L133.721 87.9659Z" fill="#B247A7"/>
<path d="M141.017 87.0971C141.017 87.0971 143.435 107.491 132.584 112.262C132.584 112.262 121.792 99.2271 136.32 84.499L141.017 87.0971Z" fill="#FF8000"/>
<path d="M141.017 87.0971C141.017 87.0971 143.435 107.491 132.584 112.262C132.584 112.262 121.792 99.2271 136.32 84.499L141.017 87.0971Z" fill="#B247A7"/>
<path d="M143.759 84.4609C143.759 84.4609 164.651 89.5151 166.989 103.283C166.989 103.283 151.573 110.243 140.117 88.655L143.759 84.4609Z" fill="#FF8000"/>
<path d="M143.759 84.4609C143.759 84.4609 164.651 89.5151 166.989 103.283C166.989 103.283 151.573 110.243 140.117 88.655L143.759 84.4609Z" fill="#B247A7"/>
<path opacity="0.05" d="M145.761 81.4995C145.761 81.4995 167.236 82.2857 172.264 95.3114C172.264 95.3114 158.541 105.21 143.027 86.3379L145.761 81.4995Z" fill="black"/>
<path opacity="0.05" d="M146.108 79.7583C146.108 79.7583 167.584 80.5445 172.612 93.5701C172.612 93.5701 158.888 103.469 143.375 84.5967L146.108 79.7583Z" fill="black"/>
<path d="M146.108 80.8047C146.108 80.8047 167.584 81.5909 172.612 94.6165C172.612 94.6165 158.888 104.515 143.375 85.6431L146.108 80.8047Z" fill="#9347B2"/>
<path d="M151.426 86.3675C150.82 88.7982 149.508 90.9941 147.657 92.6777C145.806 94.3612 143.498 95.4569 141.026 95.8261C138.553 96.1953 136.027 95.8215 133.767 94.752C131.506 93.6825 129.613 91.9652 128.326 89.8172C127.039 87.6693 126.416 85.1871 126.536 82.6845C126.656 80.1818 127.514 77.7711 129.001 75.7569C130.487 73.7428 132.537 72.2157 134.889 71.3686C137.242 70.5216 139.792 70.3926 142.217 70.9981C143.829 71.4008 145.346 72.1178 146.681 73.1082C148.016 74.0987 149.143 75.3431 149.999 76.7704C150.854 78.1977 151.42 79.7799 151.665 81.4266C151.91 83.0733 151.829 84.7522 151.426 86.3675Z" fill="#9347B2"/>
<path d="M62.6442 39.9571C69.2942 38.2643 73.804 33.4149 72.7173 29.1257C71.6305 24.8365 65.3587 22.7318 58.7087 24.4246C52.0588 26.1174 47.549 30.9668 48.6357 35.256C49.7225 39.5452 55.9943 41.65 62.6442 39.9571Z" fill="#FF8000"/>
<path d="M70.1042 26.8169C70.1042 26.8169 87.9027 16.6465 96.513 24.807C96.513 24.807 88.7372 39.8455 69.5469 32.1667L70.1042 26.8169Z" fill="#9347B2"/>
<path opacity="0.05" d="M67.2988 26.8525C67.2988 26.8525 77.9673 9.31951 89.4408 12.287C89.4408 12.287 89.892 29.2171 69.3895 31.7944L67.2988 26.8525Z" fill="black"/>
<path d="M68.6952 31.1084L68.4003 30.4108L66.6016 26.1576C66.6016 26.1576 71.2606 18.5084 77.7478 14.1606C81.068 11.935 84.863 10.5842 88.7495 11.5921C88.7436 11.5921 89.1977 28.5251 68.6952 31.1084Z" fill="#B247A7"/>
<path opacity="0.05" d="M77.7477 14.1606C77.4942 18.9636 75.3121 24.7863 68.4386 30.4345L68.4062 30.4139L66.6074 26.1606C66.6074 26.1606 71.2605 18.5084 77.7477 14.1606Z" fill="black"/>
<path d="M67.7223 30.4345L66.7463 29.74L63.3346 27.3606C63.3346 27.3606 63.2137 18.4937 66.3394 11.3764C67.9671 7.67296 70.4676 4.45129 74.3422 3.21582C74.3422 3.21582 83.7192 17.3025 67.7223 30.4345Z" fill="#9347B2"/>
<path opacity="0.05" d="M66.879 29.7395H66.7463L63.3346 27.3602C63.3346 27.3602 63.2137 18.4932 66.3394 11.376C68.5362 15.5671 69.6243 21.5523 66.879 29.7395Z" fill="black"/>
<path d="M60.824 29.4856C60.824 29.4856 49.7014 12.2393 57.3504 3.18018C57.3504 3.18018 72.7634 10.126 66.1966 29.7575L60.824 29.4856Z" fill="#FF8000"/>
<path opacity="0.05" d="M58.1694 30.4196C58.1694 30.4196 42.2846 17.4472 46.7725 6.45801C46.7725 6.45801 63.5803 8.30234 63.3473 29.0127L58.1694 30.4196Z" fill="black"/>
<path d="M57.4741 30.4196C57.4741 30.4196 41.5893 17.4472 46.0772 6.45801C46.0772 6.45801 62.885 8.30234 62.652 29.0127L57.4741 30.4196Z" fill="#9347B2"/>
<path opacity="0.05" d="M55.6825 32.6483C55.6825 32.6483 35.7844 27.7479 35.1445 15.8897C35.1445 15.8897 51.1119 10.3449 59.7605 29.1548L55.6825 32.6483Z" fill="black"/>
<path d="M55.3387 33.3466C55.3387 33.3466 35.4407 28.4461 34.8008 16.588C34.8008 16.588 50.7682 11.0431 59.4168 29.853L55.3387 33.3466Z" fill="#FF8000"/>
<path opacity="0.05" d="M54.3055 36.7298C54.3055 36.7298 34.204 40.7052 28.6279 30.2274C28.6279 30.2274 40.7679 18.4461 56.5288 31.8352L54.3055 36.7298Z" fill="black"/>
<path d="M53.9569 37.4246C53.9569 37.4246 33.8553 41.4 28.2793 30.9222C28.2793 30.9222 40.4192 19.1409 56.1802 32.5301L53.9569 37.4246Z" fill="#9347B2"/>
<path opacity="0.05" d="M57.2408 36.0529C57.2408 36.0529 42.5915 50.4115 32.2002 44.7011C32.2002 44.7011 35.9244 28.179 56.427 30.7356L57.2408 36.0529Z" fill="black"/>
<path d="M57.9381 36.7506C57.9381 36.7506 43.2888 51.1092 32.8975 45.4047C32.8975 45.4047 36.6217 28.8826 57.1242 31.4392L57.9381 36.7506Z" fill="#FF8000"/>
<path opacity="0.05" d="M56.7166 34.4691C56.7166 34.4691 59.1346 54.8632 48.2832 59.6336C48.2832 59.6336 37.4909 46.5992 52.0193 31.8711L56.7166 34.4691Z" fill="black"/>
<path d="M57.7557 34.809C57.7557 34.809 60.1736 55.2031 49.3223 59.9735C49.3223 59.9735 38.5299 46.939 53.0583 32.2109L57.7557 34.809Z" fill="#9347B2"/>
<path opacity="0.05" d="M64.5369 35.8724C64.5369 35.8724 66.9549 56.2665 56.1035 61.037C56.1035 61.037 45.3112 48.0025 59.8396 33.2744L64.5369 35.8724Z" fill="black"/>
<path d="M65.2332 35.8724C65.2332 35.8724 67.6512 56.2665 56.7998 61.037C56.7998 61.037 46.0075 48.0025 60.5359 33.2744L65.2332 35.8724Z" fill="#FF8000"/>
<path opacity="0.05" d="M62.6644 36.2837C62.6644 36.2837 79.5695 47.8876 76.0074 59.2137C76.0074 59.2137 59.1141 58.7733 57.6191 38.1162L62.6644 36.2837Z" fill="black"/>
<path d="M63.3558 36.2837C63.3558 36.2837 80.2609 47.8876 76.6988 59.2137C76.6988 59.2137 59.8056 58.7733 58.3105 38.1162L63.3558 36.2837Z" fill="#9347B2"/>
<path opacity="0.05" d="M67.2784 33.5825C67.2784 33.5825 88.1701 38.6367 90.5085 52.4042C90.5085 52.4042 75.0925 59.3648 63.6367 37.7766L67.2784 33.5825Z" fill="black"/>
<path d="M67.9757 33.2393C67.9757 33.2393 88.8674 38.2934 91.2058 52.0609C91.2058 52.0609 75.7898 59.0215 64.334 37.4333L67.9757 33.2393Z" fill="#FF8000"/>
<path d="M60.824 29.4856C60.824 29.4856 49.7014 12.2393 57.3504 3.18018C57.3504 3.18018 72.7634 10.126 66.1966 29.7575L60.824 29.4856Z" fill="#FF8000"/>
<path d="M60.824 29.4856C60.824 29.4856 49.7014 12.2393 57.3504 3.18018C57.3504 3.18018 72.7634 10.126 66.1966 29.7575L60.824 29.4856Z" fill="#B247A7"/>
<path d="M55.3387 33.3466C55.3387 33.3466 35.4407 28.4461 34.8008 16.588C34.8008 16.588 50.7682 11.0431 59.4168 29.853L55.3387 33.3466Z" fill="#FF8000"/>
<path d="M55.3387 33.3466C55.3387 33.3466 35.4407 28.4461 34.8008 16.588C34.8008 16.588 50.7682 11.0431 59.4168 29.853L55.3387 33.3466Z" fill="#B247A7"/>
<path d="M57.9381 36.7506C57.9381 36.7506 43.2888 51.1092 32.8975 45.4047C32.8975 45.4047 36.6217 28.8826 57.1242 31.4392L57.9381 36.7506Z" fill="#FF8000"/>
<path d="M57.9381 36.7506C57.9381 36.7506 43.2888 51.1092 32.8975 45.4047C32.8975 45.4047 36.6217 28.8826 57.1242 31.4392L57.9381 36.7506Z" fill="#B247A7"/>
<path d="M65.2332 35.8724C65.2332 35.8724 67.6512 56.2665 56.7998 61.037C56.7998 61.037 46.0075 48.0025 60.5359 33.2744L65.2332 35.8724Z" fill="#FF8000"/>
<path d="M65.2332 35.8724C65.2332 35.8724 67.6512 56.2665 56.7998 61.037C56.7998 61.037 46.0075 48.0025 60.5359 33.2744L65.2332 35.8724Z" fill="#B247A7"/>
<path d="M67.9757 33.2393C67.9757 33.2393 88.8674 38.2934 91.2058 52.0609C91.2058 52.0609 75.7898 59.0215 64.334 37.4333L67.9757 33.2393Z" fill="#FF8000"/>
<path d="M67.9757 33.2393C67.9757 33.2393 88.8674 38.2934 91.2058 52.0609C91.2058 52.0609 75.7898 59.0215 64.334 37.4333L67.9757 33.2393Z" fill="#B247A7"/>
<path opacity="0.05" d="M69.9766 30.2778C69.9766 30.2778 91.4522 31.064 96.4798 44.0897C96.4798 44.0897 82.7564 53.9882 67.2432 35.1163L69.9766 30.2778Z" fill="black"/>
<path opacity="0.05" d="M70.3253 28.5342C70.3253 28.5342 91.8009 29.3204 96.8285 42.346C96.8285 42.346 83.1051 52.2445 67.5918 33.3726L70.3253 28.5342Z" fill="black"/>
<path d="M70.3253 29.5801C70.3253 29.5801 91.8009 30.3663 96.8285 43.3919C96.8285 43.3919 83.1051 53.2904 67.5918 34.4185L70.3253 29.5801Z" fill="#9347B2"/>
<path d="M75.6421 35.1429C75.0357 37.5736 73.7239 39.7695 71.8726 41.4531C70.0214 43.1367 67.7137 44.2323 65.2413 44.6015C62.7689 44.9707 60.2429 44.5969 57.9824 43.5274C55.7219 42.4578 53.8285 40.7406 52.5415 38.5926C51.2546 36.4447 50.6318 33.9625 50.7519 31.4599C50.8721 28.9572 51.7297 26.5465 53.2165 24.5323C54.7033 22.5182 56.7524 20.9911 59.1049 20.144C61.4574 19.297 64.0076 19.168 66.4332 19.7735C68.0449 20.1761 69.5616 20.8932 70.8968 21.8836C72.2319 22.8741 73.3593 24.1185 74.2145 25.5458C75.0696 26.9731 75.6359 28.5553 75.8809 30.202C76.1258 31.8487 76.0447 33.5276 75.6421 35.1429Z" fill="#9347B2"/>
<path d="M137.836 85.5046L134.354 81.418L135.316 91.1331L143.204 85.3809L137.836 85.5046Z" fill="#FFFBF7"/>
<path d="M143.425 83.5966L142.549 74.9815L135.53 80.0711L140.317 79.9659L143.425 83.5966Z" fill="#FFFBF7"/>
<path d="M135.475 81.113L138.316 84.4354L142.694 84.3418L139.847 81.0168L135.475 81.113Z" fill="#FFFBF7"/>
<path d="M68.949 30.2725C69.1997 28.5848 67.9199 27.6804 66.1684 27.0745L66.7375 24.7898L65.3486 24.444L64.7943 26.6696C64.4286 26.5779 64.0541 26.4922 63.6826 26.4065L64.2399 24.1661L62.854 23.8203L62.2849 26.105C61.99 26.0371 61.6952 25.9691 61.4003 25.8952L59.4866 25.4164L59.118 26.8942C59.118 26.8942 60.1471 27.1307 60.1264 27.1454C60.3186 27.1685 60.494 27.2663 60.6148 27.4178C60.7356 27.5693 60.7922 27.7624 60.7722 27.9553L60.1235 30.5592C60.1727 30.5718 60.2209 30.5876 60.268 30.6065L60.1205 30.571L59.2123 34.2183C59.1926 34.2822 59.1603 34.3415 59.1175 34.3929C59.0747 34.4442 59.0221 34.4864 58.9629 34.5172C58.9036 34.548 58.8389 34.5667 58.7724 34.5722C58.7058 34.5778 58.6389 34.57 58.5754 34.5494C58.5754 34.5701 57.567 34.2981 57.567 34.2981L56.877 35.8912L58.6816 36.3435L59.6694 36.6006L59.1003 38.9031L60.4862 39.2489L61.0553 36.9612C61.4327 37.0646 61.8013 37.1592 62.1611 37.2568L61.5949 39.5326L62.9838 39.8784L63.5588 37.573C65.9177 38.0223 67.7047 37.842 68.4536 35.6962C69.0434 33.9701 68.4242 32.974 67.1798 32.3238C68.0821 32.105 68.7662 31.5139 68.949 30.2725ZM65.7762 34.7297C65.3486 36.4558 62.4471 35.5218 61.5065 35.2883L62.2672 32.2262C63.2079 32.4627 66.2244 32.9267 65.7762 34.7297ZM66.2067 30.2489C65.8145 31.8213 63.3995 31.0203 62.6181 30.84L63.3081 28.0617C64.0925 28.242 66.6136 28.6085 66.2067 30.2459V30.2489Z" fill="white"/>
<path d="M212.204 57.4514C217.436 53.0024 219.362 46.6602 216.506 43.2856C213.649 39.911 207.093 40.782 201.861 45.231C196.629 49.68 194.703 56.0223 197.559 59.3968C200.415 62.7714 206.972 61.9004 212.204 57.4514Z" fill="#FF8000"/>
<path d="M213.154 42.3845C213.154 42.3845 224.69 25.4101 235.998 28.9539C235.998 28.9539 235.6 45.8869 214.997 47.4357L213.154 42.3845Z" fill="#B247A7"/>
<path opacity="0.05" d="M210.653 43.6523C210.653 43.6523 212.555 23.2021 224.164 20.8198C224.164 20.8198 231.987 35.8316 214.705 47.1784L210.653 43.6523Z" fill="black"/>
<path d="M213.778 46.862L213.206 46.3655L209.727 43.3359C209.727 43.3359 210.561 34.398 214.477 27.6532C216.485 24.1921 219.304 21.3074 223.238 20.5034C223.238 20.5005 231.061 35.5123 213.778 46.862Z" fill="#9347B2"/>
<path opacity="0.05" d="M214.477 27.6533C216.352 32.0868 216.942 38.2701 213.244 46.3716H213.206L209.727 43.3361C209.727 43.3361 210.561 34.3952 214.477 27.6533Z" fill="black"/>
<path d="M212.62 46.676L211.441 46.4898L207.333 45.8543C207.333 45.8543 203.334 37.9302 203.028 30.1716C202.866 26.1282 203.712 22.1292 206.643 19.3184C206.628 19.3154 221.225 27.8455 212.62 46.676Z" fill="#B247A7"/>
<path opacity="0.05" d="M211.545 46.4364L211.424 46.4896L207.317 45.8541C207.317 45.8541 203.318 37.93 203.012 30.1714C206.821 32.9704 210.422 37.865 211.545 46.4364Z" fill="black"/>
<path d="M205.993 48.8691C205.993 48.8691 188.442 38.2701 191.341 26.7548C191.341 26.7548 208.231 26.208 210.92 46.744L205.993 48.8691Z" fill="#FF8000"/>
<path opacity="0.05" d="M204.015 50.8758C204.015 50.8758 184.061 46.2177 183.276 34.3655C183.276 34.3655 199.176 28.6285 208.046 47.332L204.015 50.8758Z" fill="black"/>
<path d="M203.39 51.18C203.39 51.18 183.436 46.5219 182.651 34.6697C182.651 34.6697 198.551 28.9327 207.421 47.6362L203.39 51.18Z" fill="#B247A7"/>
<path opacity="0.05" d="M202.758 53.9764C202.758 53.9764 182.737 58.333 176.963 47.9616C176.963 47.9616 188.879 35.9527 204.89 49.0404L202.758 53.9764Z" fill="black"/>
<path d="M202.753 54.7508C202.753 54.7508 182.731 59.1075 176.957 48.736C176.957 48.736 188.873 36.7271 204.884 49.8148L202.753 54.7508Z" fill="#FF8000"/>
<path opacity="0.05" d="M203.307 58.2475C203.307 58.2475 186.992 70.6612 177.391 63.7095C177.391 63.7095 183.135 47.7815 203.162 52.8711L203.307 58.2475Z" fill="black"/>
<path d="M203.301 59.0277C203.301 59.0277 186.986 71.4415 177.385 64.4898C177.385 64.4898 183.129 48.5617 203.157 53.6514L203.301 59.0277Z" fill="#B247A7"/>
<path opacity="0.05" d="M205.649 56.3411C205.649 56.3411 198.778 75.6889 186.942 75.1332C186.942 75.1332 183.05 58.6524 202.591 51.9224L205.649 56.3411Z" fill="black"/>
<path d="M206.579 56.6658C206.579 56.6658 199.709 76.0136 187.873 75.4579C187.873 75.4579 183.98 58.9771 203.522 52.2471L206.579 56.6658Z" fill="#FF8000"/>
<path opacity="0.05" d="M204.479 55.1587C204.479 55.1587 215.587 72.4168 207.929 81.4641C207.929 81.4641 192.522 74.5065 199.121 54.8779L204.479 55.1587Z" fill="black"/>
<path d="M205.569 54.9986C205.569 54.9986 216.676 72.2567 209.019 81.304C209.019 81.304 193.612 74.3463 200.211 54.7178L205.569 54.9986Z" fill="#B247A7"/>
<path opacity="0.05" d="M212.126 52.9717C212.126 52.9717 223.234 70.2298 215.576 79.2771C215.576 79.2771 200.169 72.3195 206.768 52.6909L212.126 52.9717Z" fill="black"/>
<path d="M212.748 52.667C212.748 52.667 223.856 69.9252 216.198 78.9725C216.198 78.9725 200.791 72.0148 207.39 52.3862L212.748 52.667Z" fill="#FF8000"/>
<path opacity="0.05" d="M210.622 54.166C210.622 54.166 230.894 57.1483 232.658 68.8912C232.658 68.8912 217.289 75.9316 206.895 58.032L210.622 54.166Z" fill="black"/>
<path d="M211.244 53.8608C211.244 53.8608 231.516 56.8431 233.28 68.586C233.28 68.586 217.911 75.6264 207.517 57.7269L211.244 53.8608Z" fill="#B247A7"/>
<path opacity="0.05" d="M213.586 49.7116C213.586 49.7116 234.57 45.0564 242.702 56.3943C242.702 56.3943 231.904 69.4347 212.153 55.082L213.586 49.7116Z" fill="black"/>
<path d="M214.056 49.0939C214.056 49.0939 235.039 44.4387 243.172 55.7767C243.172 55.7767 232.374 68.8171 212.623 54.4644L214.056 49.0939Z" fill="#FF8000"/>
<path d="M205.993 48.8691C205.993 48.8691 188.442 38.2701 191.341 26.7548C191.341 26.7548 208.231 26.208 210.92 46.744L205.993 48.8691Z" fill="#FF8000"/>
<path d="M205.993 48.8691C205.993 48.8691 188.442 38.2701 191.341 26.7548C191.341 26.7548 208.231 26.208 210.92 46.744L205.993 48.8691Z" fill="#9347B2"/>
<path d="M202.753 54.7508C202.753 54.7508 182.731 59.1075 176.957 48.736C176.957 48.736 188.873 36.7271 204.884 49.8148L202.753 54.7508Z" fill="#FF8000"/>
<path d="M202.753 54.7508C202.753 54.7508 182.731 59.1075 176.957 48.736C176.957 48.736 188.873 36.7271 204.884 49.8148L202.753 54.7508Z" fill="#9347B2"/>
<path d="M206.579 56.6658C206.579 56.6658 199.709 76.0136 187.873 75.4579C187.873 75.4579 183.98 58.9771 203.522 52.2471L206.579 56.6658Z" fill="#FF8000"/>
<path d="M206.579 56.6658C206.579 56.6658 199.709 76.0136 187.873 75.4579C187.873 75.4579 183.98 58.9771 203.522 52.2471L206.579 56.6658Z" fill="#9347B2"/>
<path d="M212.748 52.667C212.748 52.667 223.856 69.9252 216.198 78.9725C216.198 78.9725 200.791 72.0148 207.39 52.3862L212.748 52.667Z" fill="#FF8000"/>
<path d="M212.748 52.667C212.748 52.667 223.856 69.9252 216.198 78.9725C216.198 78.9725 200.791 72.0148 207.39 52.3862L212.748 52.667Z" fill="#9347B2"/>
<path d="M214.056 49.0939C214.056 49.0939 235.039 44.4387 243.172 55.7767C243.172 55.7767 232.374 68.8171 212.623 54.4644L214.056 49.0939Z" fill="#FF8000"/>
<path d="M214.056 49.0939C214.056 49.0939 235.039 44.4387 243.172 55.7767C243.172 55.7767 232.374 68.8171 212.623 54.4644L214.056 49.0939Z" fill="#9347B2"/>
<path opacity="0.05" d="M214.569 45.5496C214.569 45.5496 234.207 36.8008 244.43 46.2914C244.43 46.2914 236.436 61.2234 214.232 51.1003L214.569 45.5496Z" fill="black"/>
<path opacity="0.05" d="M214.106 43.8323C214.106 43.8323 233.744 35.0835 243.967 44.5742C243.967 44.5742 235.973 59.5062 213.77 49.383L214.106 43.8323Z" fill="black"/>
<path d="M214.569 44.7722C214.569 44.7722 234.207 36.0235 244.43 45.5141C244.43 45.5141 236.436 60.4461 214.232 50.323L214.569 44.7722Z" fill="#B247A7"/>
<path d="M221.778 47.4294C222.298 49.8801 222.082 52.4305 221.157 54.758C220.231 57.0856 218.638 59.0859 216.578 60.506C214.519 61.9262 212.086 62.7024 209.586 62.7366C207.087 62.7708 204.633 62.0615 202.536 60.6982C200.438 59.335 198.791 57.379 197.803 55.0777C196.814 52.7763 196.529 50.2328 196.982 47.7687C197.435 45.3047 198.608 43.0307 200.35 41.2342C202.093 39.4377 204.327 38.1993 206.772 37.6757C208.396 37.3282 210.073 37.3048 211.706 37.6069C213.339 37.9091 214.897 38.5308 216.291 39.4365C217.684 40.3423 218.886 41.5144 219.828 42.8858C220.769 44.2573 221.432 45.8012 221.778 47.4294Z" fill="#B247A7"/>
<path d="M199.928 113.28C205.23 108.915 207.256 102.604 204.454 99.1845C201.652 95.7648 195.082 96.5313 189.78 100.896C184.479 105.262 182.452 111.572 185.255 114.992C188.057 118.412 194.627 117.645 199.928 113.28Z" fill="#FF8000"/>
<path d="M201.108 98.1956C201.108 98.1956 212.903 81.4045 224.162 85.1257C224.162 85.1257 223.498 102.05 202.872 103.273L201.108 98.1956Z" fill="#B247A7"/>
<path opacity="0.05" d="M198.584 99.4253C198.584 99.4253 200.807 79.0076 212.443 76.8086C212.443 76.8086 220.03 91.9416 202.571 103.016L198.584 99.4253Z" fill="black"/>
<path d="M201.655 102.682L201.091 102.177L197.659 99.0914C197.659 99.0914 198.632 90.1682 202.654 83.4854C204.718 80.0569 207.579 77.2165 211.524 76.4746C211.527 76.4746 219.114 91.6076 201.655 102.682Z" fill="#9347B2"/>
<path opacity="0.05" d="M202.657 83.4858C204.465 87.94 204.957 94.141 201.13 102.183H201.091L197.659 99.0977C197.659 99.0977 198.647 90.1686 202.657 83.4858Z" fill="black"/>
<path d="M200.501 102.479L199.321 102.272L195.214 101.562C195.214 101.562 191.339 93.5821 191.156 85.8146C191.059 81.7683 191.964 77.7841 194.94 75.0176C194.94 75.0264 209.4 83.787 200.501 102.479Z" fill="#B247A7"/>
<path opacity="0.05" d="M199.432 102.224L199.308 102.275L195.213 101.562C195.213 101.562 191.338 93.5819 191.155 85.8145C194.921 88.6814 198.444 93.6351 199.432 102.224Z" fill="black"/>
<path d="M193.841 104.568C193.841 104.568 176.458 93.6943 179.536 82.2263C179.536 82.2263 196.433 81.9484 198.8 102.52L193.841 104.568Z" fill="#FF8000"/>
<path opacity="0.05" d="M191.831 106.543C191.831 106.543 171.951 101.568 171.355 89.6955C171.355 89.6955 187.344 84.2098 195.921 103.052L191.831 106.543Z" fill="black"/>
<path d="M191.202 106.839C191.202 106.839 171.321 101.864 170.726 89.9914C170.726 89.9914 186.714 84.5057 195.292 103.348L191.202 106.839Z" fill="#B247A7"/>
<path opacity="0.05" d="M190.526 109.62C190.526 109.62 170.437 113.66 164.828 103.197C164.828 103.197 176.918 91.3745 192.735 104.719L190.526 109.62Z" fill="black"/>
<path d="M190.505 110.397C190.505 110.397 170.415 114.438 164.807 103.975C164.807 103.975 176.896 92.1519 192.713 105.497L190.505 110.397Z" fill="#FF8000"/>
<path opacity="0.05" d="M191.012 113.903C191.012 113.903 174.499 126.065 165.013 118.954C165.013 118.954 171.005 103.117 190.962 108.523L191.012 113.903Z" fill="black"/>
<path d="M190.98 114.683C190.98 114.683 174.468 126.845 164.981 119.734C164.981 119.734 170.973 103.898 190.93 109.303L190.98 114.683Z" fill="#B247A7"/>
<path opacity="0.05" d="M193.382 112.037C193.382 112.037 186.207 131.276 174.383 130.528C174.383 130.528 170.75 113.976 190.395 107.565L193.382 112.037Z" fill="black"/>
<path d="M194.303 112.372C194.303 112.372 187.128 131.61 175.304 130.865C175.304 130.865 171.671 114.314 191.316 107.903L194.303 112.372Z" fill="#FF8000"/>
<path opacity="0.05" d="M192.229 110.82C192.229 110.82 203.065 128.258 195.266 137.19C195.266 137.19 179.971 129.99 186.877 110.468L192.229 110.82Z" fill="black"/>
<path d="M193.321 110.69C193.321 110.69 204.158 128.128 196.359 137.06C196.359 137.06 181.064 129.86 187.969 110.338L193.321 110.69Z" fill="#B247A7"/>
<path opacity="0.05" d="M199.909 108.766C199.909 108.766 210.746 126.204 202.947 135.136C202.947 135.136 187.651 127.936 194.557 108.414L199.909 108.766Z" fill="black"/>
<path d="M200.538 108.47C200.538 108.47 211.375 125.908 203.575 134.84C203.575 134.84 188.28 127.64 195.186 108.118L200.538 108.47Z" fill="#FF8000"/>
<path opacity="0.05" d="M198.385 109.936C198.385 109.936 218.607 113.238 220.185 125.01C220.185 125.01 204.707 131.808 194.596 113.746L198.385 109.936Z" fill="black"/>
<path d="M199.016 109.64C199.016 109.64 219.238 112.942 220.816 124.714C220.816 124.714 205.338 131.512 195.227 113.45L199.016 109.64Z" fill="#B247A7"/>
<path opacity="0.05" d="M201.419 105.529C201.419 105.529 222.473 101.205 230.429 112.67C230.429 112.67 219.427 125.539 199.903 110.876L201.419 105.529Z" fill="black"/>
<path d="M201.89 104.917C201.89 104.917 222.944 100.593 230.899 112.058C230.899 112.058 219.898 124.927 200.374 110.264L201.89 104.917Z" fill="#FF8000"/>
<path d="M193.841 104.568C193.841 104.568 176.458 93.6943 179.536 82.2263C179.536 82.2263 196.433 81.9484 198.8 102.52L193.841 104.568Z" fill="#FF8000"/>
<path d="M193.841 104.568C193.841 104.568 176.458 93.6943 179.536 82.2263C179.536 82.2263 196.433 81.9484 198.8 102.52L193.841 104.568Z" fill="#9347B2"/>
<path d="M190.505 110.397C190.505 110.397 170.415 114.438 164.807 103.975C164.807 103.975 176.896 92.1519 192.713 105.497L190.505 110.397Z" fill="#FF8000"/>
<path d="M190.505 110.397C190.505 110.397 170.415 114.438 164.807 103.975C164.807 103.975 176.896 92.1519 192.713 105.497L190.505 110.397Z" fill="#9347B2"/>
<path d="M194.303 112.372C194.303 112.372 187.128 131.61 175.304 130.865C175.304 130.865 171.671 114.314 191.316 107.903L194.303 112.372Z" fill="#FF8000"/>
<path d="M194.303 112.372C194.303 112.372 187.128 131.61 175.304 130.865C175.304 130.865 171.671 114.314 191.316 107.903L194.303 112.372Z" fill="#9347B2"/>
<path d="M200.538 108.47C200.538 108.47 211.375 125.908 203.575 134.84C203.575 134.84 188.28 127.64 195.186 108.118L200.538 108.47Z" fill="#FF8000"/>
<path d="M200.538 108.47C200.538 108.47 211.375 125.908 203.575 134.84C203.575 134.84 188.28 127.64 195.186 108.118L200.538 108.47Z" fill="#9347B2"/>
<path d="M201.89 104.917C201.89 104.917 222.944 100.593 230.899 112.058C230.899 112.058 219.898 124.927 200.374 110.264L201.89 104.917Z" fill="#FF8000"/>
<path d="M201.89 104.917C201.89 104.917 222.944 100.593 230.899 112.058C230.899 112.058 219.898 124.927 200.374 110.264L201.89 104.917Z" fill="#9347B2"/>
<path opacity="0.05" d="M202.46 101.385C202.46 101.385 222.237 92.9469 232.304 102.597C232.304 102.597 224.077 117.402 202.035 106.927L202.46 101.385Z" fill="black"/>
<path opacity="0.05" d="M202.036 99.6591C202.036 99.6591 221.81 91.2177 231.88 100.871C231.88 100.871 223.653 115.676 201.611 105.201L202.036 99.6591Z" fill="black"/>
<path d="M202.482 100.605C202.482 100.605 222.256 92.1695 232.329 101.82C232.329 101.82 224.102 116.625 202.061 106.15L202.482 100.605Z" fill="#B247A7"/>
<path d="M209.649 103.377C210.132 105.836 209.876 108.383 208.915 110.696C207.954 113.009 206.33 114.985 204.249 116.373C202.168 117.761 199.722 118.5 197.222 118.495C194.722 118.491 192.28 117.743 190.204 116.347C188.128 114.951 186.511 112.97 185.558 110.653C184.606 108.336 184.36 105.788 184.852 103.331C185.343 100.875 186.551 98.619 188.322 96.85C190.092 95.081 192.346 93.8779 194.799 93.3929C198.089 92.7432 201.502 93.43 204.287 95.3024C207.072 97.1748 209 100.079 209.649 103.377Z" fill="#B247A7"/>
<path d="M201.53 101.817C201.043 100.182 199.498 99.9072 197.655 100.105L197.201 97.7939L195.797 98.0718L196.24 100.321C195.871 100.395 195.496 100.475 195.122 100.557L194.677 98.2935L193.273 98.5713L193.727 100.883C193.432 100.948 193.137 101.013 192.843 101.072L190.908 101.453L191.203 102.955C191.203 102.955 192.235 102.73 192.22 102.754C192.404 102.692 192.605 102.706 192.779 102.792C192.952 102.877 193.086 103.028 193.149 103.212L193.668 105.845C193.718 105.835 193.768 105.828 193.819 105.824L193.671 105.854L194.388 109.543C194.397 109.609 194.393 109.676 194.376 109.741C194.359 109.806 194.329 109.866 194.288 109.919C194.248 109.972 194.197 110.017 194.139 110.05C194.081 110.083 194.017 110.105 193.951 110.113C193.972 110.113 192.931 110.314 192.931 110.314L192.981 112.049L194.806 111.689L195.809 111.499L196.269 113.837L197.67 113.559L197.216 111.248C197.602 111.18 197.976 111.109 198.339 111.038L198.79 113.341L200.194 113.063L199.74 110.725C202.072 110.134 203.605 109.203 203.375 106.942C203.19 105.121 202.196 104.489 200.792 104.432C201.524 103.844 201.892 103.011 201.53 101.817ZM200.551 107.202C200.896 108.949 197.873 109.339 196.921 109.528L196.313 106.43C197.263 106.241 200.191 105.378 200.548 107.202H200.551ZM199.038 102.963C199.35 104.554 196.826 104.858 196.033 105.015L195.482 102.207C196.272 102.047 198.711 101.305 199.038 102.96V102.963Z" fill="white"/>
<path opacity="0.3" d="M268.741 36.9254C276.841 36.9254 283.408 30.3433 283.408 22.2239C283.408 14.1045 276.841 7.52246 268.741 7.52246C260.641 7.52246 254.074 14.1045 254.074 22.2239C254.074 30.3433 260.641 36.9254 268.741 36.9254Z" fill="#A04DAF"/>
<path opacity="0.1" d="M55.8096 217.043C55.9305 217.549 55.9983 217.88 55.9983 217.88L59.4336 219.904C59.4336 219.904 61.9341 214.138 60.6838 213.993C60.4892 213.969 60.2769 213.768 60.0557 213.446C59.8946 213.544 59.7689 213.691 59.6968 213.865C59.6246 214.04 59.6099 214.232 59.6547 214.416C59.7041 214.648 59.7875 214.873 59.9024 215.081C60.3712 215.861 58.3396 217.105 58.3396 217.105C57.6555 217.98 56.5468 217.516 55.8096 217.043Z" fill="black"/>
<path opacity="0.1" d="M15.3848 213.517L16.635 216.473L22.2583 215.849C22.0825 215.045 21.9838 214.225 21.9634 213.402C21.9078 213.29 21.8261 213.194 21.7252 213.121C21.6243 213.048 21.5072 213 21.3839 212.982C21.2607 212.965 21.135 212.977 21.0177 213.019C20.9003 213.061 20.7948 213.13 20.7102 213.222C20.4153 213.532 20.1204 213.863 19.9081 214.132C19.283 214.912 17.2543 214.442 17.2543 214.442C16.7264 214.617 16.1043 213.851 15.656 213.16C15.5776 213.287 15.4868 213.407 15.3848 213.517Z" fill="black"/>
<path opacity="0.1" d="M46.3256 143.237C45.7603 143.486 45.1438 143.594 44.5279 143.553C43.9121 143.513 43.315 143.324 42.7871 143.004" fill="black"/>
<path d="M63.1355 96.8338C64.1499 100.519 67.6677 102.76 67.6677 102.76C67.6677 102.76 69.5461 99.0269 68.5317 95.3411C67.5173 91.6554 63.9995 89.415 63.9995 89.415C63.9995 89.415 62.1212 93.1599 63.1355 96.8338Z" fill="#B247A7"/>
<path d="M82.0993 117.367C81.0083 121.029 82.807 124.8 82.807 124.8C82.807 124.8 86.3721 122.634 87.4631 118.972C88.5541 115.31 86.7554 111.538 86.7554 111.538C86.7554 111.538 83.1904 113.705 82.0993 117.367Z" fill="#B247A7"/>
<path d="M218.879 140.926C216.201 143.649 216.027 147.825 216.027 147.825C216.027 147.825 220.191 147.588 222.868 144.869C225.546 142.15 225.72 137.971 225.72 137.971C225.72 137.971 221.556 138.213 218.879 140.926Z" fill="#B247A7"/>
<path d="M210.558 52.392L205.277 51.4189L212.154 58.3488L214.645 48.909L210.558 52.392Z" fill="#FFFBF7"/>
<path d="M213.69 47.3854L207.574 41.2549L205.34 49.6317L208.987 46.53L213.69 47.3854Z" fill="#FFFBF7"/>
<path d="M205.956 50.4745L210.256 51.2596L213.594 48.4247L209.287 47.6415L205.956 50.4745Z" fill="#FFFBF7"/>
</g>
<defs>
<linearGradient id="paint0_linear" x1="158.741" y1="-1.34497" x2="165.844" y2="335.483" gradientUnits="userSpaceOnUse">
<stop stop-color="#FD749B"/>
<stop offset="1" stop-color="#281AC8"/>
</linearGradient>
<linearGradient id="paint1_linear" x1="136.274" y1="217.764" x2="136.274" y2="0" gradientUnits="userSpaceOnUse">
<stop stop-color="#808080" stop-opacity="0.25"/>
<stop offset="0.54" stop-color="#808080" stop-opacity="0.12"/>
<stop offset="1" stop-color="#808080" stop-opacity="0.1"/>
</linearGradient>
<clipPath id="clip0">
<rect width="287" height="225" fill="white" transform="translate(0.890625)"/>
</clipPath>
</defs>
</svg>
