<?xml version="1.0" encoding="UTF-8" standalone="no"?>
<svg
   width="327.39459"
   height="237.74332"
   viewBox="0 0 327.39459 237.74332"
   fill="none"
   version="1.1"
   id="svg106"
   sodipodi:docname="index3.svg"
   inkscape:version="1.1 (ce6663b3b7, 2021-05-25)"
   xmlns:inkscape="http://www.inkscape.org/namespaces/inkscape"
   xmlns:sodipodi="http://sodipodi.sourceforge.net/DTD/sodipodi-0.dtd"
   xmlns="http://www.w3.org/2000/svg"
   xmlns:svg="http://www.w3.org/2000/svg">
  <sodipodi:namedview
     id="namedview108"
     pagecolor="#ffffff"
     bordercolor="#666666"
     borderopacity="1.0"
     inkscape:pageshadow="2"
     inkscape:pageopacity="0.0"
     inkscape:pagecheckerboard="0"
     showgrid="false"
     inkscape:zoom="1.4339623"
     inkscape:cx="103.55921"
     inkscape:cy="165.625"
     inkscape:window-width="1350"
     inkscape:window-height="664"
     inkscape:window-x="8"
     inkscape:window-y="59"
     inkscape:window-maximized="0"
     inkscape:current-layer="svg106" />
  <path
     opacity="0.16"
     d="m 67.864258,202.47688 c -6.4156,-16.956 -26.5779,-27.334 -44.6189,-33.101 -6.036,-1.939 -12.5257,-3.85 -17.1419002,-8.409 -5.65077999,-5.566 -6.85185999,-13.559 -5.71515999,-20.159 2.06770999,-12.032 10.92596019,-21.656 23.05176019,-25.052 10.4827,-2.939 22.8222,-1.424 33.1478,-4.657 17.2857,-5.416 25.2893,-22.784005 29.0063,-39.932005 2.6289,-12.131 4.6492,-26.033 15.688002,-31.782 7.771,-4.044 18.437,-2.875 28.061,0.615 4.651,1.687 9.357,3.908 14.013,3.972 2.761,0.029 5.301,-0.726 7.675,-1.667 21.664,-8.629 31.496,-32.6467996 53.887,-40.0214996 15.122,-4.9805 33.905,-1.35379995 50.488,6.4345 16.583,7.7882996 31.389,19.4100996 45.624,31.2349996 10.115,8.402 20.623,17.762 24.668,29.278 4.276,12.18 0.079,24.444 -8.228,32.146005 -8.307,7.702 -20.188,11.44 -32.368,13.443 -15.219,2.492 -32.052,2.763 -43.697,11.089 -7.929,5.672 -12.494,14.465 -17.786,22.471 -8.849,13.387 -20.117,24.972 -31.485,36.364 -10.887,10.901 -22.005,21.769 -35.619,29.731 -9.633,5.633 -20.874,7.518 -31.093,11.995 -6.661,2.919 -11.59,7.853 -18.836,9.913 -8.919002,2.533 -20.814602,2.102 -28.845602,-6.276 -7.6344,-7.961 -6.4732,-18.623 -9.8763,-27.63 z"
     fill="url(#paint0_linear)"
     id="path2"
     style="fill:url(#paint0_linear)" />
  <g
     clip-path="url(#clip0)"
     id="g84"
     transform="translate(-2.5928422,-70.618125)">
    <path
       d="m 230.731,206.606 c -27.014,39.851 -39.72,86.491 -88.717,86.491 -48.9978,0 -88.7181,-38.723 -88.7181,-86.491 0,-47.768 44.2736,-66.383 88.7181,-86.492 144.357,-65.3159 149.164,-2.679 88.717,86.492 z"
       fill="#3f3d56"
       id="path4" />
    <path
       d="m 221.206,132.318 c 9.168,0 16.601,-7.246 16.601,-16.184 0,-8.938 -7.433,-16.1838 -16.601,-16.1838 -9.168,0 -16.601,7.2458 -16.601,16.1838 0,8.938 7.433,16.184 16.601,16.184 z"
       fill="#e6e6e6"
       id="path6" />
    <path
       d="m 219.574,106.849 c 1.052,0 1.905,-0.832 1.905,-1.858 0,-1.025 -0.853,-1.857 -1.905,-1.857 -1.052,0 -1.905,0.832 -1.905,1.857 0,1.026 0.853,1.858 1.905,1.858 z"
       fill="#cbcbcb"
       id="path8" />
    <path
       d="m 222.84,125.42 c 1.052,0 1.905,-0.832 1.905,-1.857 0,-1.026 -0.853,-1.857 -1.905,-1.857 -1.053,0 -1.905,0.831 -1.905,1.857 0,1.025 0.852,1.857 1.905,1.857 z"
       fill="#cbcbcb"
       id="path10" />
    <path
       d="m 230.187,114.542 c 0.751,0 1.361,-0.594 1.361,-1.326 0,-0.733 -0.61,-1.327 -1.361,-1.327 -0.752,0 -1.361,0.594 -1.361,1.327 0,0.732 0.609,1.326 1.361,1.326 z"
       fill="#cbcbcb"
       id="path12" />
    <path
       d="m 214.675,121.706 c 2.404,0 4.354,-1.901 4.354,-4.245 0,-2.345 -1.95,-4.245 -4.354,-4.245 -2.405,0 -4.355,1.9 -4.355,4.245 0,2.344 1.95,4.245 4.355,4.245 z"
       fill="#cbcbcb"
       id="path14" />
    <path
       d="m 164.057,143.727 c 1.503,0 2.722,-1.188 2.722,-2.653 0,-1.466 -1.219,-2.654 -2.722,-2.654 -1.503,0 -2.721,1.188 -2.721,2.654 0,1.465 1.218,2.653 2.721,2.653 z"
       fill="#70c9ff"
       id="path16" />
    <path
       d="m 236.991,150.625 c 1.503,0 2.721,-1.188 2.721,-2.653 0,-1.465 -1.218,-2.653 -2.721,-2.653 -1.503,0 -2.721,1.188 -2.721,2.653 0,1.465 1.218,2.653 2.721,2.653 z"
       fill="#70c9ff"
       id="path18" />
    <path
       d="m 204.606,154.605 c 0.902,0 1.633,-0.713 1.633,-1.592 0,-0.879 -0.731,-1.592 -1.633,-1.592 -0.901,0 -1.632,0.713 -1.632,1.592 0,0.879 0.731,1.592 1.632,1.592 z"
       fill="#e6e6e6"
       id="path20" />
    <path
       d="m 78.877,204.749 c 0.9018,0 1.6328,-0.713 1.6328,-1.592 0,-0.879 -0.731,-1.592 -1.6328,-1.592 -0.9018,0 -1.6329,0.713 -1.6329,1.592 0,0.879 0.7311,1.592 1.6329,1.592 z"
       fill="#e6e6e6"
       id="path22" />
    <path
       d="m 175.487,247.464 c 0.902,0 1.633,-0.713 1.633,-1.592 0,-0.88 -0.731,-1.592 -1.633,-1.592 -0.901,0 -1.633,0.712 -1.633,1.592 0,0.879 0.732,1.592 1.633,1.592 z"
       fill="#e6e6e6"
       id="path24" />
    <path
       d="m 201.069,200.248 -0.815,0.789 -0.81,-0.795 -0.543,0.526 0.81,0.795 -0.815,0.789 0.539,0.53 0.815,-0.789 0.81,0.794 0.543,-0.526 -0.809,-0.795 0.815,-0.789 z"
       fill="#70c9ff"
       id="path26" />
    <path
       d="m 93.0288,226.248 -0.815,0.789 -0.8093,-0.794 -0.5435,0.526 0.8095,0.794 -0.815,0.789 0.5397,0.53 0.8148,-0.789 0.8095,0.795 0.5435,-0.526 -0.8095,-0.795 0.815,-0.789 z"
       fill="#e6e6e6"
       id="path28" />
    <path
       d="m 99.5601,180.084 -0.8151,0.789 -0.8093,-0.794 -0.5435,0.526 0.8096,0.794 -0.8151,0.789 0.5397,0.53 0.8148,-0.789 0.8096,0.794 0.5432,-0.526 -0.8093,-0.794 0.8153,-0.789 z"
       fill="#e6e6e6"
       id="path30" />
    <path
       d="m 241.889,131.001 -0.815,0.789 -0.809,-0.794 -0.544,0.526 0.81,0.795 -0.815,0.789 0.54,0.529 0.815,-0.789 0.809,0.795 0.543,-0.526 -0.809,-0.795 0.815,-0.789 z"
       fill="#e6e6e6"
       id="path32" />
    <path
       d="m 177.665,153.022 -0.815,0.789 -0.81,-0.794 -0.543,0.526 0.809,0.794 -0.815,0.789 0.54,0.53 0.815,-0.789 0.809,0.795 0.544,-0.527 -0.81,-0.794 0.815,-0.789 z"
       fill="#e6e6e6"
       id="path34" />
    <path
       opacity="0.8"
       d="m 183.317,192.361 8.269,-9.437 8.269,-9.437 4.668,-5.328 c 0.258,-0.295 -0.141,-0.754 -0.399,-0.46 l -8.269,9.438 -8.269,9.437 -4.667,5.327 c -0.259,0.295 0.14,0.755 0.398,0.46 z"
       fill="url(#paint1_linear)"
       id="path36"
       style="fill:url(#paint1_linear)" />
    <path
       opacity="0.8"
       d="m 168.621,226.322 8.269,-9.438 8.268,-9.437 4.668,-5.327 c 0.258,-0.295 -0.14,-0.755 -0.398,-0.46 l -8.269,9.437 -8.269,9.437 -4.668,5.328 c -0.258,0.295 0.141,0.754 0.399,0.46 z"
       fill="url(#paint2_linear)"
       id="path38"
       style="fill:url(#paint2_linear)" />
    <path
       d="m 126.91,174.105 h 15.512 v 5.951 c 0,1.025 -0.418,2.008 -1.161,2.733 -0.744,0.725 -1.752,1.133 -2.804,1.133 h -7.582 c -1.051,0 -2.06,-0.408 -2.803,-1.133 -0.744,-0.725 -1.162,-1.708 -1.162,-2.733 z"
       fill="#2f2e41"
       id="path40" />
    <path
       d="m 147.592,253.168 c -3.532,3.489 -7.07,3.512 -10.613,0.112 l -2.722,-23.46 -1.905,23.509 c -3.541,2.794 -6.84,3.17 -9.797,0.104 -2.82,-20.312 -4.353,-39.182 -1.905,-53.593 l -5.171,-20.429 11.703,-5.306 c 2.356,5.683 -1.361,8.59 7.044,8.492 8.33,-0.096 7.708,-3.151 7.379,-8.492 l 10.765,4.036 c 0.917,0.344 1.664,1.016 2.091,1.879 0.426,0.862 0.498,1.851 0.203,2.764 l -5.439,16.791 c 2.094,8.476 -0.056,32.054 -1.633,53.593 z"
       fill="#e6e6e6"
       id="path42" />
    <path
       d="m 131.264,273.597 c 0,0 -8.687,0.742 -9.851,0.275 -0.074,-0.03 -0.145,-0.062 -0.215,-0.096 -1.729,-0.861 -1.782,-3.272 -0.165,-4.322 l 3.428,-2.224 -2.994,-15.654 11.566,0.133 z"
       fill="#2f2e41"
       id="path44" />
    <path
       d="m 137.796,273.729 c 0,0 8.687,0.742 9.851,0.275 0.073,-0.029 0.145,-0.061 0.214,-0.096 1.73,-0.861 1.783,-3.272 0.166,-4.321 l -3.428,-2.225 4.218,-15.654 h -12.11 z"
       fill="#2f2e41"
       id="path46" />
    <path
       d="m 117.385,217.881 1.722,6.716 c 0.212,0.825 0.151,1.694 -0.173,2.484 -0.324,0.79 -0.896,1.46 -1.633,1.916 -0.596,0.367 -1.278,0.581 -1.982,0.621 -0.704,0.039 -1.406,-0.097 -2.041,-0.395 -0.636,-0.299 -1.182,-0.75 -1.589,-1.312 -0.407,-0.561 -0.66,-1.215 -0.735,-1.898 l -0.373,-3.356 -1.36,-31.896 c 0,-2.653 0.806,-5.247 2.318,-7.453 1.511,-2.206 3.66,-3.926 6.173,-4.942 l 2.666,-1.077 z"
       fill="#e6e6e6"
       id="path48" />
    <path
       d="m 160.655,190.496 -0.008,0.188 -1.1,25.746 -0.212,4.975 -0.041,0.987 -0.373,3.356 c -0.061,0.552 -0.238,1.085 -0.519,1.567 -0.282,0.482 -0.662,0.903 -1.117,1.236 -0.456,0.333 -0.976,0.571 -1.53,0.699 -0.554,0.128 -1.128,0.144 -1.689,0.047 -0.56,-0.097 -1.094,-0.306 -1.568,-0.613 -0.474,-0.307 -0.878,-0.706 -1.188,-1.171 -0.309,-0.466 -0.517,-0.989 -0.61,-1.536 -0.093,-0.547 -0.07,-1.108 0.068,-1.646 l 1.723,-6.715 -0.038,-0.499 -0.229,-3.12 -2.727,-36.974 2.667,1.078 c 2.512,1.018 4.659,2.739 6.17,4.944 1.511,2.206 2.318,4.799 2.321,7.451 z"
       fill="#e6e6e6"
       id="path50" />
    <path
       d="m 135.362,219.794 c -9.886,0 -15.984,-3.342 -16.07,-3.391 l 0.272,-0.459 c 0.121,0.068 12.351,6.756 30.319,0.959 l 0.171,0.504 c -4.734,1.558 -9.695,2.364 -14.692,2.387 z"
       fill="#2f2e41"
       id="path52" />
    <path
       d="m 125.573,244.255 c -2.176,-4.772 -2.187,-25.514 -2.186,-26.395 l 0.544,10e-4 c 0,0.214 0.01,21.509 2.139,26.178 z"
       fill="#2f2e41"
       id="path54" />
    <path
       d="m 126.704,244.469 c -1.938,0 -3.226,-0.402 -4.065,-0.864 -1.529,-0.84 -1.844,-1.985 -1.857,-2.033 l 0.527,-0.132 -0.263,0.066 0.263,-0.067 c 0.011,0.04 0.286,0.993 1.621,1.717 1.47,0.797 4.428,1.392 10.172,-0.302 l 0.157,0.508 c -2.749,0.81 -4.892,1.107 -6.555,1.107 z"
       fill="#2f2e41"
       id="path56" />
    <path
       d="m 121.844,176.636 -0.544,0.026 2.087,41.555 0.544,-0.026 z"
       fill="#2f2e41"
       id="path58" />
    <path
       d="m 144.031,244.255 -0.498,-0.216 c 2.129,-4.669 2.14,-25.964 2.139,-26.178 l 0.545,-10e-4 c 0,0.881 -0.011,21.623 -2.186,26.395 z"
       fill="#2f2e41"
       id="path60" />
    <path
       d="m 142.899,244.469 c -1.663,0 -3.806,-0.296 -6.555,-1.107 l 0.157,-0.508 c 5.744,1.693 8.702,1.099 10.172,0.302 1.335,-0.724 1.61,-1.677 1.62,-1.717 l 0.527,0.133 c -0.012,0.048 -0.327,1.193 -1.856,2.033 -0.839,0.462 -2.127,0.864 -4.065,0.864 z"
       fill="#2f2e41"
       id="path62" />
    <path
       d="m 147.759,176.636 -2.083,41.555 0.544,0.026 2.083,-41.555 z"
       fill="#2f2e41"
       id="path64" />
    <path
       d="m 142.389,182.86 -4.049,5.837 h -8.709 l -2.911,-5.837 h 1.279 l 2.177,4.776 h 7.348 l 3.537,-4.776 z"
       fill="#70c9ff"
       id="path66" />
    <path
       d="m 152.219,185.779 0.071,0.138 -0.071,0.127 z"
       fill="#000000"
       id="path68" />
    <path
       d="m 161.2,190.496 -0.009,0.188 -5.162,1.462 -3.195,-6.23 3.268,-5.842 c 1.593,1.257 2.877,2.845 3.759,4.648 0.882,1.803 1.339,3.776 1.339,5.774 z"
       fill="#70c9ff"
       id="path70" />
    <path
       d="m 108.886,190.496 0.008,0.188 5.162,1.462 3.195,-6.23 -3.268,-5.842 c -1.593,1.257 -2.877,2.845 -3.759,4.648 -0.882,1.803 -1.339,3.776 -1.338,5.774 z"
       fill="#70c9ff"
       id="path72" />
    <path
       d="m 134.666,178.482 c 7.965,0 14.423,-6.295 14.423,-14.061 0,-7.766 -6.458,-14.062 -14.423,-14.062 -7.966,0 -14.424,6.296 -14.424,14.062 0,7.766 6.458,14.061 14.424,14.061 z"
       fill="#e6e6e6"
       id="path74" />
    <path
       d="m 134.666,176.625 c 5.862,0 10.614,-4.632 10.614,-10.347 0,-5.714 -4.752,-10.347 -10.614,-10.347 -5.861,0 -10.613,4.633 -10.613,10.347 0,5.715 4.752,10.347 10.613,10.347 z"
       fill="#2f2e41"
       id="path76" />
    <path
       d="m 159.703,216.43 -0.221,4.975 -6.98,-3.656 -0.181,-0.632 -0.238,-3.12 z"
       fill="#70c9ff"
       id="path78" />
    <path
       d="m 110.056,216.43 0.232,4.975 7.336,-3.656 0.191,-0.632 0.25,-3.12 z"
       fill="#70c9ff"
       id="path80" />
    <path
       d="m 138.484,188.963 h -9.023 l -4.996,-10.013 -0.257,-3.601 0.543,-0.037 0.25,3.499 4.801,9.621 h 8.393 l 6.157,-8.873 1.311,-3.918 0.518,0.165 -1.357,4.019 z"
       fill="#2f2e41"
       id="path82" />
  </g>
  <defs
     id="defs104">
    <linearGradient
       id="paint0_linear"
       x1="279.35501"
       y1="288.75699"
       x2="-59.303799"
       y2="48.775799"
       gradientUnits="userSpaceOnUse"
       gradientTransform="translate(-2.5928422,-70.618125)">
      <stop
         stop-color="#D663A3"
         id="stop86" />
      <stop
         offset="1"
         stop-color="#8642B4"
         id="stop88" />
    </linearGradient>
    <linearGradient
       id="paint1_linear"
       x1="182.83501"
       y1="180.03"
       x2="204.606"
       y2="180.03"
       gradientUnits="userSpaceOnUse">
      <stop
         stop-color="white"
         id="stop91" />
      <stop
         offset="1"
         stop-color="white"
         stop-opacity="0.3"
         id="stop93" />
    </linearGradient>
    <linearGradient
       id="paint2_linear"
       x1="13911.7"
       y1="13508.5"
       x2="15801.7"
       y2="13508.5"
       gradientUnits="userSpaceOnUse">
      <stop
         stop-color="white"
         id="stop96" />
      <stop
         offset="1"
         stop-color="white"
         stop-opacity="0.3"
         id="stop98" />
    </linearGradient>
    <clipPath
       id="clip0">
      <rect
         width="214"
         height="200"
         fill="#ffffff"
         transform="translate(53.2959,93.0972)"
         id="rect101"
         x="0"
         y="0" />
    </clipPath>
  </defs>
</svg>
